<svg width="29" height="29" viewBox="0 0 29 29" fill="none" xmlns="http://www.w3.org/2000/svg">
<path d="M18 9.83398C18 11.767 16.433 13.334 14.5 13.334C12.5669 13.334 11 11.767 11 9.83398C11 7.90099 12.5669 6.33398 14.5 6.33398C16.433 6.33398 18 7.90099 18 9.83398Z" stroke="#F07407" stroke-width="1.75" stroke-linecap="round" stroke-linejoin="round"/>
<path d="M19.166 5.16602C21.0989 5.16602 22.666 6.73302 22.666 8.66602C22.666 10.093 21.812 11.3205 20.5874 11.8654" stroke="#F07407" stroke-width="1.75" stroke-linecap="round" stroke-linejoin="round"/>
<path d="M16.5 16.834H12.5C9.73858 16.834 7.5 19.0726 7.5 21.834C7.5 22.9386 8.39543 23.834 9.49999 23.834H19.5C20.6046 23.834 21.5 22.9386 21.5 21.834C21.5 19.0726 19.2614 16.834 16.5 16.834Z" stroke="#F07407" stroke-width="1.75" stroke-linecap="round" stroke-linejoin="round"/>
<path d="M21.166 15.666C23.9274 15.666 26.166 17.9046 26.166 20.666C26.166 21.7706 25.2706 22.666 24.166 22.666" stroke="#F07407" stroke-width="1.75" stroke-linecap="round" stroke-linejoin="round"/>
<path d="M9.83398 5.16602C7.90099 5.16602 6.33398 6.73302 6.33398 8.66602C6.33398 10.093 7.1879 11.3205 8.41261 11.8654" stroke="#F07407" stroke-width="1.75" stroke-linecap="round" stroke-linejoin="round"/>
<path d="M4.83399 22.666C3.72941 22.666 2.83398 21.7706 2.83398 20.666C2.83398 17.9046 5.07256 15.666 7.83398 15.666" stroke="#F07407" stroke-width="1.75" stroke-linecap="round" stroke-linejoin="round"/>
</svg>
