<svg width="28" height="28" viewBox="0 0 28 28" fill="none" xmlns="http://www.w3.org/2000/svg">
<path d="M10.5 17.5L7 25.6667" stroke="#F07407" stroke-width="1.75" stroke-linecap="round"/>
<path d="M17.5 17.5L21 25.6667" stroke="#F07407" stroke-width="1.75" stroke-linecap="round"/>
<path d="M14 17.5V25.6667" stroke="#F07407" stroke-width="1.75" stroke-linecap="round"/>
<path d="M18.1489 7.00065C18.8401 6.35632 18.8401 5.31164 18.1489 4.66732C17.4575 4.02299 17.4575 2.97831 18.1489 2.33398M14.0007 7.00065C14.692 6.35632 14.692 5.31164 14.0007 4.66732C13.3093 4.02299 13.3093 2.97831 14.0007 2.33398M9.8525 7.00065C10.5439 6.35632 10.5439 5.31164 9.8525 4.66732C9.16115 4.02299 9.16115 2.97831 9.8525 2.33398" stroke="#F07407" stroke-width="1.75" stroke-linecap="round"/>
<path d="M8.75 22.166H19.25" stroke="#F07407" stroke-width="1.75" stroke-linecap="round"/>
<path d="M14.0007 17.5007C18.1273 17.5007 21.5411 14.4566 22.1072 10.4972C22.1798 9.98983 22.2161 9.73613 22.0411 9.53506C21.8662 9.33398 21.5841 9.33398 21.0198 9.33398H6.98151C6.41722 9.33398 6.13509 9.33398 5.96017 9.53506C5.78525 9.73613 5.82153 9.98983 5.89408 10.4972C6.46024 14.4566 9.87398 17.5007 14.0007 17.5007Z" stroke="#F07407" stroke-width="1.75" stroke-linecap="round" stroke-linejoin="round"/>
<path d="M22.166 11.666H23.3327M5.83268 11.666H4.66602" stroke="#F07407" stroke-width="1.75" stroke-linecap="round"/>
</svg>
