<svg width="28" height="29" viewBox="0 0 28 29" fill="none" xmlns="http://www.w3.org/2000/svg">
<path d="M17.5 14.4993C17.5 13.2106 18.5446 12.166 19.8333 12.166C22.4106 12.166 24.5 14.2554 24.5 16.8327C24.5 19.41 22.4106 21.4993 19.8333 21.4993C18.5446 21.4993 17.5 20.4547 17.5 19.166V14.4993Z" stroke="#F07407" stroke-width="1.75"/>
<path d="M10.5 14.4993C10.5 13.2106 9.45533 12.166 8.16667 12.166C5.58934 12.166 3.5 14.2554 3.5 16.8327C3.5 19.41 5.58934 21.4993 8.16667 21.4993C9.45533 21.4993 10.5 20.4547 10.5 19.166V14.4993Z" stroke="#F07407" stroke-width="1.75"/>
<path d="M3.5 16.834V13.334C3.5 7.535 8.20101 2.83398 14 2.83398C19.799 2.83398 24.5 7.535 24.5 13.334V18.9879C24.5 21.3309 24.5 22.5024 24.0889 23.416C23.6209 24.4557 22.7884 25.2882 21.7487 25.7562C20.835 26.1673 19.6636 26.1673 17.3206 26.1673H14" stroke="#F07407" stroke-width="1.75" stroke-linecap="round" stroke-linejoin="round"/>
</svg>
