<svg width="200" height="81" viewBox="0 0 200 81" fill="none" xmlns="http://www.w3.org/2000/svg">
<g clip-path="url(#clip0_122_11271)">
<path d="M70.1015 57.8912C69.3548 57.0367 69.4426 55.743 70.2931 54.9963L78.1914 48.0803C79.006 47.3655 80.2358 47.4095 80.9985 48.1761L86.2813 53.4869C86.6646 53.8742 87.1877 54.0898 87.7308 54.0938L96.9268 54.1258C98.7436 54.1338 99.674 51.9496 98.4082 50.6438L88.8289 40.769C88.0303 39.9464 88.0622 38.6327 88.8928 37.8461L128.464 0.558982C129.29 -0.219663 130.588 -0.179732 131.367 0.64683C132.145 1.47339 132.106 2.77113 131.279 3.54978L94.7426 37.9779C93.908 38.7645 93.8801 40.0782 94.6787 40.9008L108.147 54.7846C109.413 56.0904 108.483 58.2746 106.666 58.2666L86.0218 58.1947C85.4787 58.1947 84.9556 57.9751 84.5723 57.5878L80.8108 53.8023C80.0482 53.0357 78.8183 52.9918 78.0037 53.7065L73.0044 58.0869C72.1499 58.8336 70.8561 58.7457 70.1094 57.8952L70.1015 57.8912Z" fill="#F2F4FF"/>
<path d="M32.674 79.8912C31.8873 79.0766 31.9073 77.7749 32.7259 76.9882L68.839 42.1129C69.6616 41.3183 69.6776 40.0006 68.867 39.19L55.2267 25.4739C53.9449 24.1841 54.8474 21.9919 56.6642 21.976L77.3083 21.7963C77.8513 21.7923 78.3744 22.0039 78.7658 22.3833L82.5711 26.1208C83.3458 26.8794 84.5756 26.9074 85.3783 26.1846L90.3256 21.7444C91.1682 20.9857 92.4659 21.0576 93.2246 21.9001C93.9833 22.7426 93.9114 24.0404 93.0689 24.7991L85.2545 31.8109C84.4479 32.5336 83.218 32.5056 82.4473 31.747L77.1047 26.5001C76.7173 26.1208 76.1942 25.9091 75.6472 25.9131L66.4512 25.993C64.6343 26.0089 63.7319 28.2051 65.0137 29.4909L74.7168 39.2499C75.5234 40.0605 75.5114 41.3782 74.6889 42.1728L35.5809 79.9391C34.7663 80.7257 33.4646 80.7058 32.6779 79.8872L32.674 79.8912Z" fill="#F2F4FF"/>
<path d="M94.6229 23.0193C96.257 23.0193 97.5818 21.6945 97.5818 20.0604C97.5818 18.4263 96.257 17.1016 94.6229 17.1016C92.9888 17.1016 91.6641 18.4263 91.6641 20.0604C91.6641 21.6945 92.9888 23.0193 94.6229 23.0193Z" stroke="#F2F4FF" stroke-width="1.59722" stroke-miterlimit="10"/>
<path d="M68.2948 62.3005C69.9289 62.3005 71.2536 60.9758 71.2536 59.3417C71.2536 57.7075 69.9289 56.3828 68.2948 56.3828C66.6607 56.3828 65.3359 57.7075 65.3359 59.3417C65.3359 60.9758 66.6607 62.3005 68.2948 62.3005Z" stroke="#F2F4FF" stroke-width="1.59722" stroke-miterlimit="10"/>
<path d="M0.000173604 34.1259C0.000173604 33.503 0.319618 33.1875 0.958506 33.1875H12.4106C13.333 33.1875 14.1675 33.2634 14.9062 33.4191C15.6489 33.5788 16.2759 33.7944 16.791 34.0819C17.3061 34.3654 17.7054 34.7128 17.9849 35.1201C18.2644 35.5274 18.4002 35.9826 18.4002 36.4858V39.0533C18.4002 39.5564 18.2604 40.0076 17.9849 40.4189C17.7054 40.8262 17.3061 41.1736 16.791 41.4571C16.2759 41.7406 15.6489 41.9642 14.9062 42.12C14.1675 42.2757 13.333 42.3555 12.4106 42.3555H10.0387C9.59548 42.3555 9.20416 42.3555 8.86475 42.3436C8.52534 42.3356 8.22187 42.3276 7.94635 42.3156C7.67482 42.2996 7.41128 42.2877 7.15173 42.2757V42.3156C7.36735 42.3955 7.60294 42.4793 7.85451 42.5712C8.10607 42.659 8.41753 42.7708 8.7809 42.9066C9.14826 43.0424 9.59149 43.2141 10.1146 43.4177C10.6377 43.6213 11.2885 43.8809 12.0632 44.1924L16.9706 46.1689C17.4059 46.3446 17.6215 46.6521 17.6215 47.0873C17.6215 47.4547 17.5017 47.7062 17.2661 47.842C17.0265 47.9778 16.6871 48.0456 16.2359 48.0456C16.1401 48.0456 16.0243 48.0417 15.8805 48.0337C15.7368 48.0297 15.589 48.0137 15.4413 47.9937C15.2896 47.9738 15.1458 47.9458 15.0021 47.9139C14.8583 47.8779 14.7305 47.826 14.6227 47.7581L2.70347 42.6031V47.0873C2.70347 47.4826 2.58767 47.7422 2.35607 47.862C2.12448 47.9858 1.78507 48.0456 1.33785 48.0456C0.890624 48.0456 0.57118 47.9858 0.339583 47.862C0.107986 47.7382 -0.0078125 47.4826 -0.0078125 47.0873V34.1299L0.000173604 34.1259ZM2.71146 35.3877V40.1993H12.167C12.8618 40.1993 13.4368 40.1634 13.888 40.0955C14.3432 40.0276 14.7066 39.9358 14.9781 39.82C15.2496 39.7042 15.4413 39.5684 15.5491 39.4127C15.6569 39.2569 15.7128 39.0852 15.7128 38.8936V36.6934C15.7128 36.5177 15.6569 36.346 15.5491 36.1863C15.4413 36.0226 15.2496 35.8828 14.9781 35.767C14.7066 35.6512 14.3432 35.5594 13.888 35.4915C13.4328 35.4236 12.8578 35.3877 12.167 35.3877H2.71146Z" fill="#F2F4FF"/>
<path d="M22.578 41.7845V44.1684C22.578 44.6036 22.8496 44.979 23.3926 45.2904C23.9357 45.6019 24.8062 45.7576 26.0001 45.7576H35.7431C36.0666 45.7576 36.2822 45.8495 36.382 46.0331C36.4818 46.2168 36.5338 46.4923 36.5338 46.8597C36.5338 47.2271 36.4818 47.4866 36.382 47.6743C36.2782 47.862 36.0666 47.9578 35.7431 47.9578H25.9202C21.8992 47.9578 19.8867 46.696 19.8867 44.1684V36.9769C19.8867 34.4493 21.8992 33.1875 25.9202 33.1875H28.9549C29.2664 33.1875 29.478 33.2793 29.5779 33.463C29.6817 33.6467 29.7296 33.9222 29.7296 34.2896C29.7296 34.6569 29.6817 34.9325 29.5779 35.1161C29.478 35.2998 29.2664 35.3917 28.9549 35.3917H26.0001C24.8062 35.3917 23.9357 35.5434 23.3926 35.8509C22.8496 36.1543 22.578 36.5337 22.578 36.9809V39.5924H35.803C36.1265 39.5924 36.3421 39.6842 36.4419 39.8679C36.5457 40.0516 36.5976 40.3271 36.5976 40.6944C36.5976 41.0618 36.5457 41.3373 36.4419 41.521C36.3421 41.7047 36.1265 41.7965 35.803 41.7965H22.578V41.7845Z" fill="#F2F4FF"/>
<path d="M56.7738 44.1646C56.7738 46.6922 54.7653 47.954 50.7403 47.954H39.1884C38.5615 47.954 38.25 47.6345 38.25 46.9956V34.1181C38.25 33.4951 38.5655 33.1797 39.1884 33.1797H50.7403C54.7653 33.1797 56.7738 34.4415 56.7738 36.9691V44.1606V44.1646ZM40.9613 45.7578H50.6604C51.8583 45.7578 52.7288 45.6021 53.2798 45.2906C53.8309 44.9792 54.1064 44.6038 54.1064 44.1686V36.9771C54.1064 36.5299 53.8309 36.1545 53.2798 35.847C52.7288 35.5396 51.8583 35.3878 50.6604 35.3878H40.9613V45.7578Z" fill="#F2F4FF"/>
<path d="M111.802 47.6864C107.405 47.6864 105.209 46.4766 105.209 44.0568V37.1687C105.209 34.749 107.405 33.5391 111.802 33.5391H122.711C123.07 33.5391 123.302 33.6269 123.413 33.8026C123.521 33.9783 123.581 34.2418 123.581 34.5932C123.581 34.9446 123.525 35.2082 123.413 35.3839C123.302 35.5595 123.07 35.6514 122.711 35.6514H111.889C110.584 35.6514 109.633 35.7951 109.038 36.0906C108.447 36.3821 108.148 36.7455 108.148 37.1767V44.0647C108.148 44.484 108.447 44.8394 109.038 45.1389C109.633 45.4384 110.584 45.5861 111.889 45.5861H122.734C123.09 45.5861 123.321 45.6739 123.425 45.8496C123.529 46.0253 123.581 46.2889 123.581 46.6403C123.581 46.9917 123.529 47.2392 123.425 47.4229C123.321 47.6026 123.09 47.6944 122.734 47.6944H111.802V47.6864Z" fill="#F2F4FF"/>
<path d="M130.668 47.6864C126.954 47.6864 125.098 46.4765 125.098 44.0568V37.1687C125.098 34.749 126.954 33.5391 130.668 33.5391H136.142C139.856 33.5391 141.709 34.749 141.709 37.1687V44.0568C141.709 46.4765 139.852 47.6864 136.142 47.6864H130.668ZM136.067 45.5781C137.169 45.5781 137.975 45.4304 138.474 45.1309C138.978 44.8314 139.229 44.476 139.229 44.0568V37.1687C139.229 36.7375 138.978 36.3781 138.474 36.0826C137.975 35.7911 137.169 35.6434 136.067 35.6434H130.744C129.638 35.6434 128.835 35.7872 128.336 36.0826C127.833 36.3741 127.581 36.7375 127.581 37.1687V44.0568C127.581 44.476 127.833 44.8314 128.336 45.1309C128.835 45.4304 129.638 45.5781 130.744 45.5781H136.067Z" fill="#F2F4FF"/>
<path d="M160.519 47.6743C160.328 47.6743 160.172 47.6663 160.048 47.6543C159.928 47.6424 159.813 47.6104 159.701 47.5585C159.589 47.5066 159.477 47.4387 159.353 47.3549C159.23 47.271 159.078 47.1592 158.902 47.0154L146.18 36.917V46.7679C146.18 47.1432 146.061 47.3828 145.833 47.5026C145.601 47.6184 145.258 47.6743 144.807 47.6743C144.356 47.6743 144.036 47.6184 143.805 47.5026C143.573 47.3868 143.453 47.1432 143.453 46.7679V34.4533C143.453 34.0939 143.565 33.8503 143.785 33.7306C144 33.6068 144.324 33.5469 144.747 33.5469C145.198 33.5469 145.553 33.6028 145.813 33.7106C146.069 33.8184 146.36 34.0021 146.672 34.2616L159.21 44.3201V34.4533C159.21 34.0819 159.326 33.8384 159.561 33.7226C159.793 33.6068 160.124 33.5509 160.563 33.5509C161.003 33.5509 161.354 33.6068 161.586 33.7226C161.817 33.8384 161.933 34.0819 161.933 34.4533V46.7679C161.933 47.1432 161.813 47.3828 161.586 47.5026C161.354 47.6184 160.999 47.6743 160.519 47.6743Z" fill="#F2F4FF"/>
<path d="M165.976 41.7647V44.0448C165.976 44.4641 166.248 44.8194 166.795 45.1189C167.338 45.4184 168.209 45.5701 169.402 45.5701H179.141C179.469 45.5701 179.681 45.658 179.784 45.8337C179.888 46.0094 179.94 46.2689 179.94 46.6243C179.94 46.9797 179.888 47.2233 179.784 47.4029C179.681 47.5866 179.469 47.6745 179.141 47.6745H169.319C165.298 47.6745 163.289 46.4646 163.289 44.0448V37.1648C163.289 34.745 165.298 33.5391 169.319 33.5391H172.353C172.665 33.5391 172.872 33.6269 172.972 33.8026C173.076 33.9783 173.124 34.2418 173.124 34.5932C173.124 34.9446 173.072 35.2082 172.972 35.3839C172.872 35.5595 172.665 35.6474 172.353 35.6474H169.398C168.205 35.6474 167.334 35.7911 166.791 36.0866C166.248 36.3781 165.972 36.7415 165.972 37.1687V39.6644H179.197C179.521 39.6644 179.736 39.7523 179.84 39.924C179.944 40.0996 179.992 40.3632 179.992 40.7146C179.992 41.066 179.944 41.3295 179.84 41.5052C179.74 41.6809 179.525 41.7687 179.197 41.7687H165.972L165.976 41.7647Z" fill="#F2F4FF"/>
<path d="M191.024 38.9681L197.313 33.6054C197.484 33.4616 197.672 33.3658 197.872 33.3179C198.071 33.27 198.331 33.25 198.646 33.25C198.806 33.25 198.962 33.258 199.113 33.27C199.265 33.2819 199.401 33.3179 199.521 33.3778C199.641 33.4377 199.736 33.5175 199.808 33.6253C199.88 33.7292 199.916 33.8769 199.916 34.0606C199.916 34.2443 199.872 34.396 199.788 34.5158C199.7 34.6356 199.533 34.8073 199.281 35.0309L192.852 40.4934L199.341 45.896C199.609 46.1196 199.78 46.2913 199.868 46.4111C199.956 46.5309 199.996 46.6826 199.996 46.8663C199.996 47.2217 199.872 47.4493 199.629 47.5411C199.381 47.633 199.07 47.6809 198.682 47.6809C198.391 47.6809 198.159 47.6569 197.983 47.613C197.812 47.5651 197.632 47.4733 197.444 47.3255L190.876 41.863L184.467 47.3255C184.279 47.4693 184.092 47.5651 183.9 47.613C183.708 47.6609 183.465 47.6809 183.173 47.6809C183.013 47.6809 182.854 47.6729 182.694 47.6609C182.534 47.6489 182.391 47.613 182.267 47.5531C182.139 47.4932 182.043 47.4094 181.967 47.3055C181.895 47.2017 181.855 47.054 181.855 46.8703C181.855 46.6866 181.899 46.5349 181.983 46.4151C182.067 46.2953 182.239 46.1236 182.49 45.9L189.039 40.3377L182.71 35.0349C182.446 34.8113 182.271 34.6396 182.183 34.5198C182.095 34.4 182.051 34.2483 182.051 34.0646C182.051 33.7212 182.171 33.5016 182.411 33.4017C182.65 33.3019 182.962 33.254 183.349 33.254C183.652 33.254 183.9 33.278 184.084 33.3219C184.267 33.3698 184.443 33.4656 184.599 33.6094L191.012 38.972L191.024 38.9681Z" fill="#F2F4FF"/>
</g>
<defs>
<clipPath id="clip0_122_11271">
<rect width="200" height="80.5159" fill="white"/>
</clipPath>
</defs>
</svg>
