<svg width="167" height="64" viewBox="0 0 167 64" fill="none" xmlns="http://www.w3.org/2000/svg">
<g clip-path="url(#clip0_138_8379)">
<path d="M-0.00116315 23.8282C-0.00116315 23.3095 0.264811 23.0469 0.796759 23.0469H10.3319C11.0999 23.0469 11.7948 23.11 12.4099 23.2397C13.0282 23.3727 13.5502 23.5522 13.9791 23.7916C14.408 24.0277 14.7404 24.3169 14.9732 24.656C15.2059 24.9951 15.3189 25.3741 15.3189 25.7931V27.9308C15.3189 28.3497 15.2026 28.7254 14.9732 29.0679C14.7404 29.407 14.408 29.6962 13.9791 29.9323C13.5502 30.1683 13.0282 30.3545 12.4099 30.4842C11.7948 30.6138 11.0999 30.6803 10.3319 30.6803H8.35707C7.98803 30.6803 7.66221 30.6803 7.37962 30.6704C7.09702 30.6637 6.84434 30.6571 6.61494 30.6471C6.38886 30.6338 6.16943 30.6238 5.95333 30.6138V30.6471C6.13286 30.7136 6.32902 30.7834 6.53847 30.8599C6.74793 30.933 7.00725 31.0261 7.3098 31.1391C7.61567 31.2522 7.98471 31.3951 8.42024 31.5647C8.85577 31.7343 9.39769 31.9504 10.0427 32.2097L14.1287 33.8554C14.4911 34.0017 14.6706 34.2577 14.6706 34.6201C14.6706 34.9259 14.5709 35.1354 14.3747 35.2484C14.1753 35.3615 13.8927 35.418 13.517 35.418C13.4372 35.418 13.3408 35.4147 13.2211 35.408C13.1014 35.4047 12.9784 35.3914 12.8554 35.3748C12.729 35.3581 12.6093 35.3349 12.4896 35.3083C12.37 35.2784 12.2636 35.2351 12.1738 35.1786L2.24964 30.8865V34.6201C2.24964 34.9492 2.15323 35.1653 1.9604 35.2651C1.76756 35.3681 1.48497 35.418 1.1126 35.418C0.740239 35.418 0.474265 35.3681 0.281434 35.2651C0.0886031 35.162 -0.0078125 34.9492 -0.0078125 34.6201V23.8315L-0.00116315 23.8282ZM2.25629 24.8788V28.885H10.1291C10.7076 28.885 11.1864 28.8551 11.5621 28.7986C11.9411 28.742 12.2436 28.6656 12.4697 28.5692C12.6958 28.4727 12.8554 28.3597 12.9451 28.23C13.0349 28.1004 13.0814 27.9574 13.0814 27.7978V25.9659C13.0814 25.8197 13.0349 25.6767 12.9451 25.5437C12.8554 25.4074 12.6958 25.291 12.4697 25.1946C12.2436 25.0982 11.9411 25.0217 11.5621 24.9652C11.183 24.9087 10.7043 24.8788 10.1291 24.8788H2.25629Z" fill="#01A0C6"/>
<path d="M18.7955 30.2049V32.1897C18.7955 32.5521 19.0216 32.8646 19.4738 33.124C19.9259 33.3833 20.6507 33.513 21.6448 33.513H29.757C30.0263 33.513 30.2058 33.5894 30.2889 33.7424C30.372 33.8953 30.4153 34.1247 30.4153 34.4306C30.4153 34.7364 30.372 34.9525 30.2889 35.1088C30.2025 35.2651 30.0263 35.3448 29.757 35.3448H21.5783C18.2303 35.3448 16.5547 34.2943 16.5547 32.1897V26.202C16.5547 24.0975 18.2303 23.0469 21.5783 23.0469H24.105C24.3644 23.0469 24.5406 23.1233 24.6237 23.2763C24.7101 23.4292 24.75 23.6586 24.75 23.9645C24.75 24.2704 24.7101 24.4998 24.6237 24.6527C24.5406 24.8056 24.3644 24.8821 24.105 24.8821H21.6448C20.6507 24.8821 19.9259 25.0084 19.4738 25.2644C19.0216 25.5171 18.7955 25.833 18.7955 26.2053V28.3797H29.8068C30.0761 28.3797 30.2557 28.4561 30.3388 28.6091C30.4252 28.762 30.4685 28.9914 30.4685 29.2973C30.4685 29.6031 30.4252 29.8325 30.3388 29.9855C30.2557 30.1384 30.0761 30.2149 29.8068 30.2149H18.7955V30.2049Z" fill="#01A0C6"/>
<path d="M47.2689 32.1931C47.2689 34.2976 45.5966 35.3482 42.2453 35.3482H32.627C32.105 35.3482 31.8457 35.0822 31.8457 34.5503V23.8282C31.8457 23.3095 32.1084 23.0469 32.627 23.0469H42.2453C45.5966 23.0469 47.2689 24.0975 47.2689 26.202V32.1897V32.1931ZM34.1032 33.5163H42.1788C43.1762 33.5163 43.901 33.3866 44.3598 33.1273C44.8186 32.868 45.048 32.5554 45.048 32.1931V26.2053C45.048 25.833 44.8186 25.5204 44.3598 25.2644C43.901 25.0084 43.1762 24.8821 42.1788 24.8821H34.1032V33.5163Z" fill="#01A0C6"/>
<path d="M93.0867 35.1231C89.4262 35.1231 87.5977 34.1157 87.5977 32.1009V26.3659C87.5977 24.3511 89.4262 23.3438 93.0867 23.3438H102.17C102.469 23.3438 102.662 23.4169 102.755 23.5632C102.845 23.7095 102.894 23.9289 102.894 24.2215C102.894 24.514 102.848 24.7335 102.755 24.8798C102.662 25.026 102.469 25.1025 102.17 25.1025H93.1598C92.0727 25.1025 91.2814 25.2222 90.786 25.4682C90.294 25.7109 90.0446 26.0135 90.0446 26.3725V32.1076C90.0446 32.4567 90.294 32.7526 90.786 33.0019C91.2814 33.2513 92.0727 33.3743 93.1598 33.3743H102.19C102.486 33.3743 102.678 33.4474 102.765 33.5937C102.851 33.74 102.894 33.9594 102.894 34.252C102.894 34.5446 102.851 34.7507 102.765 34.9036C102.678 35.0533 102.486 35.1297 102.19 35.1297H93.0867V35.1231Z" fill="white"/>
<path d="M108.794 35.1231C105.702 35.1231 104.156 34.1157 104.156 32.1009V26.3659C104.156 24.3511 105.702 23.3438 108.794 23.3438H113.352C116.444 23.3438 117.987 24.3511 117.987 26.3659V32.1009C117.987 34.1157 116.441 35.1231 113.352 35.1231H108.794ZM113.289 33.3676C114.207 33.3676 114.878 33.2446 115.294 32.9953C115.713 32.7459 115.922 32.45 115.922 32.1009V26.3659C115.922 26.0068 115.713 25.7076 115.294 25.4616C114.878 25.2189 114.207 25.0959 113.289 25.0959H108.857C107.936 25.0959 107.268 25.2155 106.853 25.4616C106.434 25.7043 106.224 26.0068 106.224 26.3659V32.1009C106.224 32.45 106.434 32.7459 106.853 32.9953C107.268 33.2446 107.936 33.3676 108.857 33.3676H113.289Z" fill="white"/>
<path d="M133.651 35.1065C133.491 35.1065 133.362 35.0998 133.259 35.0898C133.159 35.0799 133.063 35.0533 132.97 35.01C132.876 34.9668 132.783 34.9103 132.68 34.8405C132.577 34.7707 132.451 34.6776 132.305 34.5579L121.712 26.1498V34.3518C121.712 34.6643 121.612 34.8637 121.423 34.9635C121.23 35.0599 120.944 35.1065 120.568 35.1065C120.193 35.1065 119.927 35.0599 119.734 34.9635C119.541 34.8671 119.441 34.6643 119.441 34.3518V24.0985C119.441 23.7992 119.534 23.5964 119.717 23.4967C119.897 23.3936 120.166 23.3438 120.519 23.3438C120.894 23.3438 121.19 23.3903 121.406 23.4801C121.619 23.5698 121.862 23.7228 122.121 23.9389L132.561 32.3137V24.0985C132.561 23.7893 132.657 23.5865 132.853 23.49C133.046 23.3936 133.322 23.3471 133.688 23.3471C134.053 23.3471 134.346 23.3936 134.539 23.49C134.732 23.5865 134.828 23.7893 134.828 24.0985V34.3518C134.828 34.6643 134.728 34.8637 134.539 34.9635C134.346 35.0599 134.05 35.1065 133.651 35.1065Z" fill="white"/>
<path d="M138.193 30.1926V32.091C138.193 32.4401 138.419 32.736 138.874 32.9853C139.326 33.2347 140.051 33.361 141.045 33.361H149.154C149.427 33.361 149.603 33.4341 149.689 33.5804C149.776 33.7267 149.819 33.9428 149.819 34.2387C149.819 34.5346 149.776 34.7374 149.689 34.887C149.603 35.04 149.427 35.1131 149.154 35.1131H140.975C137.627 35.1131 135.955 34.1057 135.955 32.091V26.3626C135.955 24.3478 137.627 23.3438 140.975 23.3438H143.502C143.761 23.3438 143.934 23.4169 144.017 23.5632C144.104 23.7095 144.144 23.9289 144.144 24.2215C144.144 24.514 144.101 24.7335 144.017 24.8798C143.934 25.026 143.761 25.0992 143.502 25.0992H141.042C140.048 25.0992 139.323 25.2189 138.871 25.4649C138.419 25.7076 138.189 26.0101 138.189 26.3659V28.4438H149.201C149.47 28.4438 149.649 28.5169 149.736 28.6599C149.822 28.8062 149.862 29.0256 149.862 29.3182C149.862 29.6108 149.822 29.8302 149.736 29.9765C149.653 30.1228 149.473 30.1959 149.201 30.1959H138.189L138.193 30.1926Z" fill="white"/>
<path d="M159.048 27.8586L164.284 23.3936C164.427 23.2739 164.583 23.1941 164.749 23.1542C164.916 23.1143 165.132 23.0977 165.394 23.0977C165.527 23.0977 165.657 23.1043 165.783 23.1143C165.91 23.1243 166.023 23.1542 166.122 23.204C166.222 23.2539 166.302 23.3204 166.362 23.4102C166.422 23.4966 166.452 23.6196 166.452 23.7726C166.452 23.9255 166.415 24.0518 166.345 24.1516C166.272 24.2513 166.132 24.3943 165.923 24.5805L160.57 29.1286L165.973 33.6269C166.196 33.8131 166.339 33.956 166.412 34.0558C166.485 34.1555 166.518 34.2819 166.518 34.4348C166.518 34.7307 166.415 34.9202 166.212 34.9967C166.006 35.0731 165.747 35.113 165.424 35.113C165.182 35.113 164.989 35.0931 164.842 35.0565C164.699 35.0166 164.55 34.9401 164.394 34.8171L158.925 30.269L153.588 34.8171C153.432 34.9368 153.276 35.0166 153.116 35.0565C152.957 35.0964 152.754 35.113 152.511 35.113C152.378 35.113 152.245 35.1064 152.112 35.0964C151.979 35.0864 151.86 35.0565 151.757 35.0066C151.65 34.9568 151.57 34.887 151.507 34.8005C151.447 34.7141 151.414 34.5911 151.414 34.4381C151.414 34.2852 151.451 34.1589 151.52 34.0591C151.59 33.9594 151.733 33.8164 151.943 33.6302L157.395 28.999L152.126 24.5838C151.906 24.3976 151.76 24.2546 151.687 24.1549C151.614 24.0552 151.577 23.9288 151.577 23.7759C151.577 23.49 151.677 23.3071 151.876 23.224C152.076 23.1409 152.335 23.101 152.657 23.101C152.91 23.101 153.116 23.1209 153.269 23.1575C153.422 23.1974 153.568 23.2772 153.698 23.3969L159.038 27.8619L159.048 27.8586Z" fill="white"/>
<path d="M78.2018 12.3895C76.2635 12.3895 74.6876 13.9654 74.6876 15.9036C74.6876 16.3359 74.7774 16.7448 74.9203 17.1271C74.8472 17.1737 74.774 17.2235 74.7042 17.2834L70.7711 20.8109C70.1295 21.386 69.152 21.3628 68.5369 20.761L65.5115 17.7887C65.2023 17.4862 64.7867 17.3166 64.3545 17.32L47.9439 17.4629C46.501 17.4762 45.7829 19.2217 46.8002 20.2457L57.642 31.1506C58.2836 31.7956 58.2737 32.8429 57.6187 33.4746L28.9135 61.1957C28.3981 61.6944 28.2818 62.4491 28.571 63.0642C28.6442 63.2204 28.7472 63.37 28.8736 63.503C29.4986 64.1513 30.5326 64.168 31.1809 63.5429L62.2666 33.5244C62.9216 32.8927 62.9315 31.8455 62.2899 31.2005L54.58 23.444C53.5626 22.42 54.2774 20.6746 55.7236 20.6613L63.0346 20.5981C63.4668 20.5948 63.8824 20.761 64.1916 21.0669L68.4405 25.236C69.0556 25.8378 70.033 25.861 70.6747 25.2859L76.8852 19.7104C77.0315 19.5774 77.1445 19.4245 77.231 19.2582C77.5402 19.348 77.8627 19.4112 78.2018 19.4112C80.1401 19.4112 81.716 17.8353 81.716 15.897C81.716 13.9587 80.1401 12.3828 78.2018 12.3828V12.3895ZM78.2018 17.7821C77.1645 17.7821 76.32 16.9376 76.32 15.9003C76.32 14.863 77.1645 14.0186 78.2018 14.0186C79.2391 14.0186 80.0835 14.863 80.0835 15.9003C80.0835 16.9376 79.2391 17.7821 78.2018 17.7821Z" fill="white"/>
<path d="M107.257 2.82052C107.912 2.20213 107.945 1.17148 107.327 0.513197C106.709 -0.141764 105.675 -0.17501 105.02 0.443379L73.5649 30.0795C72.9033 30.7046 72.88 31.7485 73.5117 32.4035L81.1285 40.253C82.1359 41.2903 81.3978 43.0258 79.9516 43.0192L72.644 42.9926C72.2118 42.9926 71.7962 42.8164 71.4936 42.5105L67.2946 38.2882C66.6861 37.6764 65.712 37.6432 65.0637 38.2117L58.7834 43.7107C58.6704 43.8104 58.5806 43.9235 58.5008 44.0432C58.1085 43.8902 57.6862 43.8005 57.2407 43.8005C55.3025 43.8005 53.7266 45.3764 53.7266 47.3147C53.7266 49.2529 55.3025 50.8288 57.2407 50.8288C59.179 50.8288 60.7549 49.2529 60.7549 47.3147C60.7549 46.9888 60.6951 46.6796 60.612 46.3804C60.725 46.3206 60.8314 46.2541 60.9311 46.1676L64.9074 42.6867C65.5558 42.1182 66.5332 42.1548 67.1383 42.7632L70.1272 45.772C70.4331 46.0779 70.8453 46.2508 71.2775 46.2541L87.6881 46.3106C89.131 46.3172 89.8691 44.5784 88.8651 43.5445L78.1596 32.5065C77.5246 31.8516 77.5479 30.8076 78.2128 30.1826L107.257 2.82052ZM57.2441 49.1964C56.2068 49.1964 55.3623 48.352 55.3623 47.3147C55.3623 46.2774 56.2068 45.4329 57.2441 45.4329C58.2814 45.4329 59.1258 46.2774 59.1258 47.3147C59.1258 48.352 58.2814 49.1964 57.2441 49.1964Z" fill="white"/>
</g>
<defs>
<clipPath id="clip0_138_8379">
<rect width="166.523" height="64" fill="white"/>
</clipPath>
</defs>
</svg>
