<svg width="1308" height="422" viewBox="0 0 1308 422" fill="none" xmlns="http://www.w3.org/2000/svg">
<g filter="url(#filter0_f_21_1117)">
<path d="M2610.34 393.258C2506.38 336.26 2313.35 288.745 2064.15 258.809C1814.95 228.874 1524.99 218.371 1243.69 229.089C962.379 239.807 707.127 271.084 521.423 317.59C335.718 364.096 231.051 422.953 225.254 484.134C219.458 545.315 312.891 605.034 489.634 653.115C666.378 701.196 915.495 734.664 1194.54 747.818C1473.59 760.971 1765.29 752.995 2019.96 725.25C2274.63 697.504 2476.49 651.705 2591.17 595.656L1460 489.5L2610.34 393.258Z" fill="#00388C"/>
<path d="M2610.34 393.258C2506.38 336.26 2313.35 288.745 2064.15 258.809C1814.95 228.874 1524.99 218.371 1243.69 229.089C962.379 239.807 707.127 271.084 521.423 317.59C335.718 364.096 231.051 422.953 225.254 484.134C219.458 545.315 312.891 605.034 489.634 653.115C666.378 701.196 915.495 734.664 1194.54 747.818C1473.59 760.971 1765.29 752.995 2019.96 725.25C2274.63 697.504 2476.49 651.705 2591.17 595.656L1460 489.5L2610.34 393.258Z" stroke="black"/>
</g>
<defs>
<filter id="filter0_f_21_1117" x="0.499634" y="0.5" width="2835.54" height="978" filterUnits="userSpaceOnUse" color-interpolation-filters="sRGB">
<feFlood flood-opacity="0" result="BackgroundImageFix"/>
<feBlend mode="normal" in="SourceGraphic" in2="BackgroundImageFix" result="shape"/>
<feGaussianBlur stdDeviation="112" result="effect1_foregroundBlur_21_1117"/>
</filter>
</defs>
</svg>
