<svg width="1440" height="548" viewBox="0 0 1440 548" fill="none" xmlns="http://www.w3.org/2000/svg">
<g clip-path="url(#clip0_41_549)">
<rect width="1440" height="548" fill="#001637"/>
<path d="M0 -32.0776C202.191 49.4811 311.179 157.047 374.036 245.044C426.433 318.408 425.504 348.418 481.142 403.152C601.884 521.925 833.177 603.83 945.275 501.762C1000.49 451.482 980.068 387.765 1006.48 267.144C1030.24 158.637 1091.68 9.40168 1263.2 -152.786" stroke="url(#paint0_linear_41_549)" stroke-opacity="0.24" stroke-width="1.06383" stroke-miterlimit="10"/>
<path d="M0.404297 -5.76367C197.068 64.3297 304.966 165.523 367.79 247.877C420.651 317.19 424.949 344.907 484.048 398.701C608.023 511.55 825.237 590.116 937.491 494.879C995.313 445.828 982.16 383.2 1013.11 262.933C1040.35 157.051 1103.04 10.368 1271.61 -150.365" stroke="url(#paint1_linear_41_549)" stroke-opacity="0.24" stroke-width="1.06383" stroke-miterlimit="10"/>
<path d="M0.808838 20.546C191.942 79.1777 298.834 174.025 361.556 250.709C414.989 316.038 424.3 341.4 486.964 394.25C613.899 501.306 817.643 576.583 929.726 487.999C990.275 440.14 984.169 378.698 1019.75 258.726C1050.37 155.494 1114.43 11.3446 1280.04 -147.927" stroke="url(#paint2_linear_41_549)" stroke-opacity="0.24" stroke-width="1.06383" stroke-miterlimit="10"/>
<path d="M1.21313 46.8605C186.816 94.0306 292.808 182.552 355.322 253.564C409.397 314.956 423.545 337.919 489.895 389.796C619.538 491.208 810.377 563.256 921.968 481.117C985.371 434.454 986.086 374.247 1026.4 254.516C1060.26 153.96 1125.82 12.3224 1288.46 -145.498" stroke="url(#paint3_linear_41_549)" stroke-opacity="0.24" stroke-width="1.06383" stroke-miterlimit="10"/>
<path d="M1.61914 73.1697C181.71 108.871 286.907 191.078 349.089 256.378C403.901 313.93 422.73 334.47 492.791 385.344C624.917 481.259 803.375 550.145 914.179 474.234C980.564 428.755 987.866 369.824 1033.02 250.304C1070 152.432 1137.18 13.2949 1296.87 -143.053" stroke="url(#paint4_linear_41_549)" stroke-opacity="0.24" stroke-width="1.06383" stroke-miterlimit="10"/>
<path d="M2.02344 99.4803C176.57 123.72 281.139 199.609 342.855 259.211C398.519 312.968 421.782 331.072 495.707 380.889C630.115 471.474 796.66 537.259 906.406 467.355C975.894 423.09 989.525 365.425 1039.66 246.094C1079.64 150.901 1148.56 14.2723 1305.29 -140.643" stroke="url(#paint5_linear_41_549)" stroke-opacity="0.24" stroke-width="1.06383" stroke-miterlimit="10"/>
<path d="M2.42798 125.79C171.444 138.55 275.532 208.104 336.621 262.044C393.262 312.057 420.772 327.733 498.619 376.438C635.146 461.85 790.185 524.605 898.633 460.472C971.337 417.476 991.107 361.024 1046.3 241.887C1089.17 149.355 1159.95 15.2494 1313.7 -138.211" stroke="url(#paint6_linear_41_549)" stroke-opacity="0.24" stroke-width="1.06383" stroke-miterlimit="10"/>
<path d="M2.84668 152.104C166.332 153.413 270.114 216.558 330.401 264.876C388.165 311.175 419.718 324.466 501.546 371.987C640.041 452.39 783.943 512.181 890.875 453.589C966.907 411.931 992.561 356.617 1052.95 237.676C1098.58 147.791 1171.31 16.2371 1322.12 -135.783" stroke="url(#paint7_linear_41_549)" stroke-opacity="0.24" stroke-width="1.06383" stroke-miterlimit="10"/>
<path d="M3.23682 178.414C161.192 168.261 264.858 224.931 324.153 267.712C383.211 310.307 418.544 321.302 504.448 367.531C644.803 443.089 777.866 499.99 883.088 446.71C962.562 406.477 993.866 352.173 1059.58 233.466C1107.89 146.194 1182.69 17.1993 1330.56 -133.355" stroke="url(#paint8_linear_41_549)" stroke-opacity="0.24" stroke-width="1.06383" stroke-miterlimit="10"/>
<path d="M3.64111 204.713C156.07 183.098 259.808 233.185 317.918 270.534C378.409 309.41 417.34 318.174 507.361 363.069C649.458 433.932 771.942 488.01 875.315 439.816C958.307 401.125 995.069 347.674 1066.22 229.244C1117.1 144.546 1194.07 18.1654 1338.96 -130.938" stroke="url(#paint9_linear_41_549)" stroke-opacity="0.24" stroke-width="1.06383" stroke-miterlimit="10"/>
<path d="M4.04712 231.038C150.964 197.958 254.957 241.322 311.69 273.377C373.803 308.477 416.095 315.181 510.278 358.625C654.052 424.946 766.157 476.275 867.544 432.948C954.152 395.934 996.153 343.135 1072.86 225.044C1126.22 142.877 1205.45 19.1534 1347.39 -128.492" stroke="url(#paint10_linear_41_549)" stroke-opacity="0.24" stroke-width="1.06383" stroke-miterlimit="10"/>
<path d="M4.45142 257.348C145.819 212.803 250.29 249.273 305.455 276.21C369.369 307.424 414.822 312.28 513.191 354.175C658.591 416.091 760.477 464.737 859.772 426.065C950.076 390.896 997.126 338.513 1079.49 220.838C1135.27 141.146 1216.83 20.1273 1355.8 -126.067" stroke="url(#paint11_linear_41_549)" stroke-opacity="0.24" stroke-width="1.06383" stroke-miterlimit="10"/>
<path d="M4.85596 283.662C140.694 227.651 245.784 257.02 299.221 279.046C365.104 306.202 413.488 309.476 516.107 349.723C663.093 407.371 754.87 453.403 852.003 419.182C946.059 386.044 997.993 333.807 1086.13 216.627C1144.25 139.359 1228.21 21.1041 1364.22 -123.64" stroke="url(#paint12_linear_41_549)" stroke-opacity="0.24" stroke-width="1.06383" stroke-miterlimit="10"/>
<path d="M5.26025 309.971C135.571 242.499 241.413 264.54 292.987 281.879C360.988 304.74 412.146 306.778 519.012 345.268C667.562 398.77 749.307 442.24 844.223 412.303C942.117 381.406 998.751 328.998 1092.76 212.416C1153.17 137.51 1239.58 22.0698 1372.64 -121.201" stroke="url(#paint13_linear_41_549)" stroke-opacity="0.24" stroke-width="1.06383" stroke-miterlimit="10"/>
<path d="M5.66479 336.282C130.445 257.344 237.129 271.817 286.738 284.711C356.967 302.961 410.775 304.182 521.921 340.817C672.028 390.291 743.765 431.293 836.443 405.42C938.209 377.01 999.422 324.084 1099.39 208.195C1162.03 135.589 1250.95 23.0433 1381.05 -118.795" stroke="url(#paint14_linear_41_549)" stroke-opacity="0.24" stroke-width="1.06383" stroke-miterlimit="10"/>
<path d="M6.06934 362.595C125.338 272.192 232.882 278.846 280.519 287.544C353.029 300.785 409.423 301.692 524.849 336.362C676.504 381.931 738.246 420.498 828.685 398.541C934.352 372.879 1000.03 319.067 1106.05 203.998C1170.89 133.624 1262.34 24.0311 1389.48 -116.353" stroke="url(#paint15_linear_41_549)" stroke-opacity="0.24" stroke-width="1.06383" stroke-miterlimit="10"/>
<path d="M6.49219 388.906C120.212 287.042 229.127 298.817 274.303 290.381C348.195 276.579 408.074 299.309 527.783 331.911C681.007 373.649 732.69 409.865 820.913 391.659C930.495 369.056 1000.55 313.902 1112.69 199.789C1179.7 131.594 1273.72 25.0089 1397.9 -113.909" stroke="url(#paint16_linear_41_549)" stroke-opacity="0.24" stroke-width="1.06383" stroke-miterlimit="10"/>
<path d="M6.87964 415.216C115.073 301.889 225.286 303.081 268.052 293.213C343.009 275.918 406.689 297.022 530.679 327.459C685.525 365.483 727.069 399.386 813.141 384.775C926.628 365.534 1001.01 308.626 1119.33 195.57C1188.49 129.487 1285.1 25.9742 1406.32 -111.504" stroke="url(#paint17_linear_41_549)" stroke-opacity="0.24" stroke-width="1.06383" stroke-miterlimit="10"/>
<path d="M7.28394 441.53C109.947 316.735 220.94 306.928 261.818 296.046C338.123 275.737 405.329 294.839 533.595 323.023C690.067 357.386 721.378 389.03 805.369 377.915C922.731 362.381 1001.42 303.239 1125.96 191.385C1197.27 127.351 1296.48 26.9701 1414.74 -109.05" stroke="url(#paint18_linear_41_549)" stroke-opacity="0.24" stroke-width="1.06383" stroke-miterlimit="10"/>
<path d="M7.68848 467.839C104.821 331.583 214.775 304.882 255.587 298.878C335.976 287.077 403.991 292.746 536.511 318.564C694.656 349.358 715.589 378.778 797.6 371.024C918.771 359.555 1001.78 297.675 1132.61 187.156C1206.05 125.108 1307.87 27.9356 1423.16 -106.641" stroke="url(#paint19_linear_41_549)" stroke-opacity="0.24" stroke-width="1.06383" stroke-miterlimit="10"/>
<path d="M8.09277 494.15C99.695 346.431 209.693 311.073 249.349 301.715C330.883 282.477 402.66 290.749 539.42 314.11C699.275 341.404 709.668 368.64 789.824 364.142C914.724 357.135 1002.12 292.032 1139.24 182.957C1214.83 122.83 1319.24 28.9205 1431.58 -104.201" stroke="url(#paint20_linear_41_549)" stroke-opacity="0.24" stroke-width="1.06383" stroke-miterlimit="10"/>
<path d="M8.49731 520.463C94.5729 361.279 204.264 317.27 243.115 304.547C325.323 277.613 401.355 288.838 542.336 309.651C703.948 333.507 703.609 358.581 782.055 357.254C910.561 355.067 1002.43 286.235 1145.88 178.742C1223.62 120.5 1330.61 29.8858 1440 -101.781" stroke="url(#paint21_linear_41_549)" stroke-opacity="0.24" stroke-width="1.06383" stroke-miterlimit="10"/>
</g>
<defs>
<linearGradient id="paint0_linear_41_549" x1="631.599" y1="-152.786" x2="631.599" y2="548.053" gradientUnits="userSpaceOnUse">
<stop stop-color="white"/>
<stop offset="1" stop-color="#999999" stop-opacity="0"/>
</linearGradient>
<linearGradient id="paint1_linear_41_549" x1="636.006" y1="-150.365" x2="636.006" y2="537.503" gradientUnits="userSpaceOnUse">
<stop stop-color="white"/>
<stop offset="1" stop-color="#999999" stop-opacity="0"/>
</linearGradient>
<linearGradient id="paint2_linear_41_549" x1="640.426" y1="-147.927" x2="640.426" y2="527.076" gradientUnits="userSpaceOnUse">
<stop stop-color="white"/>
<stop offset="1" stop-color="#999999" stop-opacity="0"/>
</linearGradient>
<linearGradient id="paint3_linear_41_549" x1="644.839" y1="-145.498" x2="644.839" y2="516.786" gradientUnits="userSpaceOnUse">
<stop stop-color="white"/>
<stop offset="1" stop-color="#999999" stop-opacity="0"/>
</linearGradient>
<linearGradient id="paint4_linear_41_549" x1="649.242" y1="-143.053" x2="649.242" y2="506.639" gradientUnits="userSpaceOnUse">
<stop stop-color="white"/>
<stop offset="1" stop-color="#999999" stop-opacity="0"/>
</linearGradient>
<linearGradient id="paint5_linear_41_549" x1="653.655" y1="-140.643" x2="653.655" y2="496.643" gradientUnits="userSpaceOnUse">
<stop stop-color="white"/>
<stop offset="1" stop-color="#999999" stop-opacity="0"/>
</linearGradient>
<linearGradient id="paint6_linear_41_549" x1="658.066" y1="-138.211" x2="658.066" y2="486.8" gradientUnits="userSpaceOnUse">
<stop stop-color="white"/>
<stop offset="1" stop-color="#999999" stop-opacity="0"/>
</linearGradient>
<linearGradient id="paint7_linear_41_549" x1="662.485" y1="-135.783" x2="662.485" y2="477.109" gradientUnits="userSpaceOnUse">
<stop stop-color="white"/>
<stop offset="1" stop-color="#999999" stop-opacity="0"/>
</linearGradient>
<linearGradient id="paint8_linear_41_549" x1="666.9" y1="-133.355" x2="666.9" y2="467.573" gradientUnits="userSpaceOnUse">
<stop stop-color="white"/>
<stop offset="1" stop-color="#999999" stop-opacity="0"/>
</linearGradient>
<linearGradient id="paint9_linear_41_549" x1="671.302" y1="-130.938" x2="671.302" y2="458.175" gradientUnits="userSpaceOnUse">
<stop stop-color="white"/>
<stop offset="1" stop-color="#999999" stop-opacity="0"/>
</linearGradient>
<linearGradient id="paint10_linear_41_549" x1="675.716" y1="-128.492" x2="675.716" y2="448.95" gradientUnits="userSpaceOnUse">
<stop stop-color="white"/>
<stop offset="1" stop-color="#999999" stop-opacity="0"/>
</linearGradient>
<linearGradient id="paint11_linear_41_549" x1="680.127" y1="-126.067" x2="680.127" y2="439.856" gradientUnits="userSpaceOnUse">
<stop stop-color="white"/>
<stop offset="1" stop-color="#999999" stop-opacity="0"/>
</linearGradient>
<linearGradient id="paint12_linear_41_549" x1="684.54" y1="-123.64" x2="684.54" y2="430.904" gradientUnits="userSpaceOnUse">
<stop stop-color="white"/>
<stop offset="1" stop-color="#999999" stop-opacity="0"/>
</linearGradient>
<linearGradient id="paint13_linear_41_549" x1="688.951" y1="-121.201" x2="688.951" y2="422.084" gradientUnits="userSpaceOnUse">
<stop stop-color="white"/>
<stop offset="1" stop-color="#999999" stop-opacity="0"/>
</linearGradient>
<linearGradient id="paint14_linear_41_549" x1="693.356" y1="-118.795" x2="693.356" y2="413.415" gradientUnits="userSpaceOnUse">
<stop stop-color="white"/>
<stop offset="1" stop-color="#999999" stop-opacity="0"/>
</linearGradient>
<linearGradient id="paint15_linear_41_549" x1="697.775" y1="-116.353" x2="697.775" y2="404.88" gradientUnits="userSpaceOnUse">
<stop stop-color="white"/>
<stop offset="1" stop-color="#999999" stop-opacity="0"/>
</linearGradient>
<linearGradient id="paint16_linear_41_549" x1="702.197" y1="-113.909" x2="702.197" y2="396.486" gradientUnits="userSpaceOnUse">
<stop stop-color="white"/>
<stop offset="1" stop-color="#999999" stop-opacity="0"/>
</linearGradient>
<linearGradient id="paint17_linear_41_549" x1="706.6" y1="-111.504" x2="706.6" y2="415.216" gradientUnits="userSpaceOnUse">
<stop stop-color="white"/>
<stop offset="1" stop-color="#999999" stop-opacity="0"/>
</linearGradient>
<linearGradient id="paint18_linear_41_549" x1="711.012" y1="-109.05" x2="711.012" y2="441.53" gradientUnits="userSpaceOnUse">
<stop stop-color="white"/>
<stop offset="1" stop-color="#999999" stop-opacity="0"/>
</linearGradient>
<linearGradient id="paint19_linear_41_549" x1="715.425" y1="-106.641" x2="715.425" y2="467.839" gradientUnits="userSpaceOnUse">
<stop stop-color="white"/>
<stop offset="1" stop-color="#999999" stop-opacity="0"/>
</linearGradient>
<linearGradient id="paint20_linear_41_549" x1="719.836" y1="-104.201" x2="719.836" y2="494.15" gradientUnits="userSpaceOnUse">
<stop stop-color="white"/>
<stop offset="1" stop-color="#999999" stop-opacity="0"/>
</linearGradient>
<linearGradient id="paint21_linear_41_549" x1="724.249" y1="-101.781" x2="724.249" y2="520.463" gradientUnits="userSpaceOnUse">
<stop stop-color="white"/>
<stop offset="1" stop-color="#999999" stop-opacity="0"/>
</linearGradient>
<clipPath id="clip0_41_549">
<rect width="1440" height="548" fill="white"/>
</clipPath>
</defs>
</svg>
