<svg width="1230" height="532" viewBox="0 0 1230 532" fill="none" xmlns="http://www.w3.org/2000/svg">
<g filter="url(#filter0_f_1_4946)">
<path d="M1004.76 53.1888C956.563 -70.1829 867.082 -173.027 751.562 -237.821C636.041 -302.615 501.628 -325.349 371.225 -302.15C240.821 -278.951 122.496 -211.253 36.4105 -110.593C-49.6752 -9.93298 -98.1952 117.462 -100.882 249.886C-103.569 382.31 -60.2569 511.568 21.6747 615.638C103.606 719.707 219.088 792.148 348.443 820.618C477.798 849.088 613.022 831.825 731.076 771.771C849.13 711.717 942.709 612.586 995.868 491.271L471.5 261.5L1004.76 53.1888Z" fill="#00388C"/>
<path d="M1004.76 53.1888C956.563 -70.1829 867.082 -173.027 751.562 -237.821C636.041 -302.615 501.628 -325.349 371.225 -302.15C240.821 -278.951 122.496 -211.253 36.4105 -110.593C-49.6752 -9.93298 -98.1952 117.462 -100.882 249.886C-103.569 382.31 -60.2569 511.568 21.6747 615.638C103.606 719.707 219.088 792.148 348.443 820.618C477.798 849.088 613.022 831.825 731.076 771.771C849.13 711.717 942.709 612.586 995.868 491.271L471.5 261.5L1004.76 53.1888Z" stroke="black"/>
</g>
<defs>
<filter id="filter0_f_1_4946" x="-325.5" y="-535.501" width="1554.9" height="1594" filterUnits="userSpaceOnUse" color-interpolation-filters="sRGB">
<feFlood flood-opacity="0" result="BackgroundImageFix"/>
<feBlend mode="normal" in="SourceGraphic" in2="BackgroundImageFix" result="shape"/>
<feGaussianBlur stdDeviation="112" result="effect1_foregroundBlur_1_4946"/>
</filter>
</defs>
</svg>
