<svg width="1440" height="881" viewBox="0 0 1440 881" fill="none" xmlns="http://www.w3.org/2000/svg">
<g clip-path="url(#clip0_1_4948)">
<rect width="1440" height="881" fill="#00388C"/>
<path d="M-49.2031 -76.44C132.692 156.107 187.676 356.049 201.81 501.806C213.586 623.32 192.176 657.885 220.366 759.747C281.546 980.788 497.337 1233.45 697.907 1189.65C796.709 1168.07 815.896 1079.51 928.542 955.94C1029.88 844.779 1202.97 711.361 1513.93 637.29" stroke="url(#paint0_linear_1_4948)" stroke-opacity="0.24" stroke-width="1.4406" stroke-miterlimit="10"/>
<path d="M-66.5454 -45.3073C116.632 170.052 174.652 361.782 192.568 500.899C207.629 617.977 193.903 653.392 226.787 756.493C295.77 972.777 497.311 1211.99 693.439 1176.3C794.462 1157.93 821.44 1075.58 939.165 955.489C1042.81 849.766 1215.64 720.19 1522.16 645.823" stroke="url(#paint1_linear_1_4948)" stroke-opacity="0.24" stroke-width="1.4406" stroke-miterlimit="10"/>
<path d="M-83.8853 -14.1777C100.567 183.996 161.704 367.601 183.339 500.001C201.769 612.793 195.516 648.84 233.221 753.248C309.597 964.743 497.567 1190.98 688.991 1162.98C792.404 1147.85 826.844 1071.66 949.803 955.054C1055.61 854.724 1228.33 729.042 1530.4 654.395" stroke="url(#paint2_linear_1_4948)" stroke-opacity="0.24" stroke-width="1.4406" stroke-miterlimit="10"/>
<path d="M-101.228 16.9552C84.4992 197.942 148.863 373.521 174.095 499.127C195.944 607.736 196.988 644.246 239.674 750.008C323.048 956.718 498.071 1170.43 684.553 1149.65C790.504 1137.86 832.107 1067.74 960.456 954.62C1068.25 859.618 1241.03 737.902 1538.63 662.944" stroke="url(#paint3_linear_1_4948)" stroke-opacity="0.24" stroke-width="1.4406" stroke-miterlimit="10"/>
<path d="M-118.566 48.085C68.4623 211.89 136.169 379.525 164.88 498.207C190.192 602.814 198.367 639.65 246.084 746.749C336.092 948.693 498.735 1150.31 680.078 1136.31C788.724 1127.92 837.189 1063.76 971.072 954.166C1080.71 864.425 1253.7 746.738 1546.83 671.501" stroke="url(#paint4_linear_1_4948)" stroke-opacity="0.24" stroke-width="1.4406" stroke-miterlimit="10"/>
<path d="M-135.906 79.2136C52.3802 225.823 123.63 385.624 155.651 497.308C184.533 598.041 199.556 635.023 252.521 743.498C348.814 940.737 499.586 1130.65 675.621 1122.98C787.083 1118.12 842.113 1059.72 981.708 953.722C1093.05 869.155 1266.38 755.587 1555.07 680.029" stroke="url(#paint5_linear_1_4948)" stroke-opacity="0.24" stroke-width="1.4406" stroke-miterlimit="10"/>
<path d="M-153.245 110.342C36.3276 239.743 111.303 391.789 146.422 496.409C178.985 593.412 200.632 630.423 258.95 740.25C361.23 932.856 500.56 1111.43 671.165 1109.64C785.54 1108.45 846.947 1055.63 992.342 953.283C1105.27 873.792 1279.08 764.446 1563.29 688.579" stroke="url(#paint6_linear_1_4948)" stroke-opacity="0.24" stroke-width="1.4406" stroke-miterlimit="10"/>
<path d="M-170.571 141.485C20.2694 253.713 99.2247 398.035 137.21 495.519C173.604 588.927 201.608 625.878 265.396 737.012C373.376 925.076 501.652 1092.63 666.727 1096.32C784.099 1098.94 851.637 1051.44 1002.99 952.849C1117.36 878.328 1291.73 773.298 1571.53 697.128" stroke="url(#paint7_linear_1_4948)" stroke-opacity="0.24" stroke-width="1.4406" stroke-miterlimit="10"/>
<path d="M-187.927 172.605C4.18781 267.647 87.3901 404.297 127.962 494.615C168.382 584.555 202.374 621.373 271.816 733.753C385.257 917.395 502.78 1074.22 662.253 1082.98C782.696 1089.61 856.176 1047.12 1013.61 952.397C1129.36 882.761 1304.43 782.131 1579.78 705.69" stroke="url(#paint8_linear_1_4948)" stroke-opacity="0.24" stroke-width="1.4406" stroke-miterlimit="10"/>
<path d="M-205.26 203.72C-11.8655 281.578 75.8802 410.556 118.74 493.702C163.358 580.252 203.08 616.889 278.253 730.491C396.916 909.806 503.943 1056.16 657.805 1069.63C781.33 1080.45 860.633 1042.66 1024.26 951.94C1141.28 887.065 1317.12 790.969 1587.99 714.211" stroke="url(#paint9_linear_1_4948)" stroke-opacity="0.24" stroke-width="1.4406" stroke-miterlimit="10"/>
<path d="M-222.608 234.866C-27.9148 295.547 64.6818 416.814 109.51 492.82C158.588 576.038 203.646 612.536 284.684 727.255C408.389 902.378 505.105 1038.48 653.342 1056.31C779.972 1071.55 864.977 1038.07 1034.89 951.51C1153.11 891.283 1329.79 799.832 1596.21 722.782" stroke="url(#paint10_linear_1_4948)" stroke-opacity="0.24" stroke-width="1.4406" stroke-miterlimit="10"/>
<path d="M-239.948 265.996C-43.9987 309.473 53.8256 422.979 100.281 491.921C154.102 571.801 204.119 608.271 291.113 724.007C419.707 895.067 506.256 1021.1 648.887 1042.98C778.603 1062.88 869.248 1033.3 1045.52 951.072C1164.89 895.379 1342.48 808.678 1604.44 731.325" stroke="url(#paint11_linear_1_4948)" stroke-opacity="0.24" stroke-width="1.4406" stroke-miterlimit="10"/>
<path d="M-257.29 297.129C-60.0638 323.416 43.2957 429.013 91.0495 491.026C149.926 567.481 204.452 604.08 297.547 720.761C430.891 887.888 507.355 1004.01 644.437 1029.65C777.177 1054.47 873.452 1028.37 1056.16 950.628C1176.63 899.363 1355.16 817.527 1612.68 739.874" stroke="url(#paint12_linear_1_4948)" stroke-opacity="0.24" stroke-width="1.4406" stroke-miterlimit="10"/>
<path d="M-274.63 328.258C-76.1244 337.362 33.0771 434.874 81.8206 490.127C146.089 562.98 204.705 600.009 303.97 717.505C441.955 880.83 508.388 987.157 639.97 1016.31C775.695 1046.36 877.597 1023.25 1066.78 950.181C1188.35 903.239 1367.85 826.364 1620.9 748.434" stroke="url(#paint13_linear_1_4948)" stroke-opacity="0.24" stroke-width="1.4406" stroke-miterlimit="10"/>
<path d="M-291.97 359.386C-92.1869 351.299 23.1267 440.506 72.5746 489.218C142.578 558.17 204.854 596.035 310.396 714.253C452.934 873.908 509.302 970.565 635.507 1002.97C774.088 1038.56 881.711 1017.94 1077.42 949.719C1200.04 906.983 1380.52 835.201 1629.13 756.947" stroke="url(#paint14_linear_1_4948)" stroke-opacity="0.24" stroke-width="1.4406" stroke-miterlimit="10"/>
<path d="M-309.312 390.519C-108.231 365.255 13.3866 445.874 63.3626 488.329C139.434 552.952 204.954 592.2 316.845 711.011C463.844 867.136 510.138 954.169 631.067 989.654C772.361 1031.1 885.817 1012.46 1088.06 949.303C1211.75 910.674 1393.21 844.074 1637.36 765.521" stroke="url(#paint15_linear_1_4948)" stroke-opacity="0.24" stroke-width="1.4406" stroke-miterlimit="10"/>
<path d="M-326.63 421.661C-124.295 379.198 -4.53857 466.752 54.1529 487.447C150.155 521.292 204.986 588.491 323.3 707.779C474.732 860.472 510.822 937.937 626.612 976.32C770.428 1024.01 889.926 1006.76 1098.7 948.86C1223.46 914.257 1405.89 852.924 1645.58 774.088" stroke="url(#paint16_linear_1_4948)" stroke-opacity="0.24" stroke-width="1.4406" stroke-miterlimit="10"/>
<path d="M-343.99 452.778C-140.376 393.131 -11.9317 469.152 44.9039 486.535C144.519 517.005 204.911 584.872 329.71 704.518C485.559 853.953 511.325 921.843 622.158 962.985C768.277 1017.26 894.037 1000.88 1109.34 948.408C1235.2 917.739 1418.58 861.76 1653.83 782.609" stroke="url(#paint17_linear_1_4948)" stroke-opacity="0.24" stroke-width="1.4406" stroke-miterlimit="10"/>
<path d="M-361.332 483.911C-156.438 407.07 -19.6323 470.721 35.6749 485.636C138.913 513.484 204.794 581.391 336.134 701.29C496.368 847.533 511.663 905.844 617.689 949.677C765.841 1010.92 898.164 994.842 1119.96 947.995C1246.94 921.178 1431.26 870.633 1662.04 791.188" stroke="url(#paint18_linear_1_4948)" stroke-opacity="0.24" stroke-width="1.4406" stroke-miterlimit="10"/>
<path d="M-378.672 515.04C-172.503 421.012 -25.4773 464.148 26.4502 484.74C128.715 525.33 204.642 578.03 342.573 698.035C507.186 841.226 511.815 889.901 613.243 936.336C763.111 1004.93 902.358 988.564 1130.62 947.535C1258.76 924.497 1443.95 879.475 1670.28 799.716" stroke="url(#paint19_linear_1_4948)" stroke-opacity="0.24" stroke-width="1.4406" stroke-miterlimit="10"/>
<path d="M-396.012 546.169C-188.568 434.956 -35.6286 467.967 17.2145 483.843C125.857 516.487 204.433 574.787 349.001 694.781C517.988 835.025 511.736 874.004 608.784 923C760.004 999.351 906.572 982.174 1141.24 947.101C1270.59 927.767 1456.62 888.328 1678.5 808.276" stroke="url(#paint20_linear_1_4948)" stroke-opacity="0.24" stroke-width="1.4406" stroke-miterlimit="10"/>
<path d="M-413.354 577.302C-204.629 448.9 -46.1911 471.559 7.98554 482.944C122.63 507.019 204.196 571.663 355.439 691.527C528.815 828.929 511.44 858.105 604.335 909.663C756.521 994.107 910.86 975.585 1151.88 946.655C1282.48 930.986 1469.31 897.165 1686.74 816.816" stroke="url(#paint21_linear_1_4948)" stroke-opacity="0.24" stroke-width="1.4406" stroke-miterlimit="10"/>
</g>
<defs>
<linearGradient id="paint0_linear_1_4948" x1="773.229" y1="209.645" x2="298.703" y2="1031.55" gradientUnits="userSpaceOnUse">
<stop stop-color="white"/>
<stop offset="1" stop-color="#999999" stop-opacity="0"/>
</linearGradient>
<linearGradient id="paint1_linear_1_4948" x1="776.759" y1="215.468" x2="311.015" y2="1022.16" gradientUnits="userSpaceOnUse">
<stop stop-color="white"/>
<stop offset="1" stop-color="#999999" stop-opacity="0"/>
</linearGradient>
<linearGradient id="paint2_linear_1_4948" x1="780.291" y1="221.321" x2="323.258" y2="1012.93" gradientUnits="userSpaceOnUse">
<stop stop-color="white"/>
<stop offset="1" stop-color="#999999" stop-opacity="0"/>
</linearGradient>
<linearGradient id="paint3_linear_1_4948" x1="783.822" y1="227.156" x2="335.4" y2="1003.85" gradientUnits="userSpaceOnUse">
<stop stop-color="white"/>
<stop offset="1" stop-color="#999999" stop-opacity="0"/>
</linearGradient>
<linearGradient id="paint4_linear_1_4948" x1="787.33" y1="233.006" x2="347.434" y2="994.928" gradientUnits="userSpaceOnUse">
<stop stop-color="white"/>
<stop offset="1" stop-color="#999999" stop-opacity="0"/>
</linearGradient>
<linearGradient id="paint5_linear_1_4948" x1="790.873" y1="238.82" x2="359.378" y2="986.192" gradientUnits="userSpaceOnUse">
<stop stop-color="white"/>
<stop offset="1" stop-color="#999999" stop-opacity="0"/>
</linearGradient>
<linearGradient id="paint6_linear_1_4948" x1="794.4" y1="244.658" x2="371.216" y2="977.634" gradientUnits="userSpaceOnUse">
<stop stop-color="white"/>
<stop offset="1" stop-color="#999999" stop-opacity="0"/>
</linearGradient>
<linearGradient id="paint7_linear_1_4948" x1="797.939" y1="250.498" x2="382.96" y2="969.262" gradientUnits="userSpaceOnUse">
<stop stop-color="white"/>
<stop offset="1" stop-color="#999999" stop-opacity="0"/>
</linearGradient>
<linearGradient id="paint8_linear_1_4948" x1="801.473" y1="256.335" x2="394.594" y2="961.07" gradientUnits="userSpaceOnUse">
<stop stop-color="white"/>
<stop offset="1" stop-color="#999999" stop-opacity="0"/>
</linearGradient>
<linearGradient id="paint9_linear_1_4948" x1="804.998" y1="262.149" x2="406.12" y2="953.027" gradientUnits="userSpaceOnUse">
<stop stop-color="white"/>
<stop offset="1" stop-color="#999999" stop-opacity="0"/>
</linearGradient>
<linearGradient id="paint10_linear_1_4948" x1="808.519" y1="268.006" x2="417.543" y2="945.197" gradientUnits="userSpaceOnUse">
<stop stop-color="white"/>
<stop offset="1" stop-color="#999999" stop-opacity="0"/>
</linearGradient>
<linearGradient id="paint11_linear_1_4948" x1="812.05" y1="273.836" x2="428.873" y2="937.518" gradientUnits="userSpaceOnUse">
<stop stop-color="white"/>
<stop offset="1" stop-color="#999999" stop-opacity="0"/>
</linearGradient>
<linearGradient id="paint12_linear_1_4948" x1="815.581" y1="279.671" x2="440.109" y2="930.008" gradientUnits="userSpaceOnUse">
<stop stop-color="white"/>
<stop offset="1" stop-color="#999999" stop-opacity="0"/>
</linearGradient>
<linearGradient id="paint13_linear_1_4948" x1="819.103" y1="285.519" x2="451.254" y2="922.652" gradientUnits="userSpaceOnUse">
<stop stop-color="white"/>
<stop offset="1" stop-color="#999999" stop-opacity="0"/>
</linearGradient>
<linearGradient id="paint14_linear_1_4948" x1="822.64" y1="291.323" x2="462.29" y2="915.468" gradientUnits="userSpaceOnUse">
<stop stop-color="white"/>
<stop offset="1" stop-color="#999999" stop-opacity="0"/>
</linearGradient>
<linearGradient id="paint15_linear_1_4948" x1="826.168" y1="297.179" x2="473.25" y2="908.451" gradientUnits="userSpaceOnUse">
<stop stop-color="white"/>
<stop offset="1" stop-color="#999999" stop-opacity="0"/>
</linearGradient>
<linearGradient id="paint16_linear_1_4948" x1="829.7" y1="303.038" x2="484.12" y2="901.6" gradientUnits="userSpaceOnUse">
<stop stop-color="white"/>
<stop offset="1" stop-color="#999999" stop-opacity="0"/>
</linearGradient>
<linearGradient id="paint17_linear_1_4948" x1="833.234" y1="308.84" x2="476.601" y2="926.546" gradientUnits="userSpaceOnUse">
<stop stop-color="white"/>
<stop offset="1" stop-color="#999999" stop-opacity="0"/>
</linearGradient>
<linearGradient id="paint18_linear_1_4948" x1="836.748" y1="314.705" x2="463.96" y2="960.394" gradientUnits="userSpaceOnUse">
<stop stop-color="white"/>
<stop offset="1" stop-color="#999999" stop-opacity="0"/>
</linearGradient>
<linearGradient id="paint19_linear_1_4948" x1="840.292" y1="320.519" x2="451.321" y2="994.236" gradientUnits="userSpaceOnUse">
<stop stop-color="white"/>
<stop offset="1" stop-color="#999999" stop-opacity="0"/>
</linearGradient>
<linearGradient id="paint20_linear_1_4948" x1="843.813" y1="326.366" x2="438.679" y2="1028.08" gradientUnits="userSpaceOnUse">
<stop stop-color="white"/>
<stop offset="1" stop-color="#999999" stop-opacity="0"/>
</linearGradient>
<linearGradient id="paint21_linear_1_4948" x1="847.349" y1="332.193" x2="426.038" y2="1061.93" gradientUnits="userSpaceOnUse">
<stop stop-color="white"/>
<stop offset="1" stop-color="#999999" stop-opacity="0"/>
</linearGradient>
<clipPath id="clip0_1_4948">
<rect width="1440" height="881" fill="white"/>
</clipPath>
</defs>
</svg>
