<svg width="1440" height="548" viewBox="0 0 1440 548" fill="none" xmlns="http://www.w3.org/2000/svg">
<g clip-path="url(#clip0_42_1130)">
<rect width="1440" height="548" fill="#EEF9E6"/>
<path d="M1999 475.538C1639.83 330.658 1446.23 139.578 1334.57 -16.7384C1241.49 -147.06 1243.14 -200.37 1144.3 -297.6C929.82 -508.587 518.954 -654.082 319.825 -472.768C221.733 -383.452 258.018 -270.265 211.1 -55.9957C168.89 136.755 59.7569 401.854 -244.93 689.963" stroke="url(#paint0_linear_42_1130)" stroke-opacity="0.24" stroke-width="1.88978" stroke-miterlimit="10"/>
<path d="M1998.28 428.794C1648.93 304.281 1457.26 124.522 1345.66 -21.77C1251.76 -144.897 1244.13 -194.134 1139.14 -289.693C918.916 -490.156 533.059 -629.719 333.652 -460.542C230.937 -373.408 254.302 -262.157 199.328 -48.5157C150.926 139.572 39.5659 400.138 -259.869 685.663" stroke="url(#paint1_linear_42_1130)" stroke-opacity="0.24" stroke-width="1.88978" stroke-miterlimit="10"/>
<path d="M1997.56 382.057C1658.03 277.904 1468.15 109.419 1356.73 -26.8023C1261.82 -142.851 1245.28 -187.905 1133.96 -281.786C908.476 -471.959 546.548 -605.681 347.445 -448.322C239.886 -363.306 250.733 -254.16 187.528 -41.0431C133.13 142.336 19.3471 398.402 -274.855 681.33" stroke="url(#paint2_linear_42_1130)" stroke-opacity="0.24" stroke-width="1.88978" stroke-miterlimit="10"/>
<path d="M1996.84 335.314C1667.14 251.522 1478.86 94.2726 1367.81 -31.8725C1271.75 -140.927 1246.62 -181.719 1128.76 -273.872C898.459 -454.02 559.456 -582.005 361.227 -436.095C248.597 -353.203 247.328 -246.252 175.71 -33.5628C115.568 145.063 -0.889204 396.667 -289.814 677.017" stroke="url(#paint3_linear_42_1130)" stroke-opacity="0.24" stroke-width="1.88978" stroke-miterlimit="10"/>
<path d="M1996.12 288.577C1676.21 225.158 1489.34 79.125 1378.88 -36.8723C1281.52 -139.108 1248.07 -175.594 1123.61 -265.966C888.905 -436.348 571.894 -558.718 375.064 -423.869C257.137 -343.081 244.165 -238.398 163.948 -26.0835C98.2556 147.776 -21.0767 394.938 -304.736 672.672" stroke="url(#paint4_linear_42_1130)" stroke-opacity="0.24" stroke-width="1.88978" stroke-miterlimit="10"/>
<path d="M1995.41 241.84C1685.34 198.781 1499.59 63.9717 1389.96 -41.9037C1291.07 -137.398 1249.75 -169.558 1118.43 -258.052C879.67 -418.966 583.823 -535.825 388.871 -411.648C265.433 -333.017 241.219 -230.581 152.155 -18.6033C81.1334 150.497 -41.2879 393.202 -319.696 668.391" stroke="url(#paint5_linear_42_1130)" stroke-opacity="0.24" stroke-width="1.88978" stroke-miterlimit="10"/>
<path d="M1994.69 195.102C1694.45 172.436 1509.55 48.8817 1401.03 -46.9365C1300.41 -135.78 1251.55 -163.627 1113.26 -250.145C870.734 -401.871 595.325 -513.348 402.679 -399.423C273.529 -323.045 238.41 -222.765 140.364 -11.131C64.2129 153.242 -61.5242 391.466 -334.647 664.071" stroke="url(#paint6_linear_42_1130)" stroke-opacity="0.24" stroke-width="1.88978" stroke-miterlimit="10"/>
<path d="M1993.94 148.359C1703.53 146.034 1519.17 33.8644 1412.08 -51.9679C1309.47 -134.212 1253.42 -157.824 1108.06 -242.238C862.038 -385.065 606.413 -491.277 416.46 -387.196C281.398 -313.195 235.826 -214.935 128.546 -3.6509C47.499 156.02 -81.7093 389.711 -349.606 659.759" stroke="url(#paint7_linear_42_1130)" stroke-opacity="0.24" stroke-width="1.88978" stroke-miterlimit="10"/>
<path d="M1993.25 101.623C1712.66 119.658 1528.51 18.9898 1423.18 -57.0055C1318.27 -132.671 1255.5 -152.202 1102.9 -234.324C853.58 -368.544 617.207 -469.621 430.292 -374.975C289.116 -303.506 233.507 -207.04 116.778 3.82944C30.9589 158.857 -101.921 388.002 -364.599 655.446" stroke="url(#paint8_linear_42_1130)" stroke-opacity="0.24" stroke-width="1.88978" stroke-miterlimit="10"/>
<path d="M1992.53 54.905C1721.76 93.3009 1537.48 4.32777 1434.25 -62.0184C1326.8 -131.078 1257.64 -146.646 1097.73 -226.397C845.311 -352.277 627.732 -448.341 444.1 -362.729C296.675 -294 231.371 -199.05 104.987 11.3281C14.5953 161.784 -122.138 386.286 -379.518 651.152" stroke="url(#paint9_linear_42_1130)" stroke-opacity="0.24" stroke-width="1.88978" stroke-miterlimit="10"/>
<path d="M1991.81 8.14184C1730.83 66.9046 1546.1 -10.1269 1445.32 -67.0699C1334.98 -129.42 1259.85 -141.33 1092.55 -218.504C837.149 -336.314 638.008 -427.496 457.905 -350.529C304.056 -284.779 229.446 -190.987 93.192 18.7881C-1.60943 164.75 -142.351 384.53 -394.479 646.806" stroke="url(#paint10_linear_42_1130)" stroke-opacity="0.24" stroke-width="1.88978" stroke-miterlimit="10"/>
<path d="M1991.09 -38.5952C1739.97 40.5344 1554.39 -24.251 1456.39 -72.1018C1342.86 -127.549 1262.11 -136.175 1087.37 -210.597C829.086 -320.584 648.096 -406.999 471.71 -338.302C311.295 -275.829 227.716 -182.776 81.3984 26.2613C-17.6837 167.826 -162.564 382.801 -409.433 642.5" stroke="url(#paint11_linear_42_1130)" stroke-opacity="0.24" stroke-width="1.88978" stroke-miterlimit="10"/>
<path d="M1990.37 -85.3382C1749.07 14.1583 1562.39 -38.012 1467.47 -77.1397C1350.43 -125.379 1264.48 -131.194 1082.19 -202.689C821.089 -305.093 658.057 -386.865 485.512 -326.075C318.432 -267.209 226.176 -174.415 69.6068 33.7414C-33.6328 170.999 -182.774 381.066 -424.392 638.187" stroke="url(#paint12_linear_42_1130)" stroke-opacity="0.24" stroke-width="1.88978" stroke-miterlimit="10"/>
<path d="M1989.66 -132.076C1758.17 -12.2188 1570.16 -51.3725 1478.54 -82.1721C1357.74 -122.783 1266.87 -126.403 1077.03 -194.776C813.15 -289.817 667.94 -367.036 499.332 -313.856C325.433 -258.972 224.829 -165.874 57.8271 41.2206C-49.486 174.282 -202.985 379.349 -439.345 633.854" stroke="url(#paint13_linear_42_1130)" stroke-opacity="0.24" stroke-width="1.88978" stroke-miterlimit="10"/>
<path d="M1988.94 -178.812C1767.28 -38.5883 1577.77 -64.2978 1489.64 -87.2032C1364.89 -119.622 1269.3 -121.791 1071.86 -186.868C805.217 -274.753 677.783 -347.588 513.151 -301.629C332.375 -251.162 223.637 -157.144 46.0473 48.7204C-65.2225 177.695 -223.178 377.621 -454.278 629.581" stroke="url(#paint14_linear_42_1130)" stroke-opacity="0.24" stroke-width="1.88978" stroke-miterlimit="10"/>
<path d="M1988.22 -225.555C1776.35 -64.9647 1585.31 -76.7833 1500.69 -92.235C1371.88 -115.756 1271.71 -117.368 1066.66 -178.954C797.265 -259.904 687.589 -328.413 526.933 -289.408C339.228 -243.824 222.564 -148.233 34.2298 56.1742C-80.9514 181.186 -243.414 375.866 -469.256 625.242" stroke="url(#paint15_linear_42_1130)" stroke-opacity="0.24" stroke-width="1.88978" stroke-miterlimit="10"/>
<path d="M1987.47 -272.292C1785.46 -91.3413 1591.98 -112.259 1511.73 -97.2733C1380.47 -72.7553 1274.1 -113.133 1061.45 -171.047C789.268 -245.191 697.458 -309.523 540.74 -277.182C346.08 -237.031 221.638 -139.056 22.4374 63.654C-96.5971 184.793 -263.625 374.131 -484.215 620.903" stroke="url(#paint16_linear_42_1130)" stroke-opacity="0.24" stroke-width="1.88978" stroke-miterlimit="10"/>
<path d="M1986.78 -319.03C1794.59 -117.718 1598.81 -119.836 1522.84 -102.305C1389.68 -71.5835 1276.56 -109.073 1056.31 -163.141C781.242 -230.685 707.442 -290.911 554.545 -264.956C352.949 -230.775 220.82 -129.686 10.6427 71.1464C-112.219 188.536 -283.838 372.414 -499.17 616.629" stroke="url(#paint17_linear_42_1130)" stroke-opacity="0.24" stroke-width="1.88978" stroke-miterlimit="10"/>
<path d="M1986.06 -365.773C1803.69 -144.088 1606.53 -126.668 1533.91 -107.337C1398.36 -71.2598 1278.98 -105.194 1051.13 -155.259C773.174 -216.302 717.552 -272.513 568.353 -252.768C359.872 -225.174 220.096 -120.114 -1.14884 78.5807C-127.812 192.331 -304.055 370.646 -514.128 612.27" stroke="url(#paint18_linear_42_1130)" stroke-opacity="0.24" stroke-width="1.88978" stroke-miterlimit="10"/>
<path d="M1985.34 -412.51C1812.8 -170.465 1617.48 -123.035 1544.98 -112.369C1402.18 -91.4062 1281.35 -101.476 1045.95 -147.339C765.02 -202.041 727.835 -254.302 582.152 -240.528C366.904 -220.155 219.447 -110.232 -12.9555 86.0931C-143.42 196.314 -324.28 368.93 -529.089 607.99" stroke="url(#paint19_linear_42_1130)" stroke-opacity="0.24" stroke-width="1.88978" stroke-miterlimit="10"/>
<path d="M1984.62 -459.247C1821.9 -196.842 1626.5 -134.031 1556.06 -117.408C1411.22 -83.234 1283.72 -97.928 1040.78 -139.426C756.816 -187.911 738.353 -236.293 595.966 -228.302C374.094 -215.855 218.852 -100.208 -24.7341 93.5528C-159.006 200.361 -344.478 367.181 -544.041 603.657" stroke="url(#paint20_linear_42_1130)" stroke-opacity="0.24" stroke-width="1.88978" stroke-miterlimit="10"/>
<path d="M1983.91 -505.99C1831 -223.218 1636.15 -145.04 1567.13 -122.439C1421.1 -74.5949 1286.04 -94.5344 1035.6 -131.506C748.515 -173.884 749.117 -218.426 609.768 -216.069C381.49 -212.183 218.303 -89.9106 -36.5323 101.039C-174.619 204.499 -364.688 365.465 -558.999 599.357" stroke="url(#paint21_linear_42_1130)" stroke-opacity="0.24" stroke-width="1.88978" stroke-miterlimit="10"/>
<circle cx="948.485" cy="5" r="5" fill="white"/>
<circle cx="964.485" cy="5" r="5" fill="white" fill-opacity="0.24"/>
<circle cx="980.485" cy="5" r="5" fill="white" fill-opacity="0.24"/>
</g>
<defs>
<linearGradient id="paint0_linear_42_1130" x1="877.035" y1="689.963" x2="877.035" y2="-555" gradientUnits="userSpaceOnUse">
<stop stop-color="#001637"/>
<stop offset="1" stop-color="#001637" stop-opacity="0"/>
</linearGradient>
<linearGradient id="paint1_linear_42_1130" x1="869.207" y1="685.663" x2="869.207" y2="-536.258" gradientUnits="userSpaceOnUse">
<stop stop-color="#001637"/>
<stop offset="1" stop-color="#001637" stop-opacity="0"/>
</linearGradient>
<linearGradient id="paint2_linear_42_1130" x1="861.354" y1="681.33" x2="861.354" y2="-517.738" gradientUnits="userSpaceOnUse">
<stop stop-color="#001637"/>
<stop offset="1" stop-color="#001637" stop-opacity="0"/>
</linearGradient>
<linearGradient id="paint3_linear_42_1130" x1="853.516" y1="677.017" x2="853.516" y2="-499.457" gradientUnits="userSpaceOnUse">
<stop stop-color="#001637"/>
<stop offset="1" stop-color="#001637" stop-opacity="0"/>
</linearGradient>
<linearGradient id="paint4_linear_42_1130" x1="845.694" y1="672.672" x2="845.694" y2="-481.434" gradientUnits="userSpaceOnUse">
<stop stop-color="#001637"/>
<stop offset="1" stop-color="#001637" stop-opacity="0"/>
</linearGradient>
<linearGradient id="paint5_linear_42_1130" x1="837.855" y1="668.392" x2="837.855" y2="-463.676" gradientUnits="userSpaceOnUse">
<stop stop-color="#001637"/>
<stop offset="1" stop-color="#001637" stop-opacity="0"/>
</linearGradient>
<linearGradient id="paint6_linear_42_1130" x1="830.02" y1="664.071" x2="830.02" y2="-446.191" gradientUnits="userSpaceOnUse">
<stop stop-color="#001637"/>
<stop offset="1" stop-color="#001637" stop-opacity="0"/>
</linearGradient>
<linearGradient id="paint7_linear_42_1130" x1="822.168" y1="659.759" x2="822.169" y2="-428.976" gradientUnits="userSpaceOnUse">
<stop stop-color="#001637"/>
<stop offset="1" stop-color="#001637" stop-opacity="0"/>
</linearGradient>
<linearGradient id="paint8_linear_42_1130" x1="814.326" y1="655.446" x2="814.326" y2="-412.037" gradientUnits="userSpaceOnUse">
<stop stop-color="#001637"/>
<stop offset="1" stop-color="#001637" stop-opacity="0"/>
</linearGradient>
<linearGradient id="paint9_linear_42_1130" x1="806.507" y1="651.152" x2="806.507" y2="-395.342" gradientUnits="userSpaceOnUse">
<stop stop-color="#001637"/>
<stop offset="1" stop-color="#001637" stop-opacity="0"/>
</linearGradient>
<linearGradient id="paint10_linear_42_1130" x1="798.666" y1="646.807" x2="798.666" y2="-378.954" gradientUnits="userSpaceOnUse">
<stop stop-color="#001637"/>
<stop offset="1" stop-color="#001637" stop-opacity="0"/>
</linearGradient>
<linearGradient id="paint11_linear_42_1130" x1="790.829" y1="642.5" x2="790.829" y2="-362.799" gradientUnits="userSpaceOnUse">
<stop stop-color="#001637"/>
<stop offset="1" stop-color="#001637" stop-opacity="0"/>
</linearGradient>
<linearGradient id="paint12_linear_42_1130" x1="782.991" y1="638.187" x2="782.991" y2="-346.897" gradientUnits="userSpaceOnUse">
<stop stop-color="#001637"/>
<stop offset="1" stop-color="#001637" stop-opacity="0"/>
</linearGradient>
<linearGradient id="paint13_linear_42_1130" x1="775.155" y1="633.854" x2="775.155" y2="-331.231" gradientUnits="userSpaceOnUse">
<stop stop-color="#001637"/>
<stop offset="1" stop-color="#001637" stop-opacity="0"/>
</linearGradient>
<linearGradient id="paint14_linear_42_1130" x1="767.329" y1="629.581" x2="767.329" y2="-315.831" gradientUnits="userSpaceOnUse">
<stop stop-color="#001637"/>
<stop offset="1" stop-color="#001637" stop-opacity="0"/>
</linearGradient>
<linearGradient id="paint15_linear_42_1130" x1="759.481" y1="625.242" x2="759.481" y2="-300.67" gradientUnits="userSpaceOnUse">
<stop stop-color="#001637"/>
<stop offset="1" stop-color="#001637" stop-opacity="0"/>
</linearGradient>
<linearGradient id="paint16_linear_42_1130" x1="751.626" y1="620.903" x2="751.626" y2="-285.757" gradientUnits="userSpaceOnUse">
<stop stop-color="#001637"/>
<stop offset="1" stop-color="#001637" stop-opacity="0"/>
</linearGradient>
<linearGradient id="paint17_linear_42_1130" x1="743.805" y1="616.629" x2="743.805" y2="-319.03" gradientUnits="userSpaceOnUse">
<stop stop-color="#001637"/>
<stop offset="1" stop-color="#001637" stop-opacity="0"/>
</linearGradient>
<linearGradient id="paint18_linear_42_1130" x1="735.967" y1="612.27" x2="735.967" y2="-365.773" gradientUnits="userSpaceOnUse">
<stop stop-color="#001637"/>
<stop offset="1" stop-color="#001637" stop-opacity="0"/>
</linearGradient>
<linearGradient id="paint19_linear_42_1130" x1="728.126" y1="607.99" x2="728.127" y2="-412.51" gradientUnits="userSpaceOnUse">
<stop stop-color="#001637"/>
<stop offset="1" stop-color="#001637" stop-opacity="0"/>
</linearGradient>
<linearGradient id="paint20_linear_42_1130" x1="720.292" y1="603.657" x2="720.292" y2="-459.247" gradientUnits="userSpaceOnUse">
<stop stop-color="#001637"/>
<stop offset="1" stop-color="#001637" stop-opacity="0"/>
</linearGradient>
<linearGradient id="paint21_linear_42_1130" x1="712.453" y1="599.357" x2="712.454" y2="-505.99" gradientUnits="userSpaceOnUse">
<stop stop-color="#001637"/>
<stop offset="1" stop-color="#001637" stop-opacity="0"/>
</linearGradient>
<clipPath id="clip0_42_1130">
<rect width="1440" height="548" fill="white"/>
</clipPath>
</defs>
</svg>
