<svg width="1440" height="1017" viewBox="0 0 1440 1017" fill="none" xmlns="http://www.w3.org/2000/svg">
<g clip-path="url(#clip0_122_10936)">
<rect width="1440" height="1017" fill="#21149E"/>
<g style="mix-blend-mode:soft-light">
<path d="M177.541 1036.92C157.626 1014.13 159.969 979.626 182.653 959.71L393.309 775.253C415.035 756.19 447.837 757.361 468.178 777.809L609.077 919.453C619.301 929.784 633.252 935.535 647.736 935.641L893.005 936.493C941.462 936.706 966.276 878.451 932.516 843.626L677.024 580.252C655.724 558.313 656.576 523.275 678.728 502.295L1734.14 -492.091C1756.18 -512.859 1790.8 -511.794 1811.56 -489.748C1832.33 -467.703 1831.27 -433.091 1809.22 -412.323L834.75 505.916C812.491 526.896 811.746 561.934 833.045 583.873L1192.27 954.172C1226.03 988.998 1201.21 1047.25 1152.76 1047.04L602.155 1045.12C587.671 1045.12 573.719 1039.27 563.495 1028.93L463.173 927.973C442.831 907.525 410.029 906.354 388.303 925.417L254.966 1042.25C232.175 1062.16 197.669 1059.82 177.754 1037.14L177.541 1036.92Z" fill="url(#paint0_linear_122_10936)" fill-opacity="0.24"/>
</g>
</g>
<defs>
<linearGradient id="paint0_linear_122_10936" x1="995.236" y1="-507" x2="995.236" y2="1055.79" gradientUnits="userSpaceOnUse">
<stop stop-color="white"/>
<stop offset="1" stop-color="white" stop-opacity="0"/>
</linearGradient>
<clipPath id="clip0_122_10936">
<rect width="1440" height="1017" fill="white"/>
</clipPath>
</defs>
</svg>
