<svg width="20" height="20" viewBox="0 0 20 20" fill="none" xmlns="http://www.w3.org/2000/svg">
<path d="M5.83203 15C4.30792 15.3431 3.33203 15.8703 3.33203 16.4614C3.33203 17.4953 6.3168 18.3333 9.9987 18.3333C13.6806 18.3333 16.6654 17.4953 16.6654 16.4614C16.6654 15.8703 15.6894 15.3431 14.1654 15" stroke="#F9F6F3" stroke-width="1.25" stroke-linecap="round"/>
<path d="M12.0827 7.49935C12.0827 8.64993 11.1499 9.58268 9.99935 9.58268C8.84877 9.58268 7.91602 8.64993 7.91602 7.49935C7.91602 6.34876 8.84877 5.41602 9.99935 5.41602C11.1499 5.41602 12.0827 6.34876 12.0827 7.49935Z" stroke="#F9F6F3" stroke-width="1.25"/>
<path d="M11.0472 14.5773C10.7661 14.848 10.3904 14.9993 9.99952 14.9993C9.60852 14.9993 9.23285 14.848 8.95177 14.5773C6.37793 12.0833 2.92867 9.29727 4.61077 5.25246C5.52027 3.06545 7.70347 1.66602 9.99952 1.66602C12.2955 1.66602 14.4787 3.06546 15.3882 5.25246C17.0682 9.29218 13.6273 12.0919 11.0472 14.5773Z" stroke="#F9F6F3" stroke-width="1.25"/>
</svg>
