<svg width="20" height="20" viewBox="0 0 20 20" fill="none" xmlns="http://www.w3.org/2000/svg">
<path d="M16.6108 16.1681L17.1947 16.7626C17.2629 16.6956 17.3191 16.6174 17.3608 16.5313L16.6108 16.1681ZM15.4086 17.3944L16.0167 17.9642C16.0258 17.9546 16.0346 17.9446 16.0432 17.9345L15.4086 17.3944ZM13.7981 17.9962L13.8534 17.1647L13.8512 17.1645L13.7981 17.9962ZM10.8213 17.105L10.4588 17.8553L10.4623 17.857L10.8213 17.105ZM5.18827 12.7022L4.54746 13.235L4.55 13.238L5.18827 12.7022ZM2.44045 8.13568L3.22179 7.84592L3.22091 7.84358L2.44045 8.13568ZM2.01301 5.75148L1.18271 5.68037L1.18247 5.68327L2.01301 5.75148ZM2.53967 4.62033L3.12833 5.21018L3.12833 5.21018L2.53967 4.62033ZM3.84107 3.32159L3.27133 2.71345C3.26493 2.71944 3.25863 2.72554 3.25242 2.73173L3.84107 3.32159ZM4.97836 3.31778L5.56702 2.72792L4.97836 3.31778ZM4.98981 3.32921L4.40116 3.91906C4.40782 3.92571 4.4146 3.93225 4.42148 3.93867L4.98981 3.32921ZM5.67677 4.01095L5.07868 4.59124L5.07883 4.59139L5.67677 4.01095ZM6.03933 4.38038L5.4416 4.96118L5.45067 4.97024L6.03933 4.38038ZM7.08121 5.42014L6.49255 6.00999L6.49255 6.00999L7.08121 5.42014ZM7.08121 6.60081L7.66986 7.19066L7.08121 6.60081ZM6.753 6.92835L6.17478 6.32825C6.16892 6.3339 6.16314 6.33964 6.15744 6.34545L6.753 6.92835ZM6.35222 7.30164L5.79657 6.6806C5.78529 6.69069 5.77428 6.70109 5.76357 6.71178L6.35222 7.30164ZM6.33314 7.32068L6.92179 7.91054C6.98523 7.84723 7.03804 7.7741 7.07819 7.69397L6.33314 7.32068ZM6.13469 8.18524L5.34008 8.43668L5.34428 8.44925L6.13469 8.18524ZM6.14614 8.21952L5.35573 8.48353C5.36187 8.50193 5.36866 8.52011 5.37608 8.53804L6.14614 8.21952ZM7.37884 10.2267L6.72467 10.7429C6.74504 10.7687 6.76691 10.7933 6.79018 10.8165L7.37884 10.2267ZM7.38265 10.2305L8.02912 9.70461C8.01097 9.68229 7.99167 9.66093 7.97131 9.64061L7.38265 10.2305ZM10.7716 13.3078L11.2173 12.6037L11.2164 12.6031L10.7716 13.3078ZM11.241 13.563L11.6131 12.8173L11.6131 12.8173L11.241 13.563ZM11.6189 13.7649L11.1801 14.4733C11.2017 14.4867 11.224 14.4991 11.2468 14.5105L11.6189 13.7649ZM11.6647 13.7915L11.2926 14.5372L11.6647 13.7915ZM12.6226 13.6239L13.2112 14.2138L12.6226 13.6239ZM13.3707 12.8774L13.9593 13.4673L13.3707 12.8774ZM14.4965 12.8698L13.8813 13.4319C13.8899 13.4413 13.8988 13.4506 13.9078 13.4596L14.4965 12.8698ZM14.5041 12.8774L15.0928 12.2875L15.0928 12.2875L14.5041 12.8774ZM16.607 14.976L16.0183 15.5658L16.0212 15.5687L16.607 14.976ZM10.8636 4.44974C10.4097 4.37367 9.9801 4.67996 9.90403 5.13387C9.82795 5.58777 10.1342 6.01741 10.5882 6.09348L10.8636 4.44974ZM13.9042 9.40438C13.9823 9.85795 14.4133 10.1624 14.8668 10.0843C15.3204 10.0062 15.6248 9.57526 15.5468 9.1217L13.9042 9.40438ZM11.0176 1.17834C10.5638 1.10157 10.1337 1.4072 10.0569 1.86099C9.98014 2.31478 10.2858 2.74488 10.7396 2.82166L11.0176 1.17834ZM15.5689 4.42609L16.1576 3.83623L16.1567 3.83536L15.5689 4.42609ZM17.1784 9.24644C17.2555 9.70018 17.6858 10.0055 18.1396 9.92844C18.5933 9.85136 18.8986 9.42105 18.8216 8.96732L17.1784 9.24644ZM16.6108 16.1681C16.0269 15.5735 16.0268 15.5735 16.0268 15.5735C16.0268 15.5736 16.0268 15.5736 16.0268 15.5736C16.0267 15.5736 16.0267 15.5737 16.0266 15.5737C16.0265 15.5739 16.0263 15.5741 16.026 15.5743C16.0255 15.5748 16.0248 15.5755 16.0239 15.5765C16.0219 15.5784 16.0191 15.5811 16.0155 15.5847C16.0082 15.5919 15.9975 15.6024 15.9839 15.6158C15.9567 15.6426 15.9176 15.6812 15.87 15.7283C15.7749 15.8224 15.6454 15.951 15.5082 16.0887C15.2467 16.351 14.9186 16.6845 14.774 16.8543L16.0432 17.9345C16.1353 17.8264 16.4082 17.5466 16.6886 17.2653C16.8224 17.1311 16.9491 17.0052 17.0424 16.9129C17.0891 16.8667 17.1273 16.829 17.1538 16.8029C17.167 16.7898 17.1773 16.7797 17.1843 16.7728C17.1878 16.7694 17.1904 16.7668 17.1922 16.7651C17.1931 16.7642 17.1937 16.7636 17.1941 16.7632C17.1944 16.7629 17.1945 16.7628 17.1946 16.7627C17.1947 16.7626 17.1947 16.7626 17.1947 16.7626C17.1947 16.7626 17.1947 16.7626 17.1947 16.7626C17.1947 16.7626 17.1947 16.7626 16.6108 16.1681ZM14.8006 16.8246C14.5796 17.0604 14.3489 17.1667 13.9737 17.1667V18.8333C14.7891 18.8333 15.4668 18.5511 16.0167 17.9642L14.8006 16.8246ZM13.9737 17.1667C13.9109 17.1667 13.8782 17.1663 13.8534 17.1647L13.7428 18.8277C13.8325 18.8337 13.9219 18.8333 13.9737 18.8333V17.1667ZM13.8512 17.1645C12.8847 17.1028 11.9517 16.7211 11.1802 16.3529L10.4623 17.857C11.2709 18.243 12.4445 18.7448 13.745 18.8278L13.8512 17.1645ZM11.1838 16.3546C9.13188 15.3633 7.32852 13.9557 5.82653 12.1664L4.55 13.238C6.20037 15.204 8.19052 16.7595 10.4588 17.8553L11.1838 16.3546ZM5.82906 12.1695C4.57486 10.6609 3.75887 9.29417 3.22178 7.84592L1.65911 8.42544C2.27458 10.085 3.19887 11.6128 4.54747 13.235L5.82906 12.1695ZM3.22091 7.84358C2.89234 6.96565 2.79962 6.35446 2.84355 5.8197L1.18247 5.68327C1.1119 6.54246 1.27871 7.40902 1.65998 8.42777L3.22091 7.84358ZM2.8433 5.8226C2.86471 5.57262 2.95109 5.38705 3.12833 5.21018L1.95102 4.03047C1.49473 4.48583 1.23763 5.03913 1.18272 5.68037L2.8433 5.8226ZM3.12833 5.21018L4.42972 3.91145L3.25242 2.73173L1.95102 4.03047L3.12833 5.21018ZM4.41081 3.92973C4.45333 3.8899 4.47862 3.8768 4.48249 3.87498C4.48455 3.87401 4.46241 3.88451 4.42117 3.88451V2.21784C3.94604 2.21784 3.55385 2.44876 3.27133 2.71345L4.41081 3.92973ZM4.42117 3.88451C4.39679 3.88451 4.3767 3.88073 4.36282 3.87675C4.3496 3.87296 4.34335 3.8694 4.34416 3.86985C4.34508 3.87035 4.35039 3.87343 4.35952 3.88059C4.36855 3.88766 4.37882 3.89676 4.38971 3.90764L5.56702 2.72792C5.39285 2.55411 4.99537 2.21784 4.42117 2.21784V3.88451ZM4.38971 3.90764C4.39161 3.90953 4.39351 3.91143 4.39542 3.91334C4.39733 3.91524 4.39924 3.91715 4.40116 3.91906L5.57847 2.73935C5.57656 2.73745 5.57466 2.73555 5.57275 2.73365C5.57085 2.73174 5.56893 2.72983 5.56702 2.72792L4.38971 3.90764ZM4.42148 3.93867C4.63818 4.14075 4.84746 4.35292 5.07868 4.59124L6.27486 3.43066C6.04047 3.18908 5.80704 2.95185 5.55814 2.71974L4.42148 3.93867ZM5.07883 4.59139C5.1407 4.65513 5.20316 4.71845 5.26337 4.77948C5.32435 4.84129 5.38318 4.90092 5.44167 4.96112L6.63698 3.79965C6.57335 3.73416 6.51006 3.67002 6.44986 3.60899C6.3889 3.5472 6.33114 3.48864 6.27471 3.43051L5.07883 4.59139ZM5.45067 4.97024L6.49255 6.00999L7.66986 4.83028L6.62798 3.79053L5.45067 4.97024ZM6.49255 6.00999C6.52069 6.03807 6.5396 6.06022 6.55181 6.0762C6.56398 6.09213 6.56813 6.10014 6.56809 6.10006C6.5679 6.09969 6.56341 6.09086 6.55907 6.07414C6.55692 6.06585 6.55493 6.05611 6.5535 6.04512C6.55207 6.0341 6.55128 6.02247 6.55128 6.01047C6.55128 5.99847 6.55207 5.98684 6.5535 5.97582C6.55493 5.96483 6.55692 5.95509 6.55907 5.9468C6.56341 5.93008 6.5679 5.92125 6.56809 5.92088C6.56813 5.92081 6.56398 5.92881 6.55181 5.94475C6.5396 5.96072 6.52069 5.98287 6.49255 6.01095L7.66986 7.19066C7.95127 6.90983 8.21795 6.51562 8.21795 6.01047C8.21795 5.50532 7.95127 5.11112 7.66986 4.83028L6.49255 6.00999ZM6.49255 6.01095C6.36726 6.13598 6.27931 6.22754 6.17478 6.32825L7.33121 7.52844C7.44804 7.41587 7.5738 7.28653 7.66986 7.19066L6.49255 6.01095ZM6.15744 6.34545C6.07294 6.4318 6.03442 6.47153 6.00732 6.49912C5.97582 6.53119 5.99767 6.50728 6.02891 6.4817C6.03403 6.47751 6.04933 6.46552 6.02755 6.48252C6.01417 6.49297 5.99818 6.50572 5.97738 6.523C5.93808 6.55565 5.88303 6.60324 5.79657 6.6806L6.90788 7.92268C6.98743 7.85151 7.02541 7.81911 7.04229 7.80509C7.04958 7.79904 7.05247 7.79679 7.05328 7.79616C7.0565 7.79365 7.05381 7.79576 7.06083 7.79031C7.06518 7.78693 7.0742 7.7799 7.0849 7.77114C7.13475 7.73031 7.1745 7.68925 7.19632 7.66704C7.22254 7.64035 7.27276 7.58867 7.34855 7.51124L6.15744 6.34545ZM5.76357 6.71178C5.78593 6.68947 5.80456 6.67369 5.8117 6.66772C5.81447 6.6654 5.81763 6.66281 5.81474 6.66519C5.81354 6.66617 5.80717 6.6714 5.79957 6.67789C5.77273 6.70085 5.66622 6.79146 5.58809 6.9474L7.07819 7.69397C7.00388 7.84229 6.90309 7.92719 6.88292 7.94443C6.87969 7.9472 6.87708 7.94939 6.87549 7.95071C6.87468 7.95138 6.87403 7.95192 6.87362 7.95226C6.87321 7.95259 6.87294 7.95281 6.87294 7.95282C6.87182 7.95374 6.87679 7.94967 6.88142 7.9458C6.89225 7.93673 6.9147 7.91762 6.94087 7.8915L5.76357 6.71178ZM5.74449 6.73083C5.45481 7.01991 5.29735 7.35302 5.25729 7.69836C5.21986 8.02108 5.29356 8.28933 5.34018 8.43665L6.92919 7.93383C6.92406 7.91763 6.92057 7.90538 6.91809 7.89552C6.91563 7.88576 6.91445 7.87949 6.9139 7.87597C6.91284 7.86917 6.91458 7.87554 6.91286 7.8904C6.912 7.89779 6.91043 7.90592 6.90803 7.91418C6.90561 7.92248 6.90289 7.929 6.90073 7.93335C6.89861 7.93764 6.89792 7.93803 6.90041 7.93462C6.90297 7.93111 6.9094 7.92291 6.92179 7.91054L5.74449 6.73083ZM5.34428 8.44925C5.34619 8.45496 5.3481 8.46068 5.35 8.46639C5.35191 8.47211 5.35382 8.47782 5.35573 8.48353L6.93654 7.95551C6.93463 7.94979 6.93272 7.94408 6.93082 7.93836C6.92891 7.93265 6.927 7.92694 6.92509 7.92123L5.34428 8.44925ZM5.37608 8.53804C5.68484 9.28449 6.11301 9.96784 6.72467 10.7429L8.033 9.71041C7.48448 9.01535 7.14936 8.46471 6.91619 7.90099L5.37608 8.53804ZM6.79018 10.8165L6.794 10.8203L7.97131 9.64061L7.96749 9.6368L6.79018 10.8165ZM6.73619 10.7563C7.83784 12.1107 9.01439 13.1842 10.3269 14.0126L11.2164 12.6031C10.0787 11.8851 9.03413 10.9401 8.02912 9.70461L6.73619 10.7563ZM10.326 14.012C10.5237 14.1371 10.7213 14.235 10.869 14.3087L11.6131 12.8173C11.4555 12.7387 11.3325 12.6766 11.2173 12.6037L10.326 14.012ZM10.869 14.3087C11.0153 14.3817 11.1083 14.4288 11.1801 14.4733L12.0577 13.0564C11.9081 12.9638 11.7416 12.8814 11.6131 12.8173L10.869 14.3087ZM11.2468 14.5105C11.2267 14.5005 11.2119 14.4919 11.2055 14.4881C11.1998 14.4847 11.1955 14.482 11.2008 14.4853C11.2032 14.4868 11.2151 14.4942 11.2284 14.5021C11.2425 14.5105 11.2648 14.5233 11.2926 14.5372L12.0367 13.0459C12.0569 13.0559 12.0716 13.0645 12.078 13.0683C12.0837 13.0717 12.088 13.0744 12.0828 13.0711C12.0804 13.0696 12.0685 13.0622 12.0551 13.0542C12.0411 13.0459 12.0187 13.0331 11.9909 13.0192L11.2468 14.5105ZM11.2926 14.5372C11.5222 14.6518 11.771 14.7201 12.0425 14.7201V13.0534C12.0448 13.0534 12.0478 13.0536 12.0511 13.054C12.0545 13.0544 12.0569 13.0549 12.0582 13.0552C12.0611 13.0559 12.0546 13.0548 12.0367 13.0459L11.2926 14.5372ZM12.0425 14.7201C12.7211 14.7201 13.1316 14.2933 13.2112 14.2138L12.0339 13.0341C12.0259 13.0421 12.0225 13.0455 12.0188 13.0489C12.0156 13.052 12.0129 13.0544 12.0106 13.0564C12.0057 13.0605 12.0029 13.0623 12.0025 13.0625C12.0023 13.0626 12.0063 13.0602 12.0144 13.0577C12.0185 13.0565 12.0233 13.0553 12.0285 13.0545C12.0337 13.0537 12.0385 13.0534 12.0425 13.0534V14.7201ZM13.2112 14.2138L13.9593 13.4673L12.782 12.2875L12.0339 13.0341L13.2112 14.2138ZM13.9593 13.4673C13.9733 13.4533 13.9872 13.4408 14.0002 13.4305C14.0133 13.42 14.0225 13.4142 14.0271 13.4117C14.0316 13.4091 14.0275 13.412 14.0147 13.4159C14.0012 13.42 13.9778 13.4251 13.9469 13.4251V11.7584C13.3612 11.7584 12.9493 12.1206 12.782 12.2875L13.9593 13.4673ZM13.9469 13.4251C13.8872 13.4251 13.853 13.406 13.8517 13.4052C13.8506 13.4046 13.8539 13.4064 13.8607 13.412C13.8673 13.4176 13.8745 13.4245 13.8813 13.4319L15.1117 12.3077C14.9318 12.1108 14.5299 11.7584 13.9469 11.7584V13.4251ZM13.9078 13.4596C13.9098 13.4616 13.9108 13.4626 13.9117 13.4635C13.9127 13.4645 13.9136 13.4654 13.9155 13.4673L15.0928 12.2875C15.0908 12.2856 15.0899 12.2846 15.0889 12.2837C15.088 12.2827 15.087 12.2818 15.0852 12.2799L13.9078 13.4596ZM13.9155 13.4673L16.0183 15.5658L17.1956 14.3861L15.0928 12.2875L13.9155 13.4673ZM16.0212 15.5687C15.9593 15.5075 15.9488 15.4464 15.9486 15.4453C15.9486 15.4452 15.949 15.4479 15.9492 15.4538C15.9494 15.4596 15.9494 15.4677 15.9488 15.4783C15.9477 15.5 15.9443 15.5273 15.9381 15.5596C15.9253 15.626 15.9043 15.6926 15.8846 15.7453C15.8753 15.7704 15.8672 15.7896 15.8624 15.8007C15.8601 15.8062 15.8586 15.8094 15.8582 15.8103C15.858 15.8107 15.8581 15.8104 15.8585 15.8095C15.8587 15.8091 15.859 15.8085 15.8594 15.8077C15.8596 15.8073 15.8598 15.8068 15.8601 15.8063C15.8602 15.8061 15.8603 15.8058 15.8604 15.8056C15.8605 15.8055 15.8606 15.8052 15.8606 15.8052C15.8607 15.805 15.8608 15.8048 16.6108 16.1681C17.3608 16.5313 17.3609 16.5311 17.361 16.5309C17.361 16.5308 17.3611 16.5306 17.3612 16.5304C17.3614 16.5301 17.3615 16.5298 17.3617 16.5295C17.362 16.5288 17.3624 16.5281 17.3627 16.5273C17.3635 16.5257 17.3643 16.5239 17.3653 16.5219C17.3671 16.518 17.3694 16.5132 17.3719 16.5076C17.3771 16.4965 17.3836 16.4821 17.3911 16.4648C17.406 16.4304 17.4253 16.3838 17.4463 16.3275C17.4874 16.2174 17.5391 16.0588 17.5745 15.8757C17.6327 15.5743 17.7067 14.8911 17.1927 14.3832L16.0212 15.5687ZM10.5882 6.09348C11.4139 6.23187 12.1655 6.62114 12.7706 7.22495L13.9479 6.04524C13.1027 5.20178 12.0377 4.64651 10.8636 4.44974L10.5882 6.09348ZM12.7706 7.22495C13.3741 7.82725 13.7619 8.57719 13.9042 9.40438L15.5468 9.1217C15.3456 7.95317 14.7946 6.89021 13.9479 6.04524L12.7706 7.22495ZM10.7396 2.82166C12.3453 3.09333 13.8113 3.85281 14.9812 5.01682L16.1567 3.83536C14.7467 2.43236 12.9687 1.50844 11.0176 1.17834L10.7396 2.82166ZM14.9803 5.01595C16.149 6.18227 16.9062 7.64404 17.1784 9.24644L18.8216 8.96732C18.4908 7.02009 17.5688 5.24454 16.1576 3.83623L14.9803 5.01595Z" fill="white"/>
</svg>
