<svg width="20" height="20" viewBox="0 0 16 16" fill="none" xmlns="http://www.w3.org/2000/svg">
<path d="M6.53025 2.46745L11.5302 7.46745C11.6002 7.53713 11.6556 7.61992 11.6935 7.71108C11.7314 7.80225 11.7508 7.89999 11.7508 7.9987C11.7508 8.09741 11.7314 8.19515 11.6935 8.28631C11.6556 8.37748 11.6002 8.46027 11.5302 8.52995L6.53025 13.5299C6.38935 13.6708 6.19825 13.75 5.999 13.75C5.79974 13.75 5.60864 13.6708 5.46775 13.5299C5.32685 13.3891 5.2477 13.198 5.2477 12.9987C5.2477 12.7994 5.32685 12.6083 5.46775 12.4674L9.93712 7.99807L5.46712 3.5287C5.32623 3.3878 5.24707 3.19671 5.24707 2.99745C5.24707 2.79819 5.32623 2.6071 5.46712 2.4662C5.60802 2.3253 5.79911 2.24615 5.99837 2.24615C6.19763 2.24615 6.38873 2.3253 6.52962 2.4662L6.53025 2.46745Z" fill="black" fill-opacity="0.6"/>
</svg>
