<?xml version="1.0" encoding="UTF-8"?>
<svg xmlns="http://www.w3.org/2000/svg" version="1.1" viewBox="0 0 247.61 128.37">
  <defs>
    <style>
      .cls-1 {
        fill: #3a3a3a;
      }

      .cls-2 {
        fill: #082252;
      }

      .cls-3 {
        fill: #0c4ac3;
      }
    </style>
  </defs>
  <!-- Generator: Adobe Illustrator 28.6.0, SVG Export Plug-In . SVG Version: 1.2.0 Build 709)  -->
  <g>
    <g id="Capa_1">
      <g>
        <g>
          <path class="cls-2" d="M72.46,120.99c0-.64.11-1.24.33-1.8.22-.56.52-1.04.91-1.46.39-.42.84-.74,1.37-.97.52-.23,1.09-.35,1.7-.35s1.18.12,1.7.35c.52.23.97.56,1.36.97s.69.9.9,1.46c.21.56.32,1.16.32,1.8s-.11,1.25-.32,1.81-.51,1.04-.9,1.46c-.39.42-.84.74-1.36.98-.52.23-1.09.35-1.7.35s-1.19-.12-1.71-.35c-.52-.23-.98-.56-1.37-.98-.39-.42-.69-.91-.91-1.46s-.33-1.16-.33-1.81ZM73.03,120.99c0,.76.16,1.45.48,2.06.32.61.76,1.09,1.33,1.45s1.2.53,1.93.53,1.37-.18,1.93-.53c.56-.36,1-.84,1.32-1.45.32-.61.48-1.3.48-2.06s-.16-1.45-.48-2.06c-.32-.61-.76-1.09-1.32-1.44-.56-.35-1.2-.53-1.93-.53s-1.36.18-1.93.53c-.56.35-1.01.83-1.33,1.44-.32.61-.48,1.29-.48,2.06ZM79.29,126c.26,0,.48-.03.66-.09.18-.06.32-.12.43-.18.1-.06.16-.1.17-.12l.34.48c-.09.07-.27.17-.53.29s-.63.18-1.1.18c-.3,0-.55-.03-.77-.09-.22-.06-.42-.14-.61-.22-.19-.08-.38-.16-.57-.22s-.42-.09-.67-.09c-.27,0-.52.05-.74.16-.22.11-.4.21-.53.32s-.21.17-.22.19l-.38-.43c.29-.23.58-.41.88-.55s.64-.21,1.06-.21c.33,0,.63.05.9.15.27.1.54.2.81.29.27.1.57.15.89.15Z"/>
          <path class="cls-2" d="M82.76,122.85c0,.68.15,1.21.45,1.61s.75.59,1.36.59,1.06-.2,1.36-.59c.3-.4.45-.93.45-1.61v-2.93h.56v3.05c0,.5-.09.95-.28,1.34-.19.4-.45.71-.81.93-.35.23-.78.34-1.29.34s-.93-.11-1.29-.34c-.35-.23-.62-.54-.81-.93-.19-.4-.28-.84-.28-1.34v-3.05h.56v2.93Z"/>
          <path class="cls-2" d="M88.2,119.07l-.28-.38,1.94-1.54.46.56-2.11,1.36ZM88.72,125.43v-5.51h.56v5.51h-.56Z"/>
          <path class="cls-2" d="M97.04,119.76c.4,0,.74.09,1.01.27.27.18.47.45.61.82s.2.83.2,1.39v3.19h-.56v-3c0-.75-.1-1.29-.3-1.63s-.55-.51-1.06-.51c-.25,0-.5.07-.75.21s-.46.37-.63.68c-.17.31-.25.73-.25,1.25v3h-.55v-3c0-.75-.13-1.29-.39-1.63s-.59-.51-1-.51c-.25,0-.51.07-.75.2-.25.13-.45.36-.61.67s-.24.74-.24,1.27v3h-.56v-5.51h.56v.89c.04-.14.14-.29.3-.45.15-.16.36-.3.6-.42.25-.12.54-.17.86-.17s.62.08.84.24c.22.16.4.35.52.57.12.22.2.41.22.58.07-.22.19-.43.36-.65.17-.21.39-.39.66-.53s.57-.21.91-.21Z"/>
          <path class="cls-2" d="M101.21,117.51c-.14,0-.26-.05-.35-.14s-.14-.21-.14-.35.05-.26.15-.35c.1-.1.21-.14.35-.14.09,0,.17.02.25.07.08.04.14.1.19.18.05.07.07.16.07.25,0,.14-.05.26-.15.35-.1.1-.22.14-.36.14ZM100.92,125.43v-5.51h.56v5.51h-.56Z"/>
          <path class="cls-2" d="M105.87,125.06c.41,0,.74-.06.99-.19.25-.13.4-.21.45-.26l.32.46s-.13.08-.29.17c-.16.08-.38.17-.64.24-.26.08-.56.11-.89.11-.41,0-.82-.11-1.22-.32-.4-.21-.74-.54-1-.97-.27-.43-.4-.97-.4-1.62s.13-1.19.4-1.62c.27-.43.6-.75,1-.97.4-.21.81-.32,1.22-.32.33,0,.62.04.87.12s.45.17.61.27c.16.1.25.17.29.21l-.31.46s-.12-.1-.23-.19c-.12-.09-.27-.17-.47-.24-.19-.07-.43-.11-.71-.11-.34,0-.67.09-.99.28-.33.18-.6.45-.81.8-.21.35-.32.79-.32,1.3s.11.95.32,1.3c.21.36.48.63.81.81.33.18.66.28.99.28Z"/>
          <path class="cls-2" d="M111.37,125.59c-.55,0-1.03-.13-1.45-.39s-.75-.61-.99-1.05c-.24-.44-.36-.93-.36-1.46s.12-1.03.36-1.47c.24-.44.57-.8.99-1.06.42-.26.9-.4,1.45-.4s1.02.13,1.44.4c.42.26.75.62.98,1.06.24.45.36.94.36,1.47s-.12,1.02-.36,1.46c-.24.44-.56.79-.98,1.05s-.9.39-1.44.39ZM111.37,125.05c.44,0,.83-.1,1.17-.31s.59-.49.78-.85c.18-.36.28-.76.28-1.21s-.09-.85-.28-1.21c-.18-.36-.44-.65-.78-.86s-.72-.32-1.17-.32-.84.11-1.17.32c-.34.21-.6.5-.78.86-.19.36-.28.77-.28,1.21s.09.85.28,1.21c.19.36.45.64.78.85.34.21.73.31,1.17.31Z"/>
          <path class="cls-2" d="M117.37,119.76c.24,0,.47.03.68.08.21.06.4.13.57.21s.29.16.38.23l-.32.42c-.09-.09-.26-.19-.49-.29-.23-.1-.5-.15-.79-.15-.38,0-.7.08-.97.24-.27.16-.4.39-.4.7s.14.52.41.7.62.32,1.05.43c.33.08.62.18.88.31.26.12.46.29.61.49.15.21.22.48.22.81,0,.28-.06.53-.17.73-.11.21-.27.38-.46.51-.2.13-.42.24-.68.31-.25.07-.53.1-.82.1s-.55-.03-.79-.1-.46-.15-.64-.24c-.18-.1-.32-.18-.42-.27l.34-.48c.12.13.31.25.58.38.27.13.59.19.95.19.44,0,.8-.11,1.09-.32.29-.21.43-.48.43-.82,0-.25-.07-.46-.2-.6-.14-.15-.32-.27-.54-.36-.22-.09-.46-.16-.7-.22-.24-.06-.46-.14-.67-.22-.21-.08-.39-.19-.55-.31-.16-.13-.28-.27-.37-.45-.09-.17-.13-.37-.13-.6,0-.29.09-.54.26-.75.17-.21.41-.38.7-.5.29-.12.62-.18.97-.18Z"/>
          <path class="cls-2" d="M123.66,123.33c0-.38.07-.71.22-1s.34-.54.57-.75c.23-.21.47-.39.72-.53.25-.14.49-.25.7-.33.21-.08.38-.14.48-.17-.07-.06-.17-.17-.3-.32-.13-.15-.27-.33-.41-.55-.14-.21-.26-.44-.36-.68-.1-.24-.15-.49-.15-.73,0-.35.1-.67.29-.95.19-.28.45-.5.77-.66.32-.16.68-.24,1.08-.24.42,0,.78.08,1.09.24.31.16.55.38.72.66.17.28.25.6.25.95,0,.42-.09.77-.27,1.07-.18.3-.4.54-.66.73s-.5.34-.73.45c-.23.11-.39.18-.48.21l2.33,2.58c.1-.13.24-.31.4-.55.17-.24.32-.5.46-.79l.4.3c-.04.1-.11.24-.22.42s-.23.36-.36.53c-.13.17-.24.31-.33.42l1.69,1.8h-.74l-1.32-1.44c-.24.25-.52.5-.86.74-.33.24-.71.45-1.13.61-.42.16-.88.24-1.39.24s-.94-.1-1.31-.29c-.37-.19-.66-.46-.87-.8-.21-.34-.31-.73-.31-1.17ZM126.69,120.93c-.09.02-.24.07-.43.14-.19.07-.41.16-.64.28-.23.12-.46.27-.67.46-.21.18-.39.4-.53.65-.14.25-.21.54-.21.86,0,.38.09.71.28.97.19.26.43.46.72.59.3.13.62.2.96.2.42,0,.83-.08,1.22-.24.39-.16.74-.35,1.06-.57s.56-.43.74-.64l-2.5-2.71ZM127.27,116.92c-.34,0-.62.07-.86.2-.23.13-.41.3-.54.51-.13.21-.19.42-.19.63s.06.46.17.69c.12.24.25.46.4.67.15.21.29.38.42.51.13.13.2.21.21.23.12-.03.29-.09.5-.19.21-.09.43-.22.65-.39.22-.17.41-.37.56-.63s.23-.55.23-.9c0-.38-.15-.7-.44-.95s-.67-.38-1.12-.38Z"/>
          <path class="cls-2" d="M134.69,117.11h-2.59v-.54h5.74v.54h-2.59v8.32h-.56v-8.32Z"/>
          <path class="cls-2" d="M139.37,125.43h-.55v-5.51h.55v1.02h-.03c.02-.12.1-.27.24-.46.14-.19.34-.35.59-.5s.55-.22.88-.22c.26,0,.48.03.66.1.18.07.31.13.37.19l-.25.49c-.06-.05-.17-.11-.33-.16-.16-.06-.35-.08-.57-.08-.31,0-.58.11-.81.33-.24.22-.42.48-.55.77-.13.3-.19.57-.19.82v3.22Z"/>
          <path class="cls-2" d="M147.4,125.43v-1.19c-.03.12-.13.29-.31.51s-.43.41-.74.59c-.32.17-.7.26-1.13.26-.49,0-.95-.11-1.37-.34-.42-.23-.76-.56-1.02-.99-.26-.44-.39-.96-.39-1.58s.13-1.14.39-1.58.6-.77,1.02-1c.42-.23.88-.34,1.37-.34.43,0,.81.08,1.13.25s.57.36.75.57c.18.21.28.39.3.53v-1.19h.55v5.51h-.55ZM143.01,122.68c0,.5.11.92.32,1.28.21.36.49.63.83.82s.7.28,1.07.28c.41,0,.78-.1,1.1-.29s.58-.47.76-.83.28-.78.28-1.27-.09-.91-.28-1.27c-.19-.36-.44-.63-.76-.83s-.69-.29-1.1-.29c-.37,0-.73.1-1.07.28-.34.19-.62.46-.83.82-.21.36-.32.78-.32,1.28Z"/>
          <path class="cls-2" d="M149.24,119.92h1.18v-2.26h.56v2.26h1.54v.54h-1.54v3.53c0,.39.07.67.22.83.15.16.32.24.53.24s.35-.03.45-.1c.1-.07.16-.12.18-.14l.3.45s-.08.06-.16.11-.19.1-.33.15c-.14.04-.31.07-.51.07-.34,0-.64-.11-.88-.34-.24-.23-.36-.6-.36-1.11v-3.68h-1.18v-.54Z"/>
          <path class="cls-2" d="M158.38,125.43v-1.19c-.03.12-.13.29-.31.51s-.43.41-.74.59c-.32.17-.7.26-1.13.26-.49,0-.95-.11-1.37-.34-.42-.23-.76-.56-1.02-.99-.26-.44-.39-.96-.39-1.58s.13-1.14.39-1.58.6-.77,1.02-1c.42-.23.88-.34,1.37-.34.43,0,.81.08,1.13.25s.57.36.75.57c.18.21.28.39.3.53v-1.19h.55v5.51h-.55ZM153.98,122.68c0,.5.11.92.32,1.28.21.36.49.63.83.82s.7.28,1.07.28c.41,0,.78-.1,1.1-.29s.58-.47.76-.83.28-.78.28-1.27-.09-.91-.28-1.27c-.19-.36-.44-.63-.76-.83s-.69-.29-1.1-.29c-.37,0-.73.1-1.07.28-.34.19-.62.46-.83.82-.21.36-.32.78-.32,1.28Z"/>
          <path class="cls-2" d="M166.62,119.76c.4,0,.74.09,1.01.27.27.18.47.45.61.82s.2.83.2,1.39v3.19h-.56v-3c0-.75-.1-1.29-.3-1.63s-.55-.51-1.06-.51c-.25,0-.5.07-.75.21s-.46.37-.63.68c-.17.31-.25.73-.25,1.25v3h-.55v-3c0-.75-.13-1.29-.39-1.63s-.59-.51-1-.51c-.25,0-.51.07-.75.2-.25.13-.45.36-.61.67s-.24.74-.24,1.27v3h-.56v-5.51h.56v.89c.04-.14.14-.29.3-.45.15-.16.36-.3.6-.42.25-.12.54-.17.86-.17s.62.08.84.24c.22.16.4.35.52.57.12.22.2.41.22.58.07-.22.19-.43.36-.65.17-.21.39-.39.66-.53s.57-.21.91-.21Z"/>
          <path class="cls-2" d="M170.79,117.51c-.14,0-.26-.05-.35-.14s-.14-.21-.14-.35.05-.26.15-.35c.1-.1.21-.14.35-.14.09,0,.17.02.25.07.08.04.14.1.19.18.05.07.07.16.07.25,0,.14-.05.26-.15.35-.1.1-.22.14-.36.14ZM170.5,125.43v-5.51h.56v5.51h-.56Z"/>
          <path class="cls-2" d="M173.27,122.68c0,.42.08.81.23,1.17.16.37.4.66.72.89s.73.34,1.21.34c.39,0,.72-.06.98-.19.26-.13.46-.28.61-.46.15-.18.26-.34.32-.47l.42.35c-.17.28-.36.51-.58.7-.22.19-.47.34-.76.43-.29.1-.63.14-1.02.14-.58,0-1.07-.13-1.47-.4-.4-.27-.71-.63-.92-1.08-.21-.45-.31-.95-.31-1.5s.1-1.02.31-1.45c.21-.43.51-.77.91-1.02.4-.25.88-.38,1.45-.38.5,0,.94.12,1.31.35s.67.55.88.95c.21.4.31.86.31,1.38,0,.04,0,.08,0,.13,0,.05,0,.09,0,.12h-4.59ZM177.29,122.17c0-.27-.07-.55-.19-.85-.12-.3-.32-.55-.59-.75s-.65-.31-1.13-.31c-.51,0-.9.1-1.2.3s-.51.45-.64.74c-.13.3-.21.59-.24.87h3.98Z"/>
          <path class="cls-2" d="M181.92,119.76c.34,0,.67.07,1,.22.33.15.59.38.8.7.21.32.32.74.32,1.25v3.49h-.58v-3.33c0-.65-.15-1.12-.46-1.4s-.69-.42-1.15-.42c-.31,0-.61.09-.9.27-.29.18-.53.43-.71.74-.19.31-.28.66-.28,1.04v3.1h-.56v-5.51h.56v1.1c.03-.16.13-.34.32-.54.18-.2.42-.37.71-.51s.6-.21.94-.21Z"/>
          <path class="cls-2" d="M185.34,119.92h1.18v-2.26h.56v2.26h1.54v.54h-1.54v3.53c0,.39.07.67.22.83.15.16.32.24.53.24s.35-.03.45-.1c.1-.07.16-.12.18-.14l.3.45s-.08.06-.16.11-.19.1-.33.15c-.14.04-.31.07-.51.07-.34,0-.64-.11-.88-.34-.24-.23-.36-.6-.36-1.11v-3.68h-1.18v-.54Z"/>
          <path class="cls-2" d="M192.32,125.59c-.55,0-1.03-.13-1.45-.39s-.75-.61-.99-1.05c-.24-.44-.36-.93-.36-1.46s.12-1.03.36-1.47c.24-.44.57-.8.99-1.06.42-.26.9-.4,1.45-.4s1.02.13,1.44.4c.42.26.75.62.98,1.06.24.45.36.94.36,1.47s-.12,1.02-.36,1.46c-.24.44-.56.79-.98,1.05s-.9.39-1.44.39ZM192.32,125.05c.44,0,.83-.1,1.17-.31s.59-.49.78-.85c.18-.36.28-.76.28-1.21s-.09-.85-.28-1.21c-.18-.36-.44-.65-.78-.86s-.72-.32-1.17-.32-.84.11-1.17.32c-.34.21-.6.5-.78.86-.19.36-.28.77-.28,1.21s.09.85.28,1.21c.19.36.45.64.78.85.34.21.73.31,1.17.31Z"/>
          <path class="cls-2" d="M202.22,125.59c-.49,0-.94-.11-1.34-.34s-.72-.56-.96-.99c-.24-.44-.36-.96-.36-1.58s.12-1.14.36-1.58c.24-.44.56-.77.96-1s.85-.34,1.34-.34c.44,0,.83.08,1.16.24.34.16.6.35.8.56.19.21.3.39.31.55v-4.92h.58v9.23h-.56v-1.19c-.02.14-.13.32-.32.53-.2.21-.46.41-.8.57s-.73.25-1.16.25ZM202.23,125.06c.41,0,.79-.1,1.13-.29s.62-.47.82-.83.31-.78.31-1.27-.1-.91-.31-1.27c-.2-.36-.48-.63-.82-.83s-.72-.29-1.13-.29c-.37,0-.71.1-1.03.28-.32.19-.58.46-.78.82s-.29.78-.29,1.28.1.92.29,1.28c.2.36.46.63.78.82.32.19.67.28,1.03.28Z"/>
          <path class="cls-2" d="M206.6,122.68c0,.42.08.81.23,1.17.16.37.4.66.72.89s.73.34,1.21.34c.39,0,.72-.06.98-.19.26-.13.46-.28.61-.46.15-.18.26-.34.32-.47l.42.35c-.17.28-.36.51-.58.7-.22.19-.47.34-.76.43-.29.1-.63.14-1.02.14-.58,0-1.07-.13-1.47-.4-.4-.27-.71-.63-.92-1.08-.21-.45-.31-.95-.31-1.5s.1-1.02.31-1.45c.21-.43.51-.77.91-1.02.4-.25.88-.38,1.45-.38.5,0,.94.12,1.31.35s.67.55.88.95c.21.4.31.86.31,1.38,0,.04,0,.08,0,.13,0,.05,0,.09,0,.12h-4.59ZM210.62,122.17c0-.27-.07-.55-.19-.85-.12-.3-.32-.55-.59-.75s-.65-.31-1.13-.31c-.51,0-.9.1-1.2.3s-.51.45-.64.74c-.13.3-.21.59-.24.87h3.98Z"/>
          <path class="cls-2" d="M220.39,125.43v-1.19c-.03.12-.13.29-.31.51s-.43.41-.74.59c-.32.17-.7.26-1.13.26-.49,0-.95-.11-1.37-.34-.42-.23-.76-.56-1.02-.99-.26-.44-.39-.96-.39-1.58s.13-1.14.39-1.58.6-.77,1.02-1c.42-.23.88-.34,1.37-.34.43,0,.81.08,1.13.25s.57.36.75.57c.18.21.28.39.3.53v-1.19h.55v5.51h-.55ZM215.99,122.68c0,.5.11.92.32,1.28.21.36.49.63.83.82s.7.28,1.07.28c.41,0,.78-.1,1.1-.29s.58-.47.76-.83.28-.78.28-1.27-.09-.91-.28-1.27c-.19-.36-.44-.63-.76-.83s-.69-.29-1.1-.29c-.37,0-.73.1-1.07.28-.34.19-.62.46-.83.82-.21.36-.32.78-.32,1.28Z"/>
          <path class="cls-2" d="M227.21,125.43v-1.19c-.03.12-.13.29-.31.51s-.43.41-.74.59c-.32.17-.7.26-1.13.26-.49,0-.95-.11-1.37-.34-.42-.23-.76-.56-1.02-.99-.26-.44-.39-.96-.39-1.58s.13-1.14.39-1.58.6-.77,1.02-1c.42-.23.88-.34,1.37-.34.43,0,.81.08,1.13.25s.57.36.75.57c.18.21.28.39.3.53v-1.19h.55v5.51h-.55ZM225.13,128.37c-.47,0-.87-.05-1.2-.15-.33-.1-.6-.24-.82-.4-.22-.16-.38-.33-.49-.51l.47-.38c.07.11.18.24.32.38s.35.27.62.37c.27.1.64.16,1.1.16s.84-.11,1.15-.32.54-.49.7-.84c.16-.35.23-.73.23-1.13v-.21h.55v.25c0,.6-.12,1.11-.36,1.52-.24.41-.55.73-.95.94-.4.21-.84.32-1.32.32ZM222.82,122.68c0,.5.11.92.32,1.28.21.36.49.63.83.82s.7.28,1.07.28c.41,0,.78-.1,1.1-.29s.58-.47.76-.83.28-.78.28-1.27-.09-.91-.28-1.27c-.19-.36-.44-.63-.76-.83s-.69-.29-1.1-.29c-.37,0-.73.1-1.07.28-.34.19-.62.46-.83.82-.21.36-.32.78-.32,1.28Z"/>
          <path class="cls-2" d="M230.09,122.85c0,.68.15,1.21.45,1.61s.75.59,1.36.59,1.06-.2,1.36-.59c.3-.4.45-.93.45-1.61v-2.93h.56v3.05c0,.5-.09.95-.28,1.34-.19.4-.45.71-.81.93-.35.23-.78.34-1.29.34s-.93-.11-1.29-.34c-.35-.23-.62-.54-.81-.93-.19-.4-.28-.84-.28-1.34v-3.05h.56v2.93Z"/>
          <path class="cls-2" d="M240.63,125.43v-1.19c-.03.12-.13.29-.31.51s-.43.41-.74.59c-.32.17-.7.26-1.13.26-.49,0-.95-.11-1.37-.34-.42-.23-.76-.56-1.02-.99-.26-.44-.39-.96-.39-1.58s.13-1.14.39-1.58.6-.77,1.02-1c.42-.23.88-.34,1.37-.34.43,0,.81.08,1.13.25s.57.36.75.57c.18.21.28.39.3.53v-1.19h.55v5.51h-.55ZM236.24,122.68c0,.5.11.92.32,1.28.21.36.49.63.83.82s.7.28,1.07.28c.41,0,.78-.1,1.1-.29s.58-.47.76-.83.28-.78.28-1.27-.09-.91-.28-1.27c-.19-.36-.44-.63-.76-.83s-.69-.29-1.1-.29c-.37,0-.73.1-1.07.28-.34.19-.62.46-.83.82-.21.36-.32.78-.32,1.28Z"/>
        </g>
        <g>
          <path class="cls-2" d="M136.63,30.41c2.9,3.09,4.34,7.37,4.34,12.84,0,1.91-.2,4.02-.59,6.32l-5.63,32.29h-21.82l5.13-29.52c.13-1.05.2-1.78.2-2.17,0-2.04-.56-3.62-1.68-4.74-1.12-1.12-2.7-1.68-4.74-1.68-2.24,0-4.16.66-5.78,1.97-1.61,1.32-2.75,3.16-3.41,5.53l-5.33,30.61h-21.92l12.84-73.06h21.92l-4.54,25.77c2.24-2.63,4.94-4.75,8.1-6.37,3.16-1.61,6.68-2.42,10.56-2.42,5.33,0,9.44,1.55,12.34,4.64Z"/>
          <path class="cls-2" d="M204.76,31.1c3.42,3.75,5.13,8.95,5.13,15.6,0,2.5-.23,4.94-.69,7.31-1.05,5.86-2.96,10.94-5.73,15.25-2.76,4.31-6.09,7.6-9.97,9.87-3.88,2.27-8,3.41-12.34,3.41-3.62,0-6.6-.74-8.94-2.22-2.34-1.48-3.97-3.51-4.89-6.07l-6.02,34.26h-21.92l14.51-82.35h21.92l-1.38,7.6c1.84-2.57,4.2-4.59,7.06-6.07,2.86-1.48,6.1-2.22,9.73-2.22,5.59,0,10.1,1.88,13.53,5.63ZM183.48,60.92c1.81-1.64,2.98-3.95,3.51-6.91.13-.59.2-1.38.2-2.37,0-2.24-.59-3.96-1.78-5.18-1.18-1.22-2.8-1.83-4.84-1.83-2.37,0-4.46.82-6.27,2.47-1.81,1.65-2.98,3.95-3.51,6.91-.13.59-.2,1.38-.2,2.37,0,2.24.59,3.97,1.78,5.18,1.18,1.22,2.8,1.83,4.84,1.83,2.37,0,4.46-.82,6.27-2.47Z"/>
          <path class="cls-2" d="M243.07,26.16l-9.77,55.69h-21.92l9.77-55.69h21.92ZM223.97,6.37c1.28-1.94,3.06-3.49,5.33-4.64,2.27-1.15,4.79-1.73,7.55-1.73,3.36,0,5.99.84,7.9,2.52,1.91,1.68,2.86,3.84,2.86,6.47,0,2.3-.63,4.43-1.88,6.37-1.25,1.94-3,3.49-5.23,4.64-2.24,1.15-4.74,1.73-7.5,1.73-3.42,0-6.11-.84-8.05-2.52-1.94-1.68-2.91-3.83-2.91-6.47,0-2.3.64-4.43,1.93-6.37Z"/>
          <g>
            <path class="cls-3" d="M44.17,8.79c-9.46,0-17.63,5.5-21.48,13.48,7.48,2.56,12.85,9.65,12.85,17.99,0,4.68-1.7,8.97-4.5,12.28,3.77,2.49,8.28,3.94,13.13,3.94,13.17,0,23.85-10.68,23.85-23.85s-10.68-23.85-23.85-23.85Z"/>
            <circle class="cls-1" cx="16.08" cy="40.4" r="16.08"/>
            <path class="cls-1" d="M44.31,59.63c-5.37,0-10.37-1.53-14.61-4.18-1.34,2.41-2.11,5.18-2.11,8.13,0,9.24,7.49,16.72,16.72,16.72s16.72-7.49,16.72-16.72c0-2.95-.77-5.72-2.11-8.13-4.24,2.65-9.25,4.18-14.61,4.18Z"/>
          </g>
        </g>
      </g>
    </g>
  </g>
</svg>