<svg width="56" height="56" viewBox="0 0 56 56" fill="none" xmlns="http://www.w3.org/2000/svg">
<circle cx="28" cy="28" r="28" fill="#FF5E14"/>
<mask id="mask0_74_440" style="mask-type:alpha" maskUnits="userSpaceOnUse" x="12" y="12" width="32" height="32">
<rect x="12" y="12" width="32" height="32" fill="#D9D9D9"/>
</mask>
<g mask="url(#mask0_74_440)">
<path d="M12 36V33.9C12 32.9444 12.4889 32.1667 13.4667 31.5667C14.4444 30.9667 15.7333 30.6667 17.3333 30.6667C17.6222 30.6667 17.9 30.6722 18.1667 30.6833C18.4333 30.6944 18.6889 30.7222 18.9333 30.7667C18.6222 31.2333 18.3889 31.7222 18.2333 32.2333C18.0778 32.7444 18 33.2778 18 33.8333V36H12ZM20 36V33.8333C20 33.1222 20.1944 32.4722 20.5833 31.8833C20.9722 31.2944 21.5222 30.7778 22.2333 30.3333C22.9444 29.8889 23.7944 29.5556 24.7833 29.3333C25.7722 29.1111 26.8444 29 28 29C29.1778 29 30.2611 29.1111 31.25 29.3333C32.2389 29.5556 33.0889 29.8889 33.8 30.3333C34.5111 30.7778 35.0556 31.2944 35.4333 31.8833C35.8111 32.4722 36 33.1222 36 33.8333V36H20ZM38 36V33.8333C38 33.2556 37.9278 32.7111 37.7833 32.2C37.6389 31.6889 37.4222 31.2111 37.1333 30.7667C37.3778 30.7222 37.6278 30.6944 37.8833 30.6833C38.1389 30.6722 38.4 30.6667 38.6667 30.6667C40.2667 30.6667 41.5556 30.9611 42.5333 31.55C43.5111 32.1389 44 32.9222 44 33.9V36H38ZM22.8333 33.3333H33.2C32.9778 32.8889 32.3611 32.5 31.35 32.1667C30.3389 31.8333 29.2222 31.6667 28 31.6667C26.7778 31.6667 25.6611 31.8333 24.65 32.1667C23.6389 32.5 23.0333 32.8889 22.8333 33.3333ZM17.3333 29.3333C16.6 29.3333 15.9722 29.0722 15.45 28.55C14.9278 28.0278 14.6667 27.4 14.6667 26.6667C14.6667 25.9111 14.9278 25.2778 15.45 24.7667C15.9722 24.2556 16.6 24 17.3333 24C18.0889 24 18.7222 24.2556 19.2333 24.7667C19.7444 25.2778 20 25.9111 20 26.6667C20 27.4 19.7444 28.0278 19.2333 28.55C18.7222 29.0722 18.0889 29.3333 17.3333 29.3333ZM38.6667 29.3333C37.9333 29.3333 37.3056 29.0722 36.7833 28.55C36.2611 28.0278 36 27.4 36 26.6667C36 25.9111 36.2611 25.2778 36.7833 24.7667C37.3056 24.2556 37.9333 24 38.6667 24C39.4222 24 40.0556 24.2556 40.5667 24.7667C41.0778 25.2778 41.3333 25.9111 41.3333 26.6667C41.3333 27.4 41.0778 28.0278 40.5667 28.55C40.0556 29.0722 39.4222 29.3333 38.6667 29.3333ZM28 28C26.8889 28 25.9444 27.6111 25.1667 26.8333C24.3889 26.0556 24 25.1111 24 24C24 22.8667 24.3889 21.9167 25.1667 21.15C25.9444 20.3833 26.8889 20 28 20C29.1333 20 30.0833 20.3833 30.85 21.15C31.6167 21.9167 32 22.8667 32 24C32 25.1111 31.6167 26.0556 30.85 26.8333C30.0833 27.6111 29.1333 28 28 28ZM28 25.3333C28.3778 25.3333 28.6944 25.2056 28.95 24.95C29.2056 24.6944 29.3333 24.3778 29.3333 24C29.3333 23.6222 29.2056 23.3056 28.95 23.05C28.6944 22.7944 28.3778 22.6667 28 22.6667C27.6222 22.6667 27.3056 22.7944 27.05 23.05C26.7944 23.3056 26.6667 23.6222 26.6667 24C26.6667 24.3778 26.7944 24.6944 27.05 24.95C27.3056 25.2056 27.6222 25.3333 28 25.3333Z" fill="white"/>
</g>
</svg>
