<svg width="49" height="48" viewBox="0 0 49 48" fill="none" xmlns="http://www.w3.org/2000/svg">
<path d="M34.3335 41.9996C31.0261 41.9966 27.7701 41.1792 24.8535 39.6196L23.9535 39.1196C17.735 35.7762 12.6369 30.678 9.2935 24.4596L8.7935 23.5596C7.19314 20.6264 6.34776 17.341 6.3335 13.9996V12.6596C6.33266 11.5935 6.75742 10.5712 7.5135 9.81956L10.8935 6.43956C11.2218 6.10876 11.6851 5.94932 12.1474 6.00808C12.6097 6.06684 13.0185 6.33716 13.2535 6.73956L17.7535 14.4596C18.2086 15.2453 18.0772 16.2391 17.4335 16.8796L13.6535 20.6596C13.3396 20.97 13.2664 21.4496 13.4735 21.8396L14.1735 23.1596C16.6876 27.8164 20.5121 31.634 25.1735 34.1396L26.4935 34.8596C26.8835 35.0666 27.3631 34.9934 27.6735 34.6796L31.4535 30.8996C32.0939 30.256 33.0877 30.1246 33.8735 30.5796L41.5935 35.0796C41.9959 35.3146 42.2663 35.7234 42.3249 36.1856C42.3837 36.648 42.2243 37.1114 41.8935 37.4396L38.5135 40.8196C37.7619 41.5756 36.7395 42.0004 35.6735 41.9996H34.3335Z" fill="#FF5E14"/>
</svg>
