<svg width="25" height="25" viewBox="0 0 25 25" fill="none" xmlns="http://www.w3.org/2000/svg">
<path fill-rule="evenodd" clip-rule="evenodd" d="M4.8335 3.77148C4.00507 3.77148 3.3335 4.44305 3.3335 5.27148V20.2715C3.3335 21.0999 4.00507 21.7715 4.8335 21.7715H19.8335C20.6619 21.7715 21.3335 21.0999 21.3335 20.2715V5.27148C21.3335 4.44305 20.6619 3.77148 19.8335 3.77148H4.8335ZM8.85426 7.7742C8.85989 8.73045 8.14411 9.31967 7.29473 9.31545C6.49457 9.31123 5.79707 8.6742 5.80129 7.77561C5.80551 6.93045 6.47348 6.25123 7.34114 6.27092C8.22145 6.29061 8.85989 6.93608 8.85426 7.7742ZM12.6132 10.5332H10.0932H10.0918V19.0931H12.7552V18.8934C12.7552 18.5135 12.7549 18.1335 12.7546 17.7534C12.7538 16.7396 12.7529 15.7247 12.7581 14.7112C12.7595 14.4651 12.7707 14.2092 12.834 13.9743C13.0716 13.0968 13.8606 12.5301 14.7409 12.6694C15.3062 12.7579 15.6802 13.0856 15.8377 13.6186C15.9348 13.9518 15.9784 14.3104 15.9826 14.6578C15.994 15.7054 15.9924 16.753 15.9908 17.8007C15.9902 18.1705 15.9896 18.5405 15.9896 18.9103V19.0917H18.6615V18.8864C18.6615 18.4344 18.6613 17.9825 18.661 17.5306C18.6605 16.4011 18.6599 15.2716 18.6629 14.1417C18.6643 13.6312 18.6095 13.1278 18.4843 12.6342C18.2973 11.9001 17.9106 11.2926 17.282 10.8539C16.8362 10.5417 16.3468 10.3406 15.7998 10.3181C15.7375 10.3155 15.6747 10.3121 15.6116 10.3087C15.3319 10.2936 15.0476 10.2782 14.7802 10.3321C14.0152 10.4854 13.3431 10.8356 12.8354 11.4529C12.7764 11.5237 12.7187 11.5956 12.6326 11.7029L12.6132 11.7272V10.5332ZM6.01514 19.0959H8.66592V10.5388H6.01514V19.0959Z" fill="#FF5E14"/>
</svg>
