<svg width="24" height="25" viewBox="0 0 24 25" fill="none" xmlns="http://www.w3.org/2000/svg">
<path d="M14.3088 16.0737C14.8327 16.2483 15.399 15.9652 15.5737 15.4412C15.7483 14.9173 15.4652 14.351 14.9412 14.1763L14.3088 16.0737ZM11.25 14H10.25C10.25 14.4304 10.5254 14.8126 10.9338 14.9487L11.25 14ZM12.25 9.29587C12.25 8.74358 11.8023 8.29587 11.25 8.29587C10.6977 8.29587 10.25 8.74358 10.25 9.29587H12.25ZM19.25 12.875C19.25 13.4273 19.6977 13.875 20.25 13.875C20.8023 13.875 21.25 13.4273 21.25 12.875H19.25ZM19.9116 17.8757C20.1881 17.3977 20.0247 16.7859 19.5467 16.5094C19.0686 16.2329 18.4569 16.3962 18.1804 16.8743L19.9116 17.8757ZM18.4882 11.1802C18.0976 10.7897 17.4645 10.7897 17.0739 11.1802C16.6834 11.5708 16.6834 12.2039 17.0739 12.5945L18.4882 11.1802ZM20.0311 14.1373L19.3239 14.8445C19.7145 15.235 20.3476 15.235 20.7382 14.8445L20.0311 14.1373ZM22.9882 12.5945C23.3787 12.2039 23.3787 11.5708 22.9882 11.1802C22.5976 10.7897 21.9645 10.7897 21.5739 11.1802L22.9882 12.5945ZM14.9412 14.1763L11.5662 13.0513L10.9338 14.9487L14.3088 16.0737L14.9412 14.1763ZM12.25 14V9.29587H10.25V14H12.25ZM11.25 20.875C6.83172 20.875 3.25 17.2933 3.25 12.875H1.25C1.25 18.3978 5.72715 22.875 11.25 22.875V20.875ZM3.25 12.875C3.25 8.45672 6.83172 4.875 11.25 4.875V2.875C5.72715 2.875 1.25 7.35215 1.25 12.875H3.25ZM11.25 4.875C15.6683 4.875 19.25 8.45672 19.25 12.875H21.25C21.25 7.35215 16.7728 2.875 11.25 2.875V4.875ZM18.1804 16.8743C16.7956 19.2681 14.2099 20.875 11.25 20.875V22.875C14.9527 22.875 18.184 20.8621 19.9116 17.8757L18.1804 16.8743ZM17.0739 12.5945L19.3239 14.8445L20.7382 13.4302L18.4882 11.1802L17.0739 12.5945ZM20.7382 14.8445L22.9882 12.5945L21.5739 11.1802L19.3239 13.4302L20.7382 14.8445Z" fill="#FF5E14"/>
</svg>
