<svg width="24" height="25" viewBox="0 0 24 25" fill="none" xmlns="http://www.w3.org/2000/svg">
<path d="M19.9333 20.2751L20.6341 20.9885C20.7159 20.9082 20.7833 20.8143 20.8333 20.711L19.9333 20.2751ZM18.4907 21.7467L19.2204 22.4305C19.2313 22.4189 19.2419 22.407 19.2523 22.3949L18.4907 21.7467ZM16.5581 22.4689L16.6245 21.4711L16.6218 21.4709L16.5581 22.4689ZM12.9859 21.3994L12.5509 22.2998L12.5552 22.3019L12.9859 21.3994ZM6.22631 16.1161L5.45734 16.7554L5.4604 16.759L6.22631 16.1161ZM2.92893 10.6363L3.86653 10.2885L3.86549 10.2857L2.92893 10.6363ZM2.416 7.77522L1.41964 7.68989L1.41936 7.69336L2.416 7.77522ZM3.048 6.41783L3.75438 7.12566H3.75438L3.048 6.41783ZM4.60968 4.85934L3.92599 4.12957C3.91831 4.13677 3.91074 4.14408 3.90329 4.15151L4.60968 4.85934ZM5.97443 4.85477L5.26804 5.5626L5.97443 4.85477ZM5.98817 4.86848L5.28178 5.57631C5.28978 5.58429 5.29791 5.59213 5.30617 5.59984L5.98817 4.86848ZM6.81251 5.68657L6.0948 6.38292L6.09498 6.3831L6.81251 5.68657ZM7.24758 6.1299L6.53039 6.82678C6.53397 6.83045 6.53757 6.8341 6.5412 6.83773L7.24758 6.1299ZM8.49784 7.3776L7.79146 8.08543L8.49784 7.3776ZM8.10399 9.18745L7.41013 8.46734C7.40309 8.47412 7.39616 8.481 7.38932 8.48798L8.10399 9.18745ZM7.62306 9.63541L6.95627 8.89016C6.94273 8.90227 6.92953 8.91475 6.91667 8.92758L7.62306 9.63541ZM7.60016 9.65826L8.30654 10.3661C8.38267 10.2901 8.44604 10.2024 8.49422 10.1062L7.60016 9.65826ZM7.36201 10.6957L6.40861 10.9974C6.41021 11.0025 6.41185 11.0075 6.41353 11.0125L7.36201 10.6957ZM7.37575 10.7369L6.42726 11.0537C6.43464 11.0758 6.44279 11.0976 6.45169 11.1191L7.37575 10.7369ZM8.855 13.1454L8.07 13.7649C8.09444 13.7959 8.12069 13.8254 8.14861 13.8533L8.855 13.1454ZM8.85958 13.15L9.63534 12.519C9.61355 12.4922 9.5904 12.4666 9.56596 12.4422L8.85958 13.15ZM12.9263 16.8428L13.4611 15.9978L13.4601 15.9972L12.9263 16.8428ZM13.943 17.3913L13.4165 18.2414C13.4425 18.2575 13.4692 18.2724 13.4966 18.2861L13.943 17.3913ZM13.998 17.4233L14.4445 16.5285L13.998 17.4233ZM16.0452 16.3263L15.3388 15.6185L16.0452 16.3263ZM17.3962 16.3172L16.6579 16.9917C16.6683 17.003 16.6789 17.0142 16.6898 17.025L17.3962 16.3172ZM17.4054 16.3263L18.1117 15.6185L18.1117 15.6185L17.4054 16.3263ZM19.9288 18.8446L19.2224 19.5524L19.2258 19.5558L19.9288 18.8446ZM13.0368 6.21312C12.4921 6.12184 11.9765 6.48939 11.8852 7.03408C11.7939 7.57877 12.1615 8.09433 12.7062 8.18561L13.0368 6.21312ZM16.6855 12.1587C16.7792 12.703 17.2963 13.0683 17.8406 12.9746C18.3849 12.8809 18.7502 12.3638 18.6565 11.8195L16.6855 12.1587ZM13.2215 2.28745C12.6769 2.19532 12.1608 2.56208 12.0687 3.10663C11.9766 3.65117 12.3433 4.1673 12.8879 4.25943L13.2215 2.28745ZM18.6831 6.18474L19.3895 5.47691L19.3885 5.47587L18.6831 6.18474ZM20.6145 11.9692C20.707 12.5137 21.2234 12.8801 21.7679 12.7876C22.3123 12.6951 22.6788 12.1787 22.5863 11.6342L20.6145 11.9692ZM19.9333 20.2751C19.2326 19.5617 19.2326 19.5617 19.2326 19.5617C19.2326 19.5617 19.2326 19.5617 19.2325 19.5617C19.2325 19.5618 19.2324 19.5619 19.2323 19.5619C19.2322 19.5621 19.2319 19.5623 19.2316 19.5626C19.231 19.5632 19.2302 19.5641 19.229 19.5652C19.2267 19.5675 19.2234 19.5708 19.219 19.5751C19.2102 19.5837 19.1974 19.5963 19.1811 19.6124C19.1484 19.6446 19.1015 19.6909 19.0444 19.7474C18.9303 19.8603 18.7749 20.0147 18.6103 20.1798C18.2964 20.4947 17.9027 20.8948 17.7292 21.0986L19.2523 22.3949C19.3627 22.2651 19.6903 21.9294 20.0268 21.5918C20.1873 21.4307 20.3393 21.2797 20.4513 21.1689C20.5073 21.1135 20.5531 21.0682 20.5849 21.0369C20.6008 21.0212 20.6132 21.0091 20.6215 21.0008C20.6257 20.9967 20.6289 20.9936 20.631 20.9915C20.6321 20.9905 20.6328 20.9897 20.6334 20.9892C20.6336 20.989 20.6338 20.9888 20.6339 20.9887C20.634 20.9886 20.634 20.9886 20.634 20.9886C20.6341 20.9885 20.6341 20.9885 20.6341 20.9885C20.6341 20.9885 20.6341 20.9885 19.9333 20.2751ZM17.7611 21.063C17.4959 21.346 17.2191 21.4734 16.7688 21.4734V23.4734C17.7473 23.4734 18.5605 23.1347 19.2204 22.4305L17.7611 21.063ZM16.7688 21.4734C16.6935 21.4734 16.6542 21.473 16.6245 21.4711L16.4917 23.4667C16.5994 23.4738 16.7066 23.4734 16.7688 23.4734V21.4734ZM16.6218 21.4709C15.4621 21.3969 14.3424 20.9388 13.4167 20.4969L12.5552 22.3019C13.5255 22.765 14.9338 23.3672 16.4944 23.4668L16.6218 21.4709ZM13.4209 20.499C10.9586 19.3094 8.79461 17.6203 6.99223 15.4731L5.4604 16.759C7.44084 19.1183 9.82902 20.9848 12.5509 22.2998L13.4209 20.499ZM6.99527 15.4768C5.49023 13.6665 4.51104 12.0264 3.86653 10.2885L1.99133 10.984C2.72988 12.9755 3.83904 14.8089 5.45735 16.7554L6.99527 15.4768ZM3.86549 10.2857C3.4712 9.23222 3.35994 8.49879 3.41265 7.85708L1.41936 7.69336C1.33467 8.72439 1.53484 9.76426 1.99237 10.9868L3.86549 10.2857ZM3.41235 7.86055C3.43805 7.56058 3.5417 7.3379 3.75438 7.12566L2.34162 5.71C1.79407 6.25643 1.48555 6.9204 1.41965 7.68989L3.41235 7.86055ZM3.75438 7.12566L5.31606 5.56717L3.90329 4.15151L2.34162 5.71L3.75438 7.12566ZM5.29337 5.58911C5.34439 5.54132 5.37474 5.52559 5.37938 5.52341C5.38185 5.52225 5.35528 5.53485 5.30579 5.53485V3.53485C4.73564 3.53485 4.26501 3.81195 3.92599 4.12957L5.29337 5.58911ZM5.30579 5.53485C5.27654 5.53485 5.25244 5.53032 5.23577 5.52554C5.21991 5.52099 5.21241 5.51672 5.21338 5.51725C5.21449 5.51786 5.22086 5.52155 5.23182 5.53014C5.24265 5.53863 5.25497 5.54956 5.26804 5.5626L6.68081 4.14694C6.47181 3.93837 5.99483 3.53485 5.30579 3.53485V5.53485ZM5.26804 5.5626C5.27032 5.56488 5.27261 5.56715 5.2749 5.56944C5.27718 5.57172 5.27948 5.57402 5.28178 5.57631L6.69455 4.16065C6.69227 4.15838 6.68999 4.1561 6.6877 4.15382C6.68541 4.15153 6.68311 4.14924 6.68081 4.14694L5.26804 5.5626ZM5.30617 5.59984C5.56621 5.84233 5.81734 6.09695 6.0948 6.38292L7.53022 4.99023C7.24896 4.70034 6.96884 4.41565 6.67016 4.13713L5.30617 5.59984ZM6.09498 6.3831C6.16924 6.4596 6.24419 6.53557 6.31644 6.60881C6.38961 6.68298 6.46021 6.75454 6.53039 6.82678L7.96477 5.43302C7.88841 5.35443 7.81246 5.27746 7.74022 5.20423C7.66707 5.13008 7.59776 5.0598 7.53004 4.99005L6.09498 6.3831ZM6.5412 6.83773L7.79146 8.08543L9.20422 6.66977L7.95397 5.42207L6.5412 6.83773ZM7.79146 8.08543C7.82522 8.11913 7.84791 8.1457 7.86256 8.16487C7.87717 8.18399 7.88214 8.1936 7.8821 8.19351C7.88187 8.19307 7.87649 8.18247 7.87128 8.16241C7.86869 8.15246 7.86631 8.14077 7.86459 8.12758C7.86287 8.11436 7.86193 8.1004 7.86193 8.086C7.86193 8.0716 7.86287 8.05765 7.86459 8.04443C7.86631 8.03123 7.86869 8.01955 7.87128 8.0096C7.87649 7.98953 7.88187 7.97894 7.8821 7.97849C7.88214 7.9784 7.87717 7.98801 7.86256 8.00713C7.84791 8.0263 7.82522 8.05288 7.79146 8.08658L9.20422 9.50224C9.54192 9.16523 9.86193 8.69218 9.86193 8.086C9.86193 7.47982 9.54192 7.00678 9.20422 6.66977L7.79146 8.08543ZM7.79146 8.08658C7.64111 8.23662 7.53556 8.34648 7.41013 8.46734L8.79784 9.90756C8.93804 9.77248 9.08895 9.61727 9.20422 9.50224L7.79146 8.08658ZM7.38932 8.48798C7.28792 8.59159 7.2417 8.63927 7.20918 8.67238C7.17137 8.71086 7.1976 8.68217 7.23508 8.65148C7.24122 8.64645 7.25958 8.63206 7.23345 8.65246C7.21739 8.665 7.19821 8.68031 7.17325 8.70104C7.12609 8.74022 7.06003 8.79732 6.95627 8.89016L8.28984 10.3807C8.3853 10.2952 8.43088 10.2564 8.45114 10.2395C8.45988 10.2323 8.46336 10.2296 8.46432 10.2288C8.46819 10.2258 8.46497 10.2283 8.47339 10.2218C8.4786 10.2178 8.48944 10.2093 8.50227 10.1988C8.56209 10.1498 8.6098 10.1005 8.63598 10.0739C8.66744 10.0419 8.72771 9.97984 8.81865 9.88692L7.38932 8.48798ZM6.91667 8.92758C6.9435 8.9008 6.96586 8.88187 6.97443 8.8747C6.97776 8.87191 6.98154 8.86882 6.97807 8.87167C6.97664 8.87284 6.96899 8.87911 6.95988 8.88691C6.92767 8.91446 6.79985 9.02319 6.7061 9.21031L8.49422 10.1062C8.40505 10.2842 8.2841 10.3861 8.2599 10.4068C8.25601 10.4101 8.25288 10.4127 8.25098 10.4143C8.25 10.4151 8.24922 10.4157 8.24873 10.4162C8.24825 10.4165 8.24792 10.4168 8.24791 10.4168C8.24657 10.4179 8.25254 10.413 8.25809 10.4084C8.27109 10.3975 8.29803 10.3746 8.32944 10.3432L6.91667 8.92758ZM6.89377 8.95043C6.54616 9.29733 6.35721 9.69707 6.30914 10.1115C6.26422 10.4987 6.35267 10.8206 6.40861 10.9974L8.31542 10.394C8.30927 10.3746 8.30508 10.3599 8.3021 10.3481C8.29914 10.3363 8.29773 10.3288 8.29707 10.3246C8.2958 10.3164 8.29789 10.3241 8.29582 10.3419C8.29479 10.3508 8.29291 10.3605 8.29002 10.3705C8.28712 10.3804 8.28386 10.3882 8.28127 10.3935C8.27872 10.3986 8.27789 10.3991 8.28088 10.395C8.28396 10.3908 8.29167 10.3809 8.30654 10.3661L6.89377 8.95043ZM6.41353 11.0125C6.41582 11.0194 6.41811 11.0263 6.4204 11.0331C6.42269 11.04 6.42498 11.0468 6.42726 11.0537L8.32424 10.42C8.32195 10.4132 8.31966 10.4063 8.31737 10.3995C8.31508 10.3926 8.31279 10.3858 8.3105 10.3789L6.41353 11.0125ZM6.45169 11.1191C6.8222 12.0148 7.336 12.8348 8.07 13.7649L9.63999 12.5259C8.98176 11.6919 8.57963 11.0311 8.29982 10.3546L6.45169 11.1191ZM8.14861 13.8533L8.15319 13.8578L9.56596 12.4422L9.56138 12.4376L8.14861 13.8533ZM8.08381 13.781C9.4058 15.4062 10.8177 16.6945 12.3926 17.6885L13.4601 15.9972C12.0949 15.1356 10.8413 14.0016 9.63534 12.519L8.08381 13.781ZM12.3916 17.6878C12.6288 17.838 12.8659 17.9554 13.0432 18.0438L13.9361 16.2543C13.747 16.1599 13.5994 16.0853 13.4611 15.9978L12.3916 17.6878ZM13.0432 18.0438C13.2188 18.1315 13.3303 18.188 13.4165 18.2414L14.4696 16.5411C14.2901 16.43 14.0903 16.3312 13.9361 16.2543L13.0432 18.0438ZM13.4966 18.2861C13.4724 18.274 13.4547 18.2637 13.447 18.2592C13.4401 18.2551 13.435 18.2518 13.4413 18.2558C13.4442 18.2576 13.4585 18.2665 13.4745 18.276C13.4914 18.286 13.5182 18.3014 13.5515 18.3181L14.4445 16.5285C14.4686 16.5405 14.4863 16.5508 14.494 16.5554C14.5009 16.5595 14.506 16.5627 14.4997 16.5588C14.4969 16.557 14.4826 16.548 14.4665 16.5385C14.4497 16.5285 14.4228 16.5131 14.3895 16.4965L13.4966 18.2861ZM13.5515 18.3181C13.8271 18.4556 14.1255 18.5375 14.4514 18.5375V16.5375C14.4542 16.5375 14.4578 16.5377 14.4618 16.5382C14.4658 16.5387 14.4687 16.5393 14.4702 16.5397C14.4737 16.5406 14.4659 16.5392 14.4445 16.5285L13.5515 18.3181ZM14.4514 18.5375C15.2657 18.5375 15.7583 18.0254 15.8539 17.93L14.4411 16.5143C14.4315 16.524 14.4274 16.528 14.423 16.5321C14.4191 16.5359 14.4159 16.5387 14.4131 16.5411C14.4072 16.5461 14.4039 16.5481 14.4034 16.5484C14.4031 16.5486 14.408 16.5457 14.4177 16.5427C14.4226 16.5412 14.4283 16.5398 14.4345 16.5389C14.4408 16.5379 14.4466 16.5375 14.4514 16.5375V18.5375ZM15.8539 17.93L16.7516 17.0342L15.3388 15.6185L14.4411 16.5143L15.8539 17.93ZM16.7516 17.0342C16.7684 17.0174 16.785 17.0024 16.8006 16.99C16.8164 16.9775 16.8274 16.9705 16.8329 16.9674C16.8383 16.9643 16.8334 16.9679 16.818 16.9725C16.8018 16.9774 16.7738 16.9835 16.7367 16.9835V14.9835C16.0338 14.9835 15.5395 15.4182 15.3388 15.6185L16.7516 17.0342ZM16.7367 16.9835C16.665 16.9835 16.624 16.9606 16.6224 16.9597C16.6211 16.959 16.6251 16.9611 16.6332 16.9679C16.6412 16.9745 16.6498 16.9828 16.6579 16.9917L18.1345 15.6427C17.9186 15.4064 17.4363 14.9835 16.7367 14.9835V16.9835ZM16.6898 17.025C16.6921 17.0273 16.6933 17.0285 16.6945 17.0297C16.6956 17.0308 16.6967 17.0319 16.699 17.0342L18.1117 15.6185C18.1094 15.6162 18.1082 15.615 18.1071 15.6138C18.1059 15.6127 18.1048 15.6116 18.1026 15.6094L16.6898 17.025ZM16.699 17.0342L19.2224 19.5524L20.6351 18.1368L18.1117 15.6185L16.699 17.0342ZM19.2258 19.5558C19.1516 19.4825 19.139 19.4091 19.1388 19.4078C19.1387 19.4077 19.1392 19.4109 19.1395 19.4179C19.1397 19.425 19.1397 19.4347 19.139 19.4474C19.1376 19.4735 19.1336 19.5062 19.1261 19.545C19.1107 19.6246 19.0856 19.7045 19.062 19.7678C19.0507 19.798 19.0411 19.821 19.0353 19.8343C19.0325 19.8408 19.0307 19.8448 19.0302 19.8457C19.03 19.8462 19.0301 19.8459 19.0306 19.8449C19.0309 19.8443 19.0312 19.8436 19.0317 19.8426C19.0319 19.8422 19.0322 19.8416 19.0325 19.841C19.0326 19.8408 19.0327 19.8405 19.0329 19.8401C19.033 19.84 19.0331 19.8397 19.0331 19.8397C19.0332 19.8394 19.0334 19.8392 19.9333 20.2751C20.8333 20.711 20.8334 20.7108 20.8336 20.7105C20.8336 20.7104 20.8337 20.7102 20.8338 20.71C20.834 20.7096 20.8342 20.7092 20.8344 20.7088C20.8348 20.708 20.8352 20.7071 20.8357 20.7062C20.8366 20.7043 20.8376 20.7022 20.8387 20.6998C20.841 20.695 20.8436 20.6893 20.8467 20.6826C20.8529 20.6692 20.8607 20.6519 20.8697 20.6312C20.8876 20.59 20.9108 20.534 20.936 20.4665C20.9852 20.3344 21.0474 20.144 21.0898 19.9243C21.1597 19.5626 21.2484 18.7428 20.6317 18.1333L19.2258 19.5558ZM12.7062 8.18561C13.697 8.35168 14.599 8.8188 15.3251 9.54338L16.7378 8.12772C15.7236 7.11557 14.4457 6.44925 13.0368 6.21312L12.7062 8.18561ZM15.3251 9.54338C16.0493 10.2661 16.5146 11.1661 16.6855 12.1587L18.6565 11.8195C18.4152 10.4172 17.7539 9.14169 16.7378 8.12772L15.3251 9.54338ZM12.8879 4.25943C14.8148 4.58543 16.574 5.4968 17.9778 6.89362L19.3885 5.47587C17.6964 3.79227 15.5628 2.68356 13.2215 2.28745L12.8879 4.25943ZM17.9767 6.89257C19.3792 8.29216 20.2879 10.0463 20.6145 11.9692L22.5863 11.6342C22.1893 9.29754 21.0829 7.16688 19.3895 5.47691L17.9767 6.89257Z" fill="#FF5E14"/>
</svg>
