<svg width="56" height="56" viewBox="0 0 56 56" fill="none" xmlns="http://www.w3.org/2000/svg">
<circle cx="28" cy="28" r="28" fill="#FF5E14"/>
<mask id="mask0_74_430" style="mask-type:alpha" maskUnits="userSpaceOnUse" x="12" y="12" width="32" height="32">
<rect x="12" y="12" width="32" height="32" fill="#D9D9D9"/>
</mask>
<g mask="url(#mask0_74_430)">
<path d="M18.6666 40C17.5333 40 16.7277 39.4944 16.2499 38.4833C15.7721 37.4722 15.8888 36.5333 16.5999 35.6667L23.9999 26.6667V18.6667H22.6666C22.2888 18.6667 21.9721 18.5389 21.7166 18.2833C21.461 18.0278 21.3333 17.7111 21.3333 17.3333C21.3333 16.9556 21.461 16.6389 21.7166 16.3833C21.9721 16.1278 22.2888 16 22.6666 16H33.3333C33.711 16 34.0277 16.1278 34.2833 16.3833C34.5388 16.6389 34.6666 16.9556 34.6666 17.3333C34.6666 17.7111 34.5388 18.0278 34.2833 18.2833C34.0277 18.5389 33.711 18.6667 33.3333 18.6667H31.9999V26.6667L39.3999 35.6667C40.111 36.5333 40.2277 37.4722 39.7499 38.4833C39.2721 39.4944 38.4666 40 37.3333 40H18.6666ZM18.6666 37.3333H37.3333L29.3333 27.6V18.6667H26.6666V27.6L18.6666 37.3333Z" fill="white"/>
</g>
</svg>
