<svg width="21" height="20" viewBox="0 0 21 20" fill="none" xmlns="http://www.w3.org/2000/svg">
<path d="M16.5306 10.5312L12.0306 15.0312C11.8897 15.1721 11.6986 15.2513 11.4994 15.2513C11.3001 15.2513 11.109 15.1721 10.9681 15.0312C10.8272 14.8903 10.7481 14.6992 10.7481 14.5C10.7481 14.3007 10.8272 14.1096 10.9681 13.9687L14.1875 10.7506H5C4.80109 10.7506 4.61032 10.6716 4.46967 10.5309C4.32902 10.3903 4.25 10.1995 4.25 10.0006C4.25 9.80169 4.32902 9.61092 4.46967 9.47027C4.61032 9.32962 4.80109 9.2506 5 9.2506H14.1875L10.9694 6.0306C10.8285 5.8897 10.7493 5.69861 10.7493 5.49935C10.7493 5.30009 10.8285 5.10899 10.9694 4.9681C11.1103 4.8272 11.3014 4.74805 11.5006 4.74805C11.6999 4.74805 11.891 4.8272 12.0319 4.9681L16.5319 9.4681C16.6018 9.53787 16.6573 9.62077 16.6951 9.71203C16.7329 9.8033 16.7523 9.90113 16.7522 9.99992C16.752 10.0987 16.7324 10.1965 16.6944 10.2877C16.6564 10.3788 16.6007 10.4616 16.5306 10.5312Z" fill="#FF5E14"/>
</svg>
