<svg width="56" height="56" viewBox="0 0 56 56" fill="none" xmlns="http://www.w3.org/2000/svg">
<circle cx="28" cy="28" r="28" fill="#FF5E14"/>
<mask id="mask0_74_450" style="mask-type:alpha" maskUnits="userSpaceOnUse" x="12" y="12" width="32" height="32">
<rect x="12" y="12" width="32" height="32" fill="#D9D9D9"/>
</mask>
<g mask="url(#mask0_74_450)">
<path d="M28 42.666V39.9993H37.3333V38.666H32V27.9993H37.3333V26.666C37.3333 24.0882 36.4222 21.8882 34.6 20.066C32.7778 18.2438 30.5778 17.3327 28 17.3327C25.4222 17.3327 23.2222 18.2438 21.4 20.066C19.5778 21.8882 18.6667 24.0882 18.6667 26.666V27.9993H24V38.666H18.6667C17.9333 38.666 17.3056 38.4049 16.7833 37.8827C16.2611 37.3605 16 36.7327 16 35.9993V26.666C16 25.0216 16.3167 23.4716 16.95 22.016C17.5833 20.5605 18.4444 19.2882 19.5333 18.1993C20.6222 17.1105 21.8944 16.2493 23.35 15.616C24.8056 14.9827 26.3556 14.666 28 14.666C29.6444 14.666 31.1944 14.9827 32.65 15.616C34.1056 16.2493 35.3778 17.1105 36.4667 18.1993C37.5556 19.2882 38.4167 20.5605 39.05 22.016C39.6833 23.4716 40 25.0216 40 26.666V39.9993C40 40.7327 39.7389 41.3605 39.2167 41.8827C38.6944 42.4049 38.0667 42.666 37.3333 42.666H28ZM18.6667 35.9993H21.3333V30.666H18.6667V35.9993ZM34.6667 35.9993H37.3333V30.666H34.6667V35.9993Z" fill="white"/>
</g>
</svg>
