<svg width="20" height="20" viewBox="0 0 20 20" fill="none" xmlns="http://www.w3.org/2000/svg">
<path d="M4.39226 4.94741C4.01839 4.679 3.49773 4.76448 3.22931 5.13834C2.9609 5.5122 3.04638 6.03287 3.42024 6.30129L4.39226 4.94741ZM9.46637 9.61623L8.98036 10.2932L8.98036 10.2932L9.46637 9.61623ZM10.5336 9.61623L11.0196 10.2932L11.0196 10.2932L10.5336 9.61623ZM16.5798 6.30129C16.9536 6.03287 17.0391 5.5122 16.7707 5.13834C16.5023 4.76448 15.9816 4.679 15.6077 4.94741L16.5798 6.30129ZM4.375 4.99935H15.625V3.33268H4.375V4.99935ZM16.6667 6.11046V13.8882H18.3333V6.11046H16.6667ZM15.625 14.9993H4.375V16.666H15.625V14.9993ZM3.33333 13.8882V6.11046H1.66667V13.8882H3.33333ZM4.375 14.9993C3.82801 14.9993 3.33333 14.5307 3.33333 13.8882H1.66667C1.66667 15.3935 2.85092 16.666 4.375 16.666V14.9993ZM16.6667 13.8882C16.6667 14.5307 16.172 14.9993 15.625 14.9993V16.666C17.1491 16.666 18.3333 15.3935 18.3333 13.8882H16.6667ZM15.625 4.99935C16.172 4.99935 16.6667 5.46799 16.6667 6.11046H18.3333C18.3333 4.60516 17.1491 3.33268 15.625 3.33268V4.99935ZM4.375 3.33268C2.85092 3.33268 1.66667 4.60516 1.66667 6.11046H3.33333C3.33333 5.46799 3.82801 4.99935 4.375 4.99935V3.33268ZM3.42024 6.30129L8.98036 10.2932L9.95237 8.93929L4.39226 4.94741L3.42024 6.30129ZM11.0196 10.2932L16.5798 6.30129L15.6077 4.94741L10.0476 8.93929L11.0196 10.2932ZM8.98036 10.2932C9.59185 10.7322 10.4081 10.7322 11.0196 10.2932L10.0476 8.93929C10.0303 8.95176 10.014 8.95576 10 8.95576C9.98595 8.95576 9.96974 8.95176 9.95237 8.93929L8.98036 10.2932Z" fill="white"/>
</svg>
