<svg width="24" height="25" viewBox="0 0 24 25" fill="none" xmlns="http://www.w3.org/2000/svg">
<path d="M4.66576 6.15882C4.20119 5.86017 3.58247 5.99467 3.28382 6.45924C2.98517 6.92381 3.11967 7.54253 3.58424 7.84118L4.66576 6.15882ZM12 12.0625L11.4592 12.9037C11.7793 13.1094 12.1883 13.1157 12.5145 12.92L12 12.0625ZM20.952 7.85749C21.4256 7.57334 21.5791 6.95908 21.295 6.4855C21.0108 6.01192 20.3966 5.85836 19.923 6.14251L20.952 7.85749ZM4 16.9293V8.125H2V16.9293H4ZM5.25 6.875H18.75V4.875H5.25V6.875ZM20 8.125V16.9293H22V8.125H20ZM20 16.9293C20 17.6197 19.4404 18.1794 18.75 18.1794V20.1794C20.5449 20.1794 22 18.7243 22 16.9293H20ZM18.75 6.875C19.4404 6.875 20 7.43464 20 8.125H22C22 6.33008 20.5449 4.875 18.75 4.875V6.875ZM4 8.125C4 7.43464 4.55965 6.875 5.25 6.875V4.875C3.45507 4.875 2 6.33008 2 8.125H4ZM5.25 18.1794C4.55964 18.1794 4 17.6197 4 16.9293H2C2 18.7243 3.45507 20.1794 5.25 20.1794V18.1794ZM3.58424 7.84118L11.4592 12.9037L12.5408 11.2213L4.66576 6.15882L3.58424 7.84118ZM12.5145 12.92L20.952 7.85749L19.923 6.14251L11.4855 11.205L12.5145 12.92ZM18.75 18.1794H5.25V20.1794H18.75V18.1794Z" fill="#FF5E14"/>
</svg>
