<svg width="20" height="20" viewBox="0 0 20 20" fill="none" xmlns="http://www.w3.org/2000/svg">
<path d="M14.6851 13.6011C14.3544 13.2811 13.8268 13.2898 13.5068 13.6206C13.1868 13.9514 13.1955 14.4789 13.5263 14.7989L14.6851 13.6011ZM16.4206 17.5989C16.7514 17.9189 17.2789 17.9102 17.5989 17.5794C17.9189 17.2486 17.9102 16.7211 17.5794 16.4011L16.4206 17.5989ZM15.2333 9.53333C15.2333 12.6814 12.6814 15.2333 9.53333 15.2333V16.9C13.6018 16.9 16.9 13.6018 16.9 9.53333H15.2333ZM9.53333 15.2333C6.38531 15.2333 3.83333 12.6814 3.83333 9.53333H2.16667C2.16667 13.6018 5.46484 16.9 9.53333 16.9V15.2333ZM3.83333 9.53333C3.83333 6.38531 6.38531 3.83333 9.53333 3.83333V2.16667C5.46484 2.16667 2.16667 5.46484 2.16667 9.53333H3.83333ZM9.53333 3.83333C12.6814 3.83333 15.2333 6.38531 15.2333 9.53333H16.9C16.9 5.46484 13.6018 2.16667 9.53333 2.16667V3.83333ZM13.5263 14.7989L16.4206 17.5989L17.5794 16.4011L14.6851 13.6011L13.5263 14.7989Z" fill="#E6E4E5"/>
</svg>
