<svg width="49" height="48" viewBox="0 0 49 48" fill="none" xmlns="http://www.w3.org/2000/svg">
<path d="M24.6667 4C16.6788 4 10.1802 10.4986 10.1802 18.4864C10.1802 28.3996 23.1441 42.9526 23.6961 43.5672C24.2145 44.1446 25.1197 44.1436 25.6373 43.5672C26.1891 42.9526 39.1531 28.3996 39.1531 18.4864C39.1529 10.4986 32.6545 4 24.6667 4ZM24.6667 25.775C20.6477 25.775 17.3782 22.5054 17.3782 18.4864C17.3782 14.4675 20.6478 11.198 24.6667 11.198C28.6855 11.198 31.9551 14.4676 31.9551 18.4865C31.9551 22.5054 28.6855 25.775 24.6667 25.775Z" fill="#FF5E14"/>
</svg>
