<svg width="24" height="25" viewBox="0 0 24 25" fill="none" xmlns="http://www.w3.org/2000/svg">
<path d="M12.0004 15.2734L11.3442 16.028C11.7205 16.3552 12.2803 16.3552 12.6566 16.028L12.0004 15.2734ZM6.87357 16.1277C7.40485 15.9769 7.71323 15.4239 7.56235 14.8926C7.41148 14.3613 6.85849 14.0529 6.32721 14.2038L6.87357 16.1277ZM17.6736 14.2038C17.1423 14.0529 16.5893 14.3613 16.4384 14.8926C16.2876 15.4239 16.5959 15.9769 17.1272 16.1277L17.6736 14.2038ZM15.8004 7.96909C15.8004 8.51366 15.5851 9.18984 15.1709 9.9551C14.764 10.707 14.2089 11.4654 13.6333 12.1536C13.0605 12.8385 12.4849 13.4332 12.0511 13.8575C11.8348 14.0691 11.6553 14.2368 11.5311 14.3506C11.469 14.4075 11.4209 14.4508 11.3889 14.4793C11.373 14.4935 11.361 14.504 11.3535 14.5107C11.3497 14.514 11.347 14.5164 11.3455 14.5177C11.3447 14.5184 11.3442 14.5188 11.344 14.519C11.3439 14.5191 11.3438 14.5192 11.3439 14.5191C11.3439 14.5191 11.344 14.519 11.344 14.519C11.3441 14.5189 11.3442 14.5188 12.0004 15.2734C12.6566 16.028 12.6567 16.0279 12.6569 16.0278C12.657 16.0277 12.6572 16.0275 12.6573 16.0274C12.6577 16.0271 12.6581 16.0267 12.6585 16.0263C12.6595 16.0255 12.6607 16.0244 12.6623 16.0231C12.6653 16.0204 12.6695 16.0167 12.6748 16.0121C12.6854 16.0027 12.7005 15.9894 12.7197 15.9723C12.758 15.9381 12.813 15.8887 12.8822 15.8253C13.0204 15.6986 13.216 15.5158 13.4497 15.2872C13.9159 14.8311 14.5403 14.1867 15.1675 13.4367C15.7919 12.6901 16.4368 11.8182 16.9299 10.907C17.4157 10.0092 17.8004 8.98974 17.8004 7.96909H15.8004ZM12.0004 15.2734C12.6566 14.5188 12.6567 14.5189 12.6568 14.519C12.6568 14.519 12.6569 14.5191 12.6569 14.5191C12.6569 14.5192 12.6569 14.5191 12.6568 14.519C12.6566 14.5188 12.6561 14.5184 12.6553 14.5177C12.6537 14.5164 12.6511 14.514 12.6473 14.5107C12.6397 14.504 12.6278 14.4935 12.6119 14.4793C12.5799 14.4508 12.5317 14.4075 12.4697 14.3506C12.3454 14.2368 12.166 14.0691 11.9497 13.8575C11.5159 13.4332 10.9403 12.8385 10.3675 12.1536C9.7919 11.4654 9.23676 10.707 8.82986 9.9551C8.41573 9.18984 8.20039 8.51366 8.20039 7.96909H6.20039C6.20039 8.98974 6.58506 10.0092 7.07092 10.907C7.56403 11.8182 8.20888 12.6901 8.83331 13.4367C9.46052 14.1867 10.0849 14.8311 10.5511 15.2872C10.7848 15.5158 10.9803 15.6986 11.1186 15.8253C11.1878 15.8887 11.2428 15.9381 11.2811 15.9723C11.3003 15.9894 11.3153 16.0027 11.326 16.0121C11.3313 16.0167 11.3355 16.0204 11.3385 16.0231C11.34 16.0244 11.3413 16.0255 11.3422 16.0263C11.3427 16.0267 11.3431 16.0271 11.3434 16.0274C11.3436 16.0275 11.3438 16.0277 11.3439 16.0278C11.3441 16.0279 11.3442 16.028 12.0004 15.2734ZM8.20039 7.96909C8.20039 5.94864 9.88088 4.27344 12.0004 4.27344V2.27344C8.81797 2.27344 6.20039 4.80286 6.20039 7.96909H8.20039ZM12.0004 4.27344C14.1199 4.27344 15.8004 5.94864 15.8004 7.96909H17.8004C17.8004 4.80286 15.1828 2.27344 12.0004 2.27344V4.27344ZM20.6004 18.4734C20.6004 18.6774 20.5054 18.9622 20.1442 19.318C19.7794 19.6774 19.2003 20.047 18.404 20.3788C16.8158 21.0406 14.5523 21.4734 12.0004 21.4734V23.4734C14.7504 23.4734 17.2869 23.0109 19.1732 22.2249C20.1142 21.8329 20.9409 21.3406 21.5478 20.7428C22.1581 20.1416 22.6004 19.3741 22.6004 18.4734H20.6004ZM12.0004 21.4734C9.44845 21.4734 7.18502 21.0406 5.59678 20.3788C4.80048 20.047 4.22135 19.6774 3.85659 19.318C3.49535 18.9622 3.40039 18.6774 3.40039 18.4734H1.40039C1.40039 19.3741 1.84269 20.1416 2.45302 20.7428C3.05983 21.3406 3.88659 21.8329 4.82755 22.2249C6.71383 23.0109 9.25039 23.4734 12.0004 23.4734V21.4734ZM3.40039 18.4734C3.40039 18.2225 3.55143 17.8353 4.16014 17.3661C4.75881 16.9046 5.67899 16.467 6.87357 16.1277L6.32721 14.2038C4.98646 14.5846 3.80664 15.1134 2.93915 15.782C2.08169 16.443 1.40039 17.3496 1.40039 18.4734H3.40039ZM17.1272 16.1277C18.3218 16.467 19.242 16.9046 19.8406 17.3661C20.4493 17.8353 20.6004 18.2225 20.6004 18.4734H22.6004C22.6004 17.3496 21.9191 16.443 21.0616 15.782C20.1941 15.1134 19.0143 14.5846 17.6736 14.2038L17.1272 16.1277Z" fill="#FF5E14"/>
</svg>
