<svg width="20" height="20" viewBox="0 0 20 20" fill="none" xmlns="http://www.w3.org/2000/svg">
<path fill-rule="evenodd" clip-rule="evenodd" d="M3.75 2.70117C3.05964 2.70117 2.5 3.26081 2.5 3.95117V16.4512C2.5 17.1415 3.05964 17.7012 3.75 17.7012H16.25C16.9403 17.7012 17.5 17.1415 17.5 16.4512V3.95117C17.5 3.26081 16.9403 2.70117 16.25 2.70117H3.75ZM7.10063 6.03677C7.10532 6.83365 6.50884 7.32466 5.80102 7.32115C5.13422 7.31763 4.55298 6.78677 4.55649 6.03795C4.56001 5.33365 5.11665 4.76763 5.8397 4.78404C6.57329 4.80045 7.10532 5.33834 7.10063 6.03677ZM10.2331 8.33597H8.13309H8.13192V15.4692H10.3514V15.3028C10.3514 14.9862 10.3512 14.6695 10.3509 14.3528C10.3502 13.5079 10.3495 12.6622 10.3538 11.8176C10.355 11.6125 10.3643 11.3993 10.4171 11.2035C10.6151 10.4723 11.2726 10 12.0062 10.1161C12.4772 10.1898 12.7889 10.4629 12.9202 10.9071C13.0011 11.1848 13.0374 11.4836 13.0409 11.7731C13.0504 12.6461 13.0491 13.5191 13.0477 14.3922C13.0472 14.7003 13.0467 15.0087 13.0467 15.3168V15.468H15.2733V15.2969C15.2733 14.9203 15.2732 14.5437 15.2729 14.1671C15.2725 13.2258 15.272 12.2846 15.2745 11.343C15.2757 10.9176 15.23 10.4981 15.1257 10.0868C14.9698 9.47501 14.6476 8.96876 14.1237 8.60317C13.7522 8.343 13.3444 8.17542 12.8886 8.15667C12.8367 8.15451 12.7843 8.15169 12.7317 8.14885C12.4987 8.13625 12.2617 8.12345 12.0389 8.16839C11.4014 8.29612 10.8413 8.58792 10.4182 9.10234C10.3691 9.16134 10.321 9.22126 10.2492 9.31067L10.2331 9.33092V8.33597ZM4.7347 15.4715H6.94368V8.34061H4.7347V15.4715Z" fill="white"/>
</svg>
