<svg width="25" height="25" viewBox="0 0 25 25" fill="none" xmlns="http://www.w3.org/2000/svg">
<path fill-rule="evenodd" clip-rule="evenodd" d="M12.3335 3.5293C7.36495 3.5293 3.3335 7.56075 3.3335 12.5293C3.3335 17.4979 7.36495 21.5293 12.3335 21.5293C17.2923 21.5293 21.3335 17.4979 21.3335 12.5293C21.3335 7.56075 17.2923 3.5293 12.3335 3.5293ZM18.2782 7.67789C19.3519 8.98592 19.9962 10.6551 20.0157 12.461C19.7619 12.4122 17.2239 11.8948 14.6665 12.2169C14.6079 12.09 14.5591 11.9534 14.5005 11.8167C14.3443 11.4458 14.1687 11.0651 13.9929 10.7039C16.8237 9.5521 18.1122 7.89264 18.2782 7.67789ZM12.3335 4.85685C14.2858 4.85685 16.0721 5.58896 17.429 6.78961C17.2923 6.98483 16.1307 8.53689 13.3975 9.56183C12.1383 7.24839 10.7424 5.35468 10.5277 5.06184C11.1035 4.92518 11.7088 4.85685 12.3335 4.85685ZM9.06346 5.57919C9.26844 5.85251 10.635 7.75598 11.9138 10.0206C8.32157 10.9773 5.14912 10.9577 4.80747 10.9577C5.3053 8.57594 6.91593 6.59437 9.06346 5.57919ZM4.64153 12.5391C4.64153 12.461 4.64153 12.3829 4.64153 12.3048C4.97341 12.3145 8.70226 12.3634 12.5385 11.2115C12.763 11.641 12.968 12.0803 13.1632 12.5195C13.0656 12.5488 12.9582 12.5781 12.8606 12.6074C8.89749 13.8861 6.78903 17.3807 6.61333 17.6735C5.39315 16.3167 4.64153 14.5109 4.64153 12.5391ZM12.3335 20.2213C10.5569 20.2213 8.91702 19.6161 7.61875 18.6009C7.75541 18.3178 9.31721 15.3113 13.6513 13.7983C13.6708 13.7885 13.6806 13.7885 13.7001 13.7788C14.7836 16.5803 15.2229 18.9327 15.34 19.6063C14.4127 20.0065 13.3975 20.2213 12.3335 20.2213ZM16.6187 18.9035C16.5407 18.4349 16.1307 16.1898 15.1252 13.4273C17.5363 13.0466 19.6448 13.6714 19.9084 13.7593C19.5765 15.897 18.3465 17.7419 16.6187 18.9035Z" fill="#082252"/>
</svg>
