<svg width="20" height="20" viewBox="0 0 20 20" fill="none" xmlns="http://www.w3.org/2000/svg">
<path fill-rule="evenodd" clip-rule="evenodd" d="M13.3333 2.70117H6.66667C4.36548 2.70117 2.5 4.56666 2.5 6.86784V13.5345C2.5 15.8357 4.36548 17.7012 6.66667 17.7012H13.3333C15.6345 17.7012 17.5 15.8357 17.5 13.5345V6.86784C17.5 4.56666 15.6345 2.70117 13.3333 2.70117ZM16.0417 13.5345C16.0371 15.0283 14.8272 16.2383 13.3333 16.2428H6.66667C5.17279 16.2383 3.96291 15.0283 3.95833 13.5345V6.86784C3.96291 5.37396 5.17279 4.16408 6.66667 4.15951H13.3333C14.8272 4.16408 16.0371 5.37396 16.0417 6.86784V13.5345ZM13.9583 7.07617C14.4186 7.07617 14.7917 6.70307 14.7917 6.24284C14.7917 5.78261 14.4186 5.40951 13.9583 5.40951C13.4981 5.40951 13.125 5.78261 13.125 6.24284C13.125 6.70307 13.4981 7.07617 13.9583 7.07617ZM10 6.45117C7.92893 6.45117 6.25 8.13011 6.25 10.2012C6.25 12.2723 7.92893 13.9512 10 13.9512C12.0711 13.9512 13.75 12.2723 13.75 10.2012C13.7522 9.20592 13.3578 8.25081 12.6541 7.54707C11.9503 6.84333 10.9952 6.44896 10 6.45117ZM7.70833 10.2012C7.70833 11.4668 8.73433 12.4928 10 12.4928C11.2657 12.4928 12.2917 11.4668 12.2917 10.2012C12.2917 8.93551 11.2657 7.90951 10 7.90951C8.73433 7.90951 7.70833 8.93551 7.70833 10.2012Z" fill="white"/>
</svg>
