<svg width="153" height="24" viewBox="0 0 153 24" fill="none" xmlns="http://www.w3.org/2000/svg">
<g clip-path="url(#clip0_1303_12209)">
<path d="M95.637 0.296875H98.7678V23.695H95.4001V5.48935L88.2068 14.533H87.5857L80.3092 5.48935V23.695H76.9607V0.296875H80.1332L87.9091 9.90712L95.637 0.296875Z" fill="white"/>
<path d="M103.843 0.296875H107.191V23.695H103.843V0.296875Z" fill="white"/>
<path d="M130.976 0.296875H134.158V23.695H131.277L115.632 5.67503V23.695H112.482V0.296875H115.197L130.976 18.4705V0.296875Z" fill="white"/>
<path d="M139.165 0.296875H152.431V3.27727H142.517V10.4129H152.098V13.4125H142.517V20.6826H152.751V23.663H139.168V0.296875H139.165Z" fill="white"/>
<path d="M-0.00183105 23.7028V0.339844H7.50837C10.5368 0.339844 12.9345 0.816835 14.7017 1.77082C16.4656 2.7248 17.8709 4.13016 18.9113 5.9837C19.9518 7.83724 20.4736 9.85725 20.4736 12.0469C20.4736 13.6092 20.1854 15.1074 19.6124 16.5351C19.0394 17.9629 18.2199 19.221 17.157 20.303C16.0718 21.4203 14.8137 22.2622 13.3763 22.832C12.5376 23.1778 11.7661 23.4115 11.065 23.5267C10.3639 23.642 9.02258 23.7028 7.04739 23.7028H-0.00183105ZM7.17544 3.32024H3.18985V20.7224H7.27148C8.86572 20.7224 10.1046 20.6072 10.9882 20.3799C11.8717 20.1526 12.608 19.8613 13.197 19.5091C13.7861 19.157 14.3271 18.7248 14.8169 18.2126C16.3887 16.5383 17.1762 14.4223 17.1762 11.8645C17.1762 9.30663 16.3695 7.30263 14.7529 5.718C14.1574 5.12576 13.4756 4.63916 12.7041 4.26141C11.9325 3.88046 11.2027 3.63076 10.5112 3.50911C9.8197 3.38746 8.70885 3.32344 7.17864 3.32344L7.17544 3.32024Z" fill="white"/>
<path d="M35.3943 0.00390625C38.8357 0.00390625 41.7041 1.14996 43.993 3.43888C46.2819 5.7278 47.428 8.59614 47.428 12.0471C47.428 15.4981 46.2723 18.3536 43.961 20.6137C41.6496 22.8739 38.7365 24.0039 35.2183 24.0039C31.7001 24.0039 29.0622 22.8739 26.8277 20.6137C24.59 18.3536 23.4728 15.5205 23.4728 12.1144C23.4728 8.70819 24.5996 5.7278 26.8501 3.43888C29.1038 1.14996 31.9498 0.00390625 35.3911 0.00390625L35.3943 0.00390625ZM35.5224 3.18598C32.9742 3.18598 30.8773 4.02471 29.2383 5.69898C27.596 7.37325 26.7765 9.51171 26.7765 12.1144C26.7765 14.717 27.5992 16.737 29.2447 18.4113C30.8901 20.0855 32.9518 20.9243 35.4264 20.9243C37.9009 20.9243 39.985 20.0695 41.6496 18.3632C43.3111 16.6538 44.1434 14.5281 44.1434 11.9831C44.1434 9.43808 43.3111 7.41807 41.6496 5.7278C39.9882 4.03752 37.9458 3.18918 35.5224 3.18918V3.18598Z" fill="white"/>
<path d="M62.2835 0C65.7249 0 68.5932 1.14606 70.8821 3.43497C73.1711 5.72389 74.3171 8.59224 74.3171 12.0432C74.3171 15.4942 73.1615 18.3497 70.8501 20.6098C68.5388 22.8699 65.6256 24 62.1074 24C58.5892 24 55.9514 22.8699 53.7169 20.6098C51.4792 18.3497 50.3619 15.5166 50.3619 12.1104C50.3619 8.70428 51.4888 5.72389 53.7393 3.43497C55.993 1.14606 58.8389 0 62.2803 0L62.2835 0ZM62.4116 3.18207C59.8633 3.18207 57.7665 4.02081 56.1274 5.69508C54.4852 7.36935 53.6657 9.5078 53.6657 12.1104C53.6657 14.7131 54.4884 16.7331 56.1338 18.4074C57.7793 20.0816 59.8409 20.9204 62.3155 20.9204C64.7901 20.9204 66.8741 20.0656 68.5388 18.3593C70.2003 16.6499 71.0326 14.5242 71.0326 11.9792C71.0326 9.43417 70.2003 7.41417 68.5388 5.72389C66.8773 4.03361 64.8349 3.18527 62.4116 3.18527V3.18207Z" fill="white"/>
</g>
<defs>
<clipPath id="clip0_1303_12209">
<rect width="152.752" height="24" fill="white"/>
</clipPath>
</defs>
</svg>
