<svg width="101" height="80" viewBox="0 0 101 80" fill="none" xmlns="http://www.w3.org/2000/svg">
<mask id="mask0_114_110" style="mask-type:luminance" maskUnits="userSpaceOnUse" x="54" y="2" width="23" height="23">
<path d="M56.3055 3.19846C54.8895 4.17258 54.4902 6.11116 55.4024 7.58967C57.8533 11.4487 58.8502 13.356 61.3017 17.215C63.5487 20.7542 64.7483 24.6547 69.3321 24.7626C71.603 24.816 73.8591 24.4258 76.1191 24.1475V21.2689C75.5852 21.2984 75.0507 21.3109 74.5157 21.2984C69.9319 21.1905 68.7323 17.29 66.4847 13.7508C64.0332 9.89122 63.0369 7.98443 60.586 4.12486C59.9805 3.19901 58.9933 2.69691 57.9834 2.69691C57.3873 2.69775 56.8043 2.87201 56.3055 3.19846Z" fill="white"/>
</mask>
<g mask="url(#mask0_114_110)">
<mask id="mask1_114_110" style="mask-type:luminance" maskUnits="userSpaceOnUse" x="-361" y="-380" width="944" height="616">
<path d="M-360.467 235.672H582.418V-379.474H-360.467V235.672Z" fill="white"/>
</mask>
<g mask="url(#mask1_114_110)">
<rect x="54.175" y="2.22266" width="22.1521" height="22.7201" fill="white"/>
</g>
</g>
<mask id="mask2_114_110" style="mask-type:luminance" maskUnits="userSpaceOnUse" x="40" y="-1" width="37" height="35">
<path d="M41.484 0.498688C40.0679 1.47281 39.6692 3.41139 40.5808 4.8899C43.0323 8.74947 49.586 19.6562 52.0369 23.5164C54.2845 27.055 55.4835 30.9555 60.0679 31.0634C61.8827 31.1066 63.6889 30.8657 65.4946 30.6249C67.444 30.3648 69.3945 30.1052 71.3547 30.2012C74.0652 30.3347 74.8189 31.2207 76.1191 33.2383V26.7216C74.2998 26.6779 72.489 26.9193 70.6782 27.1607C68.8725 27.4015 67.0662 27.6418 65.2515 27.5992C60.6671 27.4912 59.4681 23.5908 57.2205 20.0516C54.7696 16.192 48.2159 5.28523 45.7644 1.42566C45.1589 0.499249 44.1718 -0.00230026 43.1619 -0.00230026C42.5658 -0.00157166 41.9828 0.172501 41.484 0.498688Z" fill="white"/>
</mask>
<g mask="url(#mask2_114_110)">
<mask id="mask3_114_110" style="mask-type:luminance" maskUnits="userSpaceOnUse" x="-361" y="-380" width="944" height="616">
<path d="M-360.468 235.672H582.418V-379.474H-360.468V235.672Z" fill="white"/>
</mask>
<g mask="url(#mask3_114_110)">
<path d="M40.0439 -0.00390625H76.9642V33.5082H40.0439V-0.00390625Z" fill="white"/>
</g>
</g>
<mask id="mask4_114_110" style="mask-type:luminance" maskUnits="userSpaceOnUse" x="34" y="11" width="43" height="41">
<path d="M35.5569 12.2734C34.1409 13.247 33.7422 15.1861 34.6538 16.6641C37.1048 20.5237 40.3214 25.7419 42.7723 29.602C45.0205 33.1412 46.219 37.0417 50.8033 37.1496C52.6181 37.1922 54.4243 36.9508 56.2306 36.7106C58.18 36.4498 60.1299 36.1903 62.0901 36.2863C64.95 36.4277 65.631 37.4052 67.0737 39.6653C68.1768 41.3937 71.423 46.7057 74.0761 51.0293H76.1192V42.2787C74.8338 40.2521 73.5484 38.2243 72.2574 36.2011C70.8146 33.9404 70.1336 32.9629 67.2737 32.822C65.3135 32.726 63.3641 32.9862 61.4153 33.2457C59.6091 33.4866 57.8022 33.728 55.9869 33.6848C51.4025 33.5769 50.2041 29.6764 47.9559 26.1378C45.505 22.2776 42.2884 17.0594 39.8374 13.1998C39.2319 12.2734 38.2448 11.7719 37.2354 11.7719C36.6391 11.7727 36.0559 11.947 35.5569 12.2734Z" fill="white"/>
</mask>
<g mask="url(#mask4_114_110)">
<mask id="mask5_114_110" style="mask-type:luminance" maskUnits="userSpaceOnUse" x="-361" y="-380" width="944" height="616">
<path d="M-360.468 235.672H582.418V-379.474H-360.468V235.672Z" fill="white"/>
</mask>
<g mask="url(#mask5_114_110)">
<rect x="33.7267" y="11.3086" width="42.6003" height="39.7601" fill="white"/>
</g>
</g>
<mask id="mask6_114_110" style="mask-type:luminance" maskUnits="userSpaceOnUse" x="23" y="8" width="46" height="44">
<path d="M23.9912 20.338C28.0377 26.9365 32.2239 33.7667 33.5087 35.7899C35.7563 39.3291 36.9548 43.229 41.5397 43.3369C43.3545 43.3801 45.1601 43.1393 46.9664 42.8984C48.9164 42.6383 50.8657 42.3787 52.8265 42.4747C55.6852 42.6156 56.3668 43.5925 57.8096 45.8532C58.9086 47.5748 60.0026 49.3004 61.0972 51.0254H68.6318C66.4324 47.6685 63.9986 43.9646 62.9932 42.3889C61.5505 40.1283 60.8688 39.1508 58.0101 39.0105C56.0493 38.9145 54.0999 39.1741 52.15 39.4342C50.3437 39.675 48.538 39.9159 46.7233 39.8727C42.1383 39.7648 40.9399 35.8643 38.6923 32.3257C36.8179 29.3749 28.7727 16.1984 23.9912 8.43097V20.338Z" fill="white"/>
</mask>
<g mask="url(#mask6_114_110)">
<mask id="mask7_114_110" style="mask-type:luminance" maskUnits="userSpaceOnUse" x="-361" y="-380" width="944" height="616">
<path d="M-360.468 235.672H582.418V-379.474H-360.468V235.672Z" fill="white"/>
</mask>
<g mask="url(#mask7_114_110)">
<rect x="23.5029" y="7.90234" width="45.4403" height="43.1681" fill="white"/>
</g>
</g>
<mask id="mask8_114_110" style="mask-type:luminance" maskUnits="userSpaceOnUse" x="23" y="29" width="33" height="23">
<path d="M23.9912 41.5874L24.244 41.9856C26.4921 45.5242 27.6906 49.4247 32.275 49.5326C34.0897 49.5758 35.896 49.335 37.7017 49.0941C39.6516 48.834 41.601 48.5744 43.5618 48.6704C45.9474 48.788 46.817 49.4883 47.8775 51.0293H55.2837C54.7657 50.2148 54.2488 49.3986 53.729 48.5846C52.2858 46.3245 51.6047 45.3465 48.7454 45.2062C46.7852 45.1096 44.8353 45.3697 42.8853 45.6299C41.0796 45.8707 39.2734 46.1116 37.4586 46.0684C32.8742 45.9605 31.6752 42.06 29.4276 38.5208L23.9912 29.9616V41.5874Z" fill="white"/>
</mask>
<g mask="url(#mask8_114_110)">
<mask id="mask9_114_110" style="mask-type:luminance" maskUnits="userSpaceOnUse" x="-361" y="-380" width="944" height="616">
<path d="M-360.467 235.672H582.418V-379.474H-360.467V235.672Z" fill="white"/>
</mask>
<g mask="url(#mask9_114_110)">
<rect x="23.5029" y="29.4883" width="31.8082" height="21.5841" fill="white"/>
</g>
</g>
<g clip-path="url(#clip0_114_110)">
<path d="M-0.00012207 70.6555V70.605C-0.00012207 65.5821 3.66009 61.4221 8.65624 61.4221C11.7473 61.4221 13.6019 62.5888 15.3825 64.2632L14.4681 65.2271C12.9589 63.7304 11.2276 62.6143 8.63068 62.6143C4.4763 62.6143 1.33524 66.0894 1.33524 70.5539V70.605C1.33524 75.0944 4.52572 78.595 8.65567 78.595C11.1538 78.595 12.86 77.6067 14.6157 75.83L15.4814 76.6934C13.6513 78.545 11.6729 79.7873 8.60625 79.7873C3.66008 79.7873 -0.00012207 75.7545 -0.00012207 70.6555ZM31.6786 73.3194L27.1289 63.046L22.5536 73.3194H31.6786ZM26.5353 61.5999H27.7718L35.8341 79.4834H34.4243L32.2233 74.5117H22.0094L19.8084 79.4834H18.473L26.5353 61.5999ZM41.718 62.9443V78.2656H46.1945C51.0174 78.2656 54.059 74.8917 54.059 70.6555V70.6044C54.059 66.3944 51.0174 62.9443 46.1945 62.9443H41.718ZM40.4321 61.7265H46.1945C51.6359 61.7265 55.3944 65.5571 55.3944 70.5544V70.605C55.3944 75.6022 51.6354 79.4828 46.1945 79.4828H40.4321V61.7265ZM60.7104 61.7265H61.9225L68.872 72.2289L75.8215 61.7265H77.0331V79.4828H75.7471V64.061L68.8964 74.2833H68.7976L61.9469 64.061V79.4834H60.7104V61.7265ZM98.4235 70.6555V70.605C98.4235 66.2166 95.3074 62.6143 91.0287 62.6143C86.7505 62.6143 83.6844 66.1655 83.6844 70.5539V70.605C83.6844 74.9928 86.7999 78.595 91.0786 78.595C95.3568 78.595 98.4235 75.0439 98.4235 70.6555ZM82.349 70.6555V70.605C82.349 65.7599 85.8354 61.4221 91.0792 61.4221C96.3219 61.4221 99.7594 65.7094 99.7594 70.5539V70.605C99.7594 75.45 96.2719 79.7873 91.0292 79.7873C85.7866 79.7873 82.3484 75.5006 82.3484 70.6555M162.521 68.4073V68.3591C162.521 63.5402 166.032 59.5488 170.825 59.5488C173.791 59.5488 175.571 60.6678 177.279 62.2746L176.401 63.1993C174.954 61.7634 173.293 60.6928 170.802 60.6928C166.816 60.6928 163.802 64.0269 163.802 68.3097V68.3591C163.802 72.6668 166.863 76.0248 170.826 76.0248C173.222 76.0248 174.859 75.0757 176.544 73.3723L177.374 74.1998C175.619 75.976 173.72 77.1688 170.778 77.1688C166.032 77.1688 162.521 73.299 162.521 68.4073ZM192.914 70.9622L188.549 61.1063L184.158 70.9628L192.914 70.9622ZM187.979 59.7192H189.165L196.901 76.8768H195.548L193.436 72.1067H183.636L181.525 76.8768H180.243L187.979 59.7192ZM202.546 61.0092V75.709H206.841C211.468 75.709 214.387 72.4714 214.387 68.4068V68.3591C214.387 64.3189 211.468 61.0092 206.841 61.0092H202.546ZM201.313 59.8408H206.841C212.061 59.8408 215.668 63.5157 215.668 68.3097V68.3591C215.668 73.153 212.061 76.8763 206.841 76.8763H201.313V59.8408ZM220.768 59.8408H221.93L228.599 69.9166L235.266 59.8402H236.428V76.8768H235.194V62.0798L228.622 71.8875H228.526L221.955 62.0798V76.8763H220.767L220.768 59.8408ZM256.951 68.4073V68.3591C256.951 64.1485 253.962 60.6928 249.857 60.6928C245.752 60.6928 242.809 64.0996 242.809 68.3097V68.3591C242.809 72.5691 245.799 76.0248 249.904 76.0248C254.009 76.0248 256.951 72.6179 256.951 68.4073ZM241.528 68.4073V68.3591C241.528 63.7106 244.874 59.5488 249.904 59.5488C254.934 59.5488 258.232 63.6612 258.232 68.3102V68.3591C258.232 73.007 254.887 77.1688 249.857 77.1688C244.826 77.1688 241.528 73.0559 241.528 68.4073Z" fill="white"/>
</g>
<defs>
<clipPath id="clip0_114_110">
<rect width="100.111" height="20.448" fill="white" transform="translate(-0.00012207 59.5488)"/>
</clipPath>
</defs>
</svg>
