<svg width="22" height="22" viewBox="0 0 22 22" fill="none" xmlns="http://www.w3.org/2000/svg">
<path d="M11.8715 5.32632C13.0713 5.52742 14.1613 6.09414 15.0315 6.9625C15.9016 7.83087 16.4649 8.91861 16.671 10.116M12.0547 1.40039C14.1888 1.76145 16.1352 2.77149 17.6831 4.3117C19.2311 5.85647 20.2386 7.79887 20.6004 9.92865M18.9333 18.4021C18.9333 18.4021 17.7747 19.5401 17.4907 19.8737C17.0282 20.3673 16.4832 20.6004 15.7688 20.6004C15.7001 20.6004 15.6268 20.6004 15.5581 20.5958C14.1979 20.509 12.9339 19.9788 11.9859 19.5264C9.39383 18.2741 7.11773 16.4962 5.22631 14.243C3.66463 12.3646 2.62046 10.6279 1.92893 8.76321C1.50302 7.62519 1.34731 6.73854 1.416 5.90217C1.4618 5.36744 1.66789 4.92412 2.048 4.54478L3.60968 2.9863C3.83408 2.77606 4.07223 2.6618 4.30579 2.6618C4.59431 2.6618 4.82788 2.83547 4.97443 2.98173C4.97901 2.9863 4.98359 2.99087 4.98817 2.99544C5.26753 3.25595 5.53315 3.5256 5.81251 3.81353C5.95448 3.95978 6.10103 4.10603 6.24758 4.25685L7.49784 5.50455C7.98329 5.98901 7.98329 6.4369 7.49784 6.92136C7.36503 7.0539 7.2368 7.18644 7.10399 7.31441C6.71929 7.70746 7.02149 7.40587 6.62306 7.76236C6.6139 7.7715 6.60474 7.77607 6.60016 7.78521C6.2063 8.17826 6.27958 8.56217 6.36201 8.82268C6.36659 8.83639 6.37117 8.8501 6.37575 8.86381C6.70091 9.64991 7.15888 10.3903 7.855 11.2724L7.85958 11.277C9.12357 12.8309 10.4563 14.042 11.9263 14.9698C12.1141 15.0886 12.3065 15.1846 12.4896 15.276C12.6545 15.3583 12.8102 15.436 12.943 15.5182C12.9614 15.5274 12.9797 15.5411 12.998 15.5502C13.1537 15.6279 13.3003 15.6645 13.4514 15.6645C13.8315 15.6645 14.0696 15.4268 14.1475 15.3491L15.0452 14.4533C15.2009 14.2979 15.4482 14.1105 15.7367 14.1105C16.0207 14.1105 16.2542 14.2887 16.3962 14.4441C16.4008 14.4487 16.4008 14.4487 16.4054 14.4533L18.9288 16.9715C19.4005 17.4377 18.9333 18.4021 18.9333 18.4021Z" stroke="#173525" stroke-width="2" stroke-linecap="round" stroke-linejoin="round"/>
</svg>
