<svg width="50" height="50" viewBox="0 0 28 28" fill="none" xmlns="http://www.w3.org/2000/svg">
<circle cx="14" cy="14" r="14" fill="white"/>
<path fill-rule="evenodd" clip-rule="evenodd" d="M14 0C6.26802 0 0 6.26801 0 14C0 21.732 6.26802 28 14 28C21.732 28 28 21.732 28 14C28 6.26801 21.732 0 14 0ZM16.7284 7C16.7284 7.20804 16.7479 7.41291 16.7837 7.6112C16.9558 8.52781 17.4983 9.3144 18.2518 9.80518C18.7779 10.1498 19.4015 10.348 20.0738 10.348L20.0737 10.8844V12.7534C18.8265 12.7534 17.6703 12.3536 16.7284 11.6775V16.5695C16.7284 19.0107 14.7408 21 12.3017 21C11.3599 21 10.4829 20.7009 9.76514 20.1971C8.62196 19.3942 7.875 18.068 7.875 16.5695C7.875 14.1251 9.8594 12.1391 12.2985 12.1423C12.5031 12.1423 12.7012 12.1586 12.8961 12.1846V12.7534L12.8889 12.7568L12.896 12.7566V14.642C12.7077 14.5834 12.5063 14.5477 12.2985 14.5477C11.1845 14.5477 10.2783 15.4546 10.2783 16.5695C10.2783 17.3464 10.72 18.0193 11.3631 18.3606C11.3691 18.3688 11.3752 18.377 11.3813 18.3851L11.3921 18.3993C11.3847 18.385 11.3761 18.371 11.3664 18.3573C11.6489 18.5068 11.9672 18.5913 12.305 18.5913C13.3929 18.5913 14.2829 17.7235 14.3218 16.6443L14.3251 7H16.7284Z" fill="black"/>
</svg>
