<svg width="55" height="44" viewBox="0 0 55 44" fill="none" xmlns="http://www.w3.org/2000/svg">
<path d="M40.9583 13.9997V8.66634C40.9583 7.25185 40.3964 5.8953 39.3962 4.8951C38.396 3.89491 37.0395 3.33301 35.625 3.33301H8.95833C7.54385 3.33301 6.18729 3.89491 5.1871 4.8951C4.1869 5.8953 3.625 7.25185 3.625 8.66634V24.6663C3.625 26.0808 4.1869 27.4374 5.1871 28.4376C6.18729 29.4378 7.54385 29.9997 8.95833 29.9997H14.2917M19.625 13.9997H46.2917C49.2372 13.9997 51.625 16.3875 51.625 19.333V35.333C51.625 38.2785 49.2372 40.6663 46.2917 40.6663H19.625C16.6795 40.6663 14.2917 38.2785 14.2917 35.333V19.333C14.2917 16.3875 16.6795 13.9997 19.625 13.9997ZM38.2917 27.333C38.2917 30.2785 35.9039 32.6663 32.9583 32.6663C30.0128 32.6663 27.625 30.2785 27.625 27.333C27.625 24.3875 30.0128 21.9997 32.9583 21.9997C35.9039 21.9997 38.2917 24.3875 38.2917 27.333Z" stroke="white" stroke-width="5.33333" stroke-linecap="round" stroke-linejoin="round"/>
</svg>
