<svg width="50" height="50" viewBox="0 0 28 28" fill="none" xmlns="http://www.w3.org/2000/svg">
<circle cx="14" cy="14" r="14" fill="white"/>
<path d="M20.2071 10.9851C19.7881 11.1713 19.3458 11.2877 18.8802 11.3575C19.3458 11.0782 19.7183 10.6359 19.8812 10.1005C19.4389 10.3565 18.9501 10.5428 18.4146 10.6591C17.9956 10.2168 17.3904 9.9375 16.7386 9.9375C15.4815 9.9375 14.4572 10.9618 14.4572 12.2188C14.4572 12.4051 14.4805 12.568 14.5271 12.731C12.6415 12.6379 10.9421 11.73 9.80141 10.3332C9.61518 10.6824 9.49878 11.0549 9.49878 11.4739C9.49878 12.2654 9.89453 12.9638 10.5231 13.3828C10.1506 13.3595 9.80141 13.2664 9.4755 13.1034V13.1267C9.4755 14.2441 10.267 15.1753 11.3145 15.3848C11.1283 15.4313 10.9188 15.4546 10.7093 15.4546C10.5696 15.4546 10.4067 15.4313 10.267 15.4081C10.5696 16.316 11.4077 16.991 12.4087 16.991C11.6172 17.5963 10.6395 17.9688 9.56862 17.9688C9.38239 17.9688 9.19616 17.9688 9.0332 17.9455C10.0575 18.5973 11.2447 18.9698 12.5483 18.9698C16.7618 18.9698 19.0665 15.4779 19.0665 12.4516C19.0665 12.3585 19.0665 12.2421 19.0665 12.149C19.5088 11.8464 19.9045 11.4506 20.2071 10.9851Z" fill="black"/>
</svg>
