<svg width="70" height="70" viewBox="0 0 70 70" fill="none" xmlns="http://www.w3.org/2000/svg">
<circle cx="35" cy="35" r="35" fill="#E38533"/>
<path fill-rule="evenodd" clip-rule="evenodd" d="M34.476 22.1483C34.7974 21.9506 35.2028 21.9506 35.5242 22.1483L48.5242 30.1483C48.9052 30.3828 49.0841 30.8419 48.9623 31.2723C48.8404 31.7028 48.4475 32 48.0001 32H22.0001C21.5527 32 21.1597 31.7028 21.0379 31.2723C20.916 30.8419 21.095 30.3828 21.476 30.1483L34.476 22.1483ZM25.5331 30H44.467L35.0001 24.1742L25.5331 30Z" fill="white"/>
<path fill-rule="evenodd" clip-rule="evenodd" d="M26 30C26.5523 30 27 30.4477 27 31V41C27 41.5523 26.5523 42 26 42C25.4477 42 25 41.5523 25 41V31C25 30.4477 25.4477 30 26 30Z" fill="white"/>
<path fill-rule="evenodd" clip-rule="evenodd" d="M32 30C32.5523 30 33 30.4477 33 31V41C33 41.5523 32.5523 42 32 42C31.4477 42 31 41.5523 31 41V31C31 30.4477 31.4477 30 32 30Z" fill="white"/>
<path fill-rule="evenodd" clip-rule="evenodd" d="M38 30C38.5523 30 39 30.4477 39 31V41C39 41.5523 38.5523 42 38 42C37.4477 42 37 41.5523 37 41V31C37 30.4477 37.4477 30 38 30Z" fill="white"/>
<path fill-rule="evenodd" clip-rule="evenodd" d="M44 30C44.5523 30 45 30.4477 45 31V41C45 41.5523 44.5523 42 44 42C43.4477 42 43 41.5523 43 41V31C43 30.4477 43.4477 30 44 30Z" fill="white"/>
<path fill-rule="evenodd" clip-rule="evenodd" d="M22 41C22 40.4477 22.4477 40 23 40H47C47.5523 40 48 40.4477 48 41C48 41.5523 47.5523 42 47 42H23C22.4477 42 22 41.5523 22 41Z" fill="white"/>
<path fill-rule="evenodd" clip-rule="evenodd" d="M20 45C20 44.4477 20.4477 44 21 44H49C49.5523 44 50 44.4477 50 45C50 45.5523 49.5523 46 49 46H21C20.4477 46 20 45.5523 20 45Z" fill="white"/>
</svg>
