<svg width="16" height="16" viewBox="0 0 16 16" fill="none" xmlns="http://www.w3.org/2000/svg">
<path d="M11.9993 7.99776C11.9961 7.64703 11.8548 7.3117 11.606 7.06443L8.74602 4.19777C8.62111 4.0736 8.45214 4.00391 8.27602 4.00391C8.09989 4.00391 7.93092 4.0736 7.80602 4.19777C7.74353 4.25974 7.69393 4.33348 7.66009 4.41472C7.62624 4.49596 7.60882 4.58309 7.60882 4.6711C7.60882 4.75911 7.62624 4.84625 7.66009 4.92748C7.69393 5.00872 7.74353 5.08246 7.80602 5.14443L9.99935 7.3311H3.33268C3.15587 7.3311 2.9863 7.40134 2.86128 7.52636C2.73625 7.65138 2.66602 7.82095 2.66602 7.99776C2.66602 8.17457 2.73625 8.34414 2.86128 8.46917C2.9863 8.59419 3.15587 8.66443 3.33268 8.66443H9.99935L7.80602 10.8578C7.68048 10.9824 7.6096 11.1518 7.60898 11.3287C7.60835 11.5056 7.67803 11.6756 7.80268 11.8011C7.92733 11.9266 8.09675 11.9975 8.27366 11.9981C8.45057 11.9988 8.62048 11.9291 8.74602 11.8044L11.606 8.93776C11.8564 8.68886 11.9979 8.35081 11.9993 7.99776V7.99776Z" fill="white"/>
</svg>
