<svg width="70" height="70" viewBox="0 0 70 70" fill="none" xmlns="http://www.w3.org/2000/svg">
<circle cx="35" cy="35" r="35" fill="#E38533"/>
<path d="M34.2 47.7991H26.2C24.4327 47.7991 23 46.3664 23 44.5991L23.0001 25.3992C23.0001 23.6319 24.4328 22.1992 26.2001 22.1992H40.6005C42.3678 22.1992 43.8005 23.6319 43.8005 25.3992V31.7992M45.4 45.3992L47 46.9992M28.6005 28.5992H38.2005M28.6005 33.3992H38.2005M28.6005 38.1992H33.4005M46.2 42.1992C46.2 44.4084 44.4091 46.1992 42.2 46.1992C39.9909 46.1992 38.2 44.4084 38.2 42.1992C38.2 39.9901 39.9909 38.1992 42.2 38.1992C44.4091 38.1992 46.2 39.9901 46.2 42.1992Z" stroke="white" stroke-width="2.66667" stroke-linecap="round" stroke-linejoin="round"/>
</svg>
