<svg width="70" height="70" viewBox="0 0 70 70" fill="none" xmlns="http://www.w3.org/2000/svg">
<circle cx="35" cy="35" r="35" fill="#E38533"/>
<path fill-rule="evenodd" clip-rule="evenodd" d="M34 35C34 34.4477 34.4477 34 35 34H46C46.5523 34 47 34.4477 47 35C47 35.5523 46.5523 36 46 36H35C34.4477 36 34 35.5523 34 35Z" fill="white"/>
<path fill-rule="evenodd" clip-rule="evenodd" d="M34 27C34 26.4477 34.4477 26 35 26H46C46.5523 26 47 26.4477 47 27C47 27.5523 46.5523 28 46 28H35C34.4477 28 34 27.5523 34 27Z" fill="white"/>
<path fill-rule="evenodd" clip-rule="evenodd" d="M34 43C34 42.4477 34.4477 42 35 42H46C46.5523 42 47 42.4477 47 43C47 43.5523 46.5523 44 46 44H35C34.4477 44 34 43.5523 34 43Z" fill="white"/>
<path fill-rule="evenodd" clip-rule="evenodd" d="M31.2351 24.3221C31.6095 24.7281 31.5839 25.3607 31.1779 25.7351L26.8404 29.7351C26.4571 30.0887 25.8664 30.0882 25.4835 29.7342L23.321 27.7342C22.9156 27.3592 22.8909 26.7265 23.2659 26.321C23.6408 25.9156 24.2735 25.8909 24.679 26.2659L26.1635 27.6388L29.8221 24.2649C30.2281 23.8905 30.8607 23.9161 31.2351 24.3221Z" fill="white"/>
<path fill-rule="evenodd" clip-rule="evenodd" d="M31.2351 32.3221C31.6095 32.7281 31.5839 33.3607 31.1779 33.7351L26.8404 37.7351C26.4571 38.0887 25.8664 38.0882 25.4835 37.7342L23.321 35.7342C22.9156 35.3592 22.8909 34.7265 23.2659 34.321C23.6408 33.9156 24.2735 33.8909 24.679 34.2659L26.1635 35.6388L29.8221 32.2649C30.2281 31.8905 30.8607 31.9161 31.2351 32.3221Z" fill="white"/>
<path fill-rule="evenodd" clip-rule="evenodd" d="M31.2351 40.3221C31.6095 40.7281 31.5839 41.3607 31.1779 41.7351L26.8404 45.7351C26.4571 46.0887 25.8664 46.0882 25.4835 45.7342L23.321 43.7342C22.9156 43.3592 22.8909 42.7265 23.2659 42.321C23.6408 41.9156 24.2735 41.8909 24.679 42.2659L26.1635 43.6388L29.8221 40.2649C30.2281 39.8905 30.8607 39.9161 31.2351 40.3221Z" fill="white"/>
</svg>
