<svg width="64" height="64" viewBox="0 0 64 64" fill="none" xmlns="http://www.w3.org/2000/svg">
<circle cx="32" cy="32" r="32" fill="#E38533"/>
<mask id="mask0_28_3467" style="mask-type:alpha" maskUnits="userSpaceOnUse" x="16" y="16" width="32" height="32">
<rect x="16" y="16" width="32" height="32" fill="#D9D9D9"/>
</mask>
<g mask="url(#mask0_28_3467)">
<path d="M29 44C27.8667 44 26.8889 43.6056 26.0667 42.8167C25.2444 42.0278 24.7778 41.0778 24.6667 39.9667C23.3333 39.7889 22.2222 39.2 21.3333 38.2C20.4444 37.2 20 36.0222 20 34.6667C20 34.2 20.0611 33.7389 20.1833 33.2833C20.3056 32.8278 20.4889 32.4 20.7333 32C20.4889 31.6 20.3056 31.1778 20.1833 30.7333C20.0611 30.2889 20 29.8222 20 29.3333C20 27.9778 20.4444 26.8056 21.3333 25.8167C22.2222 24.8278 23.3222 24.2444 24.6333 24.0667C24.7 22.9333 25.1556 21.9722 26 21.1833C26.8444 20.3944 27.8444 20 29 20C29.5778 20 30.1167 20.1111 30.6167 20.3333C31.1167 20.5556 31.5778 20.8556 32 21.2333C32.4 20.8556 32.8556 20.5556 33.3667 20.3333C33.8778 20.1111 34.4222 20 35 20C36.1556 20 37.15 20.3889 37.9833 21.1667C38.8167 21.9444 39.2667 22.9 39.3333 24.0333C40.6444 24.2111 41.75 24.8 42.65 25.8C43.55 26.8 44 27.9778 44 29.3333C44 29.8222 43.9389 30.2889 43.8167 30.7333C43.6944 31.1778 43.5111 31.6 43.2667 32C43.5111 32.4 43.6944 32.8278 43.8167 33.2833C43.9389 33.7389 44 34.2 44 34.6667C44 36.0444 43.55 37.2278 42.65 38.2167C41.75 39.2056 40.6333 39.7889 39.3 39.9667C39.1889 41.0778 38.7278 42.0278 37.9167 42.8167C37.1056 43.6056 36.1333 44 35 44C34.4444 44 33.9056 43.8944 33.3833 43.6833C32.8611 43.4722 32.4 43.1778 32 42.8C31.5778 43.1778 31.1111 43.4722 30.6 43.6833C30.0889 43.8944 29.5556 44 29 44ZM33.3333 24.3333V39.6667C33.3333 40.1333 33.4944 40.5278 33.8167 40.85C34.1389 41.1722 34.5333 41.3333 35 41.3333C35.4444 41.3333 35.8278 41.1556 36.15 40.8C36.4722 40.4444 36.6444 40.0444 36.6667 39.6C36.2 39.4222 35.7722 39.1833 35.3833 38.8833C34.9944 38.5833 34.6444 38.2222 34.3333 37.8C34.1111 37.4889 34.0278 37.1556 34.0833 36.8C34.1389 36.4444 34.3222 36.1556 34.6333 35.9333C34.9444 35.7111 35.2778 35.6278 35.6333 35.6833C35.9889 35.7389 36.2778 35.9222 36.5 36.2333C36.7444 36.5889 37.0556 36.8611 37.4333 37.05C37.8111 37.2389 38.2222 37.3333 38.6667 37.3333C39.4 37.3333 40.0278 37.0722 40.55 36.55C41.0722 36.0278 41.3333 35.4 41.3333 34.6667C41.3333 34.5556 41.3278 34.4444 41.3167 34.3333C41.3056 34.2222 41.2778 34.1111 41.2333 34C40.8556 34.2222 40.45 34.3889 40.0167 34.5C39.5833 34.6111 39.1333 34.6667 38.6667 34.6667C38.2889 34.6667 37.9722 34.5389 37.7167 34.2833C37.4611 34.0278 37.3333 33.7111 37.3333 33.3333C37.3333 32.9556 37.4611 32.6389 37.7167 32.3833C37.9722 32.1278 38.2889 32 38.6667 32C39.4 32 40.0278 31.7389 40.55 31.2167C41.0722 30.6944 41.3333 30.0667 41.3333 29.3333C41.3333 28.6 41.0722 27.9778 40.55 27.4667C40.0278 26.9556 39.4 26.6889 38.6667 26.6667C38.4222 27.0667 38.1056 27.4167 37.7167 27.7167C37.3278 28.0167 36.9 28.2556 36.4333 28.4333C36.0778 28.5667 35.7333 28.5556 35.4 28.4C35.0667 28.2444 34.8444 27.9889 34.7333 27.6333C34.6222 27.2778 34.6389 26.9333 34.7833 26.6C34.9278 26.2667 35.1778 26.0444 35.5333 25.9333C35.8667 25.8222 36.1389 25.6222 36.35 25.3333C36.5611 25.0444 36.6667 24.7111 36.6667 24.3333C36.6667 23.8667 36.5056 23.4722 36.1833 23.15C35.8611 22.8278 35.4667 22.6667 35 22.6667C34.5333 22.6667 34.1389 22.8278 33.8167 23.15C33.4944 23.4722 33.3333 23.8667 33.3333 24.3333ZM30.6667 39.6667V24.3333C30.6667 23.8667 30.5056 23.4722 30.1833 23.15C29.8611 22.8278 29.4667 22.6667 29 22.6667C28.5333 22.6667 28.1389 22.8278 27.8167 23.15C27.4944 23.4722 27.3333 23.8667 27.3333 24.3333C27.3333 24.6889 27.4333 25.0167 27.6333 25.3167C27.8333 25.6167 28.1 25.8222 28.4333 25.9333C28.7889 26.0444 29.0444 26.2667 29.2 26.6C29.3556 26.9333 29.3778 27.2778 29.2667 27.6333C29.1333 27.9889 28.9 28.2444 28.5667 28.4C28.2333 28.5556 27.8889 28.5667 27.5333 28.4333C27.0667 28.2556 26.6389 28.0167 26.25 27.7167C25.8611 27.4167 25.5444 27.0667 25.3 26.6667C24.5889 26.6889 23.9722 26.9611 23.45 27.4833C22.9278 28.0056 22.6667 28.6222 22.6667 29.3333C22.6667 30.0667 22.9278 30.6944 23.45 31.2167C23.9722 31.7389 24.6 32 25.3333 32C25.7111 32 26.0278 32.1278 26.2833 32.3833C26.5389 32.6389 26.6667 32.9556 26.6667 33.3333C26.6667 33.7111 26.5389 34.0278 26.2833 34.2833C26.0278 34.5389 25.7111 34.6667 25.3333 34.6667C24.8667 34.6667 24.4167 34.6111 23.9833 34.5C23.55 34.3889 23.1444 34.2222 22.7667 34C22.7222 34.1111 22.6944 34.2222 22.6833 34.3333C22.6722 34.4444 22.6667 34.5556 22.6667 34.6667C22.6667 35.4 22.9278 36.0278 23.45 36.55C23.9722 37.0722 24.6 37.3333 25.3333 37.3333C25.7778 37.3333 26.1889 37.2389 26.5667 37.05C26.9444 36.8611 27.2556 36.5889 27.5 36.2333C27.7222 35.9222 28.0111 35.7389 28.3667 35.6833C28.7222 35.6278 29.0556 35.7111 29.3667 35.9333C29.6778 36.1556 29.8611 36.4444 29.9167 36.8C29.9722 37.1556 29.8889 37.4889 29.6667 37.8C29.3556 38.2222 29 38.5889 28.6 38.9C28.2 39.2111 27.7667 39.4556 27.3 39.6333C27.3222 40.0778 27.5 40.4722 27.8333 40.8167C28.1667 41.1611 28.5556 41.3333 29 41.3333C29.4667 41.3333 29.8611 41.1722 30.1833 40.85C30.5056 40.5278 30.6667 40.1333 30.6667 39.6667Z" fill="white"/>
</g>
</svg>
