<svg width="70" height="70" viewBox="0 0 70 70" fill="none" xmlns="http://www.w3.org/2000/svg">
<circle cx="35" cy="35" r="35" fill="#E38533"/>
<path fill-rule="evenodd" clip-rule="evenodd" d="M48.7071 25.2929C49.0976 25.6834 49.0976 26.3166 48.7071 26.7071L36.7071 38.7071C36.3166 39.0976 35.6834 39.0976 35.2929 38.7071L31 34.4142L22.7071 42.7071C22.3166 43.0976 21.6834 43.0976 21.2929 42.7071C20.9024 42.3166 20.9024 41.6834 21.2929 41.2929L30.2929 32.2929C30.6834 31.9024 31.3166 31.9024 31.7071 32.2929L36 36.5858L47.2929 25.2929C47.6834 24.9024 48.3166 24.9024 48.7071 25.2929Z" fill="white"/>
<path fill-rule="evenodd" clip-rule="evenodd" d="M39 26C39 25.4477 39.4477 25 40 25H48C48.5523 25 49 25.4477 49 26V34C49 34.5523 48.5523 35 48 35C47.4477 35 47 34.5523 47 34V27H40C39.4477 27 39 26.5523 39 26Z" fill="white"/>
</svg>
