<svg width="30" height="30" viewBox="0 0 30 30" fill="none" xmlns="http://www.w3.org/2000/svg">
<g clip-path="url(#clip0_1210_1211)">
<path d="M22.5011 27.5009H16.2511V3.52964L21.6261 8.90464C21.8619 9.13234 22.1776 9.25833 22.5054 9.25548C22.8331 9.25263 23.1466 9.12117 23.3784 8.88941C23.6101 8.65765 23.7416 8.34414 23.7445 8.01639C23.7473 7.68865 23.6213 7.37289 23.3936 7.13714L17.2111 0.954645C16.9209 0.664374 16.5764 0.434115 16.1972 0.277018C15.818 0.11992 15.4116 0.0390625 15.0011 0.0390625C14.5907 0.0390625 14.1842 0.11992 13.805 0.277018C13.4258 0.434115 13.0813 0.664374 12.7911 0.954645L6.60361 7.14214C6.36923 7.37719 6.23781 7.69572 6.23828 8.02766C6.23875 8.3596 6.37106 8.67776 6.60611 8.91214C6.84116 9.14653 7.15969 9.27794 7.49163 9.27747C7.82357 9.277 8.14173 9.14469 8.37611 8.90964L13.7511 3.53464V27.5009H7.50111C7.16959 27.5009 6.85165 27.6326 6.61723 27.867C6.38281 28.1014 6.25111 28.4194 6.25111 28.7509C6.25111 29.0824 6.38281 29.4003 6.61723 29.6348C6.85165 29.8692 7.16959 30.0009 7.50111 30.0009H22.5011C22.8326 30.0009 23.1506 29.8692 23.385 29.6348C23.6194 29.4003 23.7511 29.0824 23.7511 28.7509C23.7511 28.4194 23.6194 28.1014 23.385 27.867C23.1506 27.6326 22.8326 27.5009 22.5011 27.5009Z" fill="#505977"/>
</g>
<defs>
<clipPath id="clip0_1210_1211">
<rect width="30" height="30" fill="white"/>
</clipPath>
</defs>
</svg>
