<svg width="64" height="64" viewBox="0 0 64 64" fill="none" xmlns="http://www.w3.org/2000/svg">
<circle cx="32" cy="32" r="32" fill="#E38533"/>
<mask id="mask0_231_9166" style="mask-type:alpha" maskUnits="userSpaceOnUse" x="15" y="16" width="33" height="33">
<rect x="15.873" y="16.3828" width="32" height="32" fill="#D9D9D9"/>
</mask>
<g mask="url(#mask0_231_9166)">
<path d="M31.873 45.7174C31.1397 45.7174 30.5119 45.4563 29.9897 44.9341C29.4675 44.4119 29.2064 43.7841 29.2064 43.0508H34.5397C34.5397 43.7841 34.2786 44.4119 33.7564 44.9341C33.2342 45.4563 32.6064 45.7174 31.873 45.7174ZM26.5397 41.7174V39.0508H37.2064V41.7174H26.5397ZM26.873 37.7174C25.3397 36.8063 24.123 35.5841 23.223 34.0508C22.323 32.5174 21.873 30.8508 21.873 29.0508C21.873 26.273 22.8453 23.9119 24.7897 21.9674C26.7342 20.023 29.0953 19.0508 31.873 19.0508C34.6508 19.0508 37.0119 20.023 38.9564 21.9674C40.9008 23.9119 41.873 26.273 41.873 29.0508C41.873 30.8508 41.423 32.5174 40.523 34.0508C39.623 35.5841 38.4064 36.8063 36.873 37.7174H26.873ZM27.673 35.0508H36.073C37.073 34.3397 37.8453 33.4619 38.3897 32.4174C38.9342 31.373 39.2064 30.2508 39.2064 29.0508C39.2064 27.0063 38.4953 25.273 37.073 23.8508C35.6508 22.4286 33.9175 21.7174 31.873 21.7174C29.8286 21.7174 28.0953 22.4286 26.673 23.8508C25.2508 25.273 24.5397 27.0063 24.5397 29.0508C24.5397 30.2508 24.8119 31.373 25.3564 32.4174C25.9008 33.4619 26.673 34.3397 27.673 35.0508Z" fill="white"/>
</g>
</svg>
