<svg width="19" height="20" viewBox="0 0 19 20" fill="none" xmlns="http://www.w3.org/2000/svg">
<path d="M9.20907 5.27886C6.59639 5.27886 4.489 7.38672 4.489 9.99998C4.489 12.6132 6.59639 14.7211 9.20907 14.7211C11.8217 14.7211 13.9291 12.6132 13.9291 9.99998C13.9291 7.38672 11.8217 5.27886 9.20907 5.27886ZM9.20907 13.0693C7.52069 13.0693 6.1404 11.6928 6.1404 9.99998C6.1404 8.30711 7.51658 6.93063 9.20907 6.93063C10.9016 6.93063 12.2777 8.30711 12.2777 9.99998C12.2777 11.6928 10.8974 13.0693 9.20907 13.0693V13.0693ZM15.2231 5.08574C15.2231 5.69796 14.7302 6.18692 14.1222 6.18692C13.5101 6.18692 13.0213 5.69386 13.0213 5.08574C13.0213 4.47762 13.5142 3.98455 14.1222 3.98455C14.7302 3.98455 15.2231 4.47762 15.2231 5.08574ZM18.3493 6.20336C18.2795 4.72827 17.9426 3.42164 16.8622 2.3451C15.7859 1.26857 14.4796 0.931644 13.0048 0.857684C11.4849 0.771397 6.92914 0.771397 5.40918 0.857684C3.93853 0.927535 2.63219 1.26446 1.55179 2.341C0.471391 3.41753 0.138644 4.72416 0.0647007 6.19925C-0.0215669 7.71954 -0.0215669 12.2763 0.0647007 13.7966C0.134536 15.2717 0.471391 16.5783 1.55179 17.6549C2.63219 18.7314 3.93442 19.0683 5.40918 19.1423C6.92914 19.2286 11.4849 19.2286 13.0048 19.1423C14.4796 19.0724 15.7859 18.7355 16.8622 17.6549C17.9385 16.5783 18.2754 15.2717 18.3493 13.7966C18.4356 12.2763 18.4356 7.72365 18.3493 6.20336V6.20336ZM16.3857 15.4278C16.0653 16.2332 15.445 16.8536 14.6357 17.1782C13.4239 17.659 10.5483 17.548 9.20907 17.548C7.86986 17.548 4.99017 17.6549 3.78242 17.1782C2.97726 16.8577 2.35695 16.2373 2.03242 15.4278C1.55179 14.2157 1.66271 11.3395 1.66271 9.99998C1.66271 8.66048 1.5559 5.78014 2.03242 4.57213C2.35285 3.76678 2.97315 3.14634 3.78242 2.82174C4.99428 2.341 7.86986 2.45194 9.20907 2.45194C10.5483 2.45194 13.428 2.3451 14.6357 2.82174C15.4409 3.14223 16.0612 3.76267 16.3857 4.57213C16.8663 5.78425 16.7554 8.66048 16.7554 9.99998C16.7554 11.3395 16.8663 14.2198 16.3857 15.4278Z" fill="#FDFDFF"/>
</svg>
