<svg width="20" height="20" viewBox="0 0 20 20" fill="none" xmlns="http://www.w3.org/2000/svg">
<path d="M4.87569 19.207H1.05807V6.91289H4.87569V19.207ZM2.96482 5.23586C1.74407 5.23586 0.753906 4.22471 0.753906 3.00393C0.753906 2.41755 0.986841 1.85518 1.40147 1.44055C1.8161 1.02591 2.37845 0.792969 2.96482 0.792969C3.55119 0.792969 4.11355 1.02591 4.52818 1.44055C4.9428 1.85518 5.17574 2.41755 5.17574 3.00393C5.17574 4.22471 4.18516 5.23586 2.96482 5.23586ZM19.1638 19.207H15.3544V13.2223C15.3544 11.796 15.3256 9.96689 13.3696 9.96689C11.3847 9.96689 11.0806 11.5165 11.0806 13.1195V19.207H7.26705V6.91289H10.9285V8.58992H10.9819C11.4916 7.62398 12.7366 6.60461 14.594 6.60461C18.4577 6.60461 19.1679 9.14893 19.1679 12.4537V19.207H19.1638Z" fill="#FDFDFF"/>
</svg>
