<svg width="253" height="80" viewBox="0 0 253 80" fill="none" xmlns="http://www.w3.org/2000/svg">
<g clip-path="url(#clip0_1642_4225)">
<path fill-rule="evenodd" clip-rule="evenodd" d="M252.225 49.5941C252.225 66.342 238.649 79.9187 221.901 79.9187C205.153 79.9187 191.576 66.342 191.576 49.5941C191.576 32.8463 205.153 19.2695 221.901 19.2695C238.649 19.2695 252.225 32.8463 252.225 49.5941ZM239.786 49.5941C239.786 59.4789 231.786 67.4789 221.901 67.4789C212.016 67.4789 204.016 59.4789 204.016 49.5941C204.016 39.7093 212.016 31.7093 221.901 31.7093C231.786 31.7093 239.786 39.7093 239.786 49.5941Z" fill="#888888"/>
<path fill-rule="evenodd" clip-rule="evenodd" d="M187.932 49.5941C187.932 66.342 174.356 79.9187 157.608 79.9187C140.86 79.9187 127.283 66.342 127.283 49.5941C127.283 32.8463 140.86 19.2695 157.608 19.2695C174.356 19.2695 187.932 32.8463 187.932 49.5941ZM175.493 49.5941C175.493 59.4789 167.493 67.4789 157.608 67.4789C147.723 67.4789 139.723 59.4789 139.723 49.5941C139.723 39.7093 147.723 31.7093 157.608 31.7093C167.493 31.7093 175.493 39.7093 175.493 49.5941Z" fill="#888888"/>
<path fill-rule="evenodd" clip-rule="evenodd" d="M124.475 49.5916V49.3403C124.517 49.2565 124.517 49.1309 124.517 49.0471V6.03141C124.517 2.72251 121.795 0 118.486 0C115.135 0 112.454 2.68063 112.454 6.03141V25.3822C107.344 21.5707 101.02 19.267 94.1508 19.267C77.3968 19.267 63.8262 32.8377 63.8262 49.5916C63.8262 66.3456 77.3968 79.9162 94.1508 79.9162C110.905 79.9162 124.475 66.3456 124.475 49.5916ZM112.036 49.59C112.036 59.4675 104.028 67.4748 94.1508 67.4748C84.2733 67.4748 76.2659 59.4675 76.2659 49.59C76.2659 39.7124 84.2733 31.7052 94.1508 31.7052C104.028 31.7052 112.036 39.7124 112.036 49.59Z" fill="#888888"/>
<path fill-rule="evenodd" clip-rule="evenodd" d="M61.6082 49.5082C61.6082 66.256 48.0314 79.8328 31.2836 79.8328C14.5358 79.8328 0.958984 66.256 0.958984 49.5082C0.958984 32.7604 14.5358 19.1836 31.2836 19.1836C48.0314 19.1836 61.6082 32.7604 61.6082 49.5082ZM48.875 49.6344C48.875 59.5119 40.8676 67.5193 30.9901 67.5193C21.1126 67.5193 13.1053 59.5119 13.1053 49.6344C13.1053 39.7569 21.1126 31.7496 30.9901 31.7496C40.8676 31.7496 48.875 39.7569 48.875 49.6344Z" fill="#9C5789"/>
</g>
<defs>
<clipPath id="clip0_1642_4225">
<rect width="251.728" height="80" fill="white" transform="translate(0.791016)"/>
</clipPath>
</defs>
</svg>
