<svg width="70" height="70" viewBox="0 0 70 70" fill="none" xmlns="http://www.w3.org/2000/svg">
<circle cx="35" cy="35" r="35" fill="#E38533"/>
<path fill-rule="evenodd" clip-rule="evenodd" d="M32 47C32 46.4477 32.4477 46 33 46H37C37.5523 46 38 46.4477 38 47C38 47.5523 37.5523 48 37 48H33C32.4477 48 32 47.5523 32 47Z" fill="white"/>
<path fill-rule="evenodd" clip-rule="evenodd" d="M33.7433 20.7014C34.097 20.4097 34.5412 20.25 34.9999 20.25C35.4602 20.25 35.906 20.4108 36.2603 20.7044C37.5019 21.7156 40.1899 24.2225 41.677 28.0879C43.1857 32.0095 43.4156 37.2246 39.8704 43.4939C39.693 43.8077 39.3604 44.0017 38.9999 44.0017H30.9999C30.6426 44.0017 30.3123 43.8109 30.1338 43.5014C26.516 37.2307 26.7376 32.0078 28.2631 28.0802C29.7647 24.2141 32.4867 21.7078 33.7433 20.7014ZM34.9999 22.2573L34.9996 22.2575C33.8781 23.1548 31.4511 25.3964 30.1274 28.8044C28.8628 32.0603 28.5634 36.4811 31.5849 42.0017H38.4091C41.3667 36.4831 41.0635 32.0633 39.8104 28.806C38.5015 25.4039 36.1128 23.1641 34.9999 22.2573Z" fill="white"/>
<path fill-rule="evenodd" clip-rule="evenodd" d="M28.8787 32.1583C29.3026 32.5123 29.3592 33.1429 29.0052 33.5668L25.0884 38.257C25.0887 38.258 25.0889 38.2591 25.0892 38.2602L26.626 45.2196L30.3755 42.2199C30.8068 41.8749 31.436 41.9448 31.7811 42.3761C32.1261 42.8074 32.0561 43.4367 31.6249 43.7817L27.8749 46.7817C27.6099 46.9934 27.2949 47.1347 26.9605 47.1914C26.626 47.2481 26.2826 47.2189 25.9626 47.1064C25.6426 46.9938 25.3565 46.8018 25.1311 46.5483C24.9058 46.2947 24.7486 45.9881 24.6744 45.6571L24.6737 45.6539L23.1388 38.7031C23.0668 38.4057 23.0657 38.0955 23.1358 37.7974C23.2067 37.4963 23.3481 37.2164 23.5485 36.9808L27.4701 32.2848C27.8241 31.8609 28.4548 31.8042 28.8787 32.1583Z" fill="white"/>
<path fill-rule="evenodd" clip-rule="evenodd" d="M41.0474 32.056C41.4716 31.7025 42.1022 31.7598 42.4558 32.1841L46.4521 36.9797C46.6523 37.2152 46.7936 37.4949 46.8644 37.7959C46.9345 38.0939 46.9335 38.4042 46.8614 38.7016L45.3265 45.6524L45.3258 45.6555C45.2516 45.9865 45.0944 46.2932 44.8691 46.5467C44.6437 46.8002 44.3576 46.9923 44.0376 47.1048C43.7176 47.2173 43.3742 47.2466 43.0398 47.1898C42.7053 47.1331 42.3908 46.9922 42.1258 46.7805L38.3753 43.7801C37.9441 43.4351 37.8742 42.8058 38.2192 42.3745C38.5642 41.9433 39.1935 41.8734 39.6247 42.2184L43.3743 45.218L44.9111 38.2586C44.9113 38.2575 44.9115 38.2565 44.9118 38.2554L40.9193 33.4644C40.5658 33.0402 40.6231 32.4096 41.0474 32.056Z" fill="white"/>
<path d="M35 32.5C35.8284 32.5 36.5 31.8284 36.5 31C36.5 30.1716 35.8284 29.5 35 29.5C34.1716 29.5 33.5 30.1716 33.5 31C33.5 31.8284 34.1716 32.5 35 32.5Z" fill="white"/>
</svg>
