<svg width="70" height="70" viewBox="0 0 70 70" fill="none" xmlns="http://www.w3.org/2000/svg">
<circle cx="35" cy="35" r="35" fill="#E38533"/>
<path fill-rule="evenodd" clip-rule="evenodd" d="M45.5681 27.4456L48.6386 33.3246L48.6386 33.3246L48.6411 33.3293L46.4319 34.4294L43.358 28.5506L45.5681 27.4456ZM49.0872 34.2234L49.5333 35.1193L46.4458 36.6568C45.9583 36.8995 45.3662 36.7076 45.1138 36.225L41.1138 28.575C40.9895 28.3372 40.9659 28.0593 41.0485 27.804C41.131 27.5487 41.3128 27.3372 41.5528 27.2172L44.6749 25.6561C45.1414 25.4197 45.6824 25.3766 46.1805 25.5364C46.6796 25.6965 47.0952 26.0472 47.3369 26.5122C47.3372 26.5127 47.3374 26.5131 47.3376 26.5136L50.4089 32.3939C50.4094 32.3949 50.4099 32.3958 50.4104 32.3967C50.5342 32.6317 50.61 32.889 50.6334 33.1536C50.6568 33.4192 50.6269 33.6868 50.5453 33.9407C50.4638 34.1946 50.3323 34.4297 50.1586 34.632C49.9849 34.8343 49.7725 34.9999 49.5339 35.1189L49.0872 34.2234Z" fill="white"/>
<path fill-rule="evenodd" clip-rule="evenodd" d="M24.4369 27.3125L21.3639 33.1962L23.5688 34.3032L26.6424 28.4153L24.4369 27.3125ZM23.8098 25.4134C24.3048 25.2499 24.844 25.2862 25.3127 25.5144L25.322 25.519L28.447 27.0815C28.6869 27.2015 28.8686 27.4128 28.9512 27.668C29.0338 27.9232 29.0104 28.2009 28.8863 28.4387L24.8863 36.1012C24.6336 36.5853 24.0392 36.7772 23.5511 36.5322L20.4672 34.984C20.23 34.8669 20.0185 34.7036 19.8451 34.5036C19.6706 34.3023 19.5383 34.0679 19.4562 33.8145C19.374 33.561 19.3437 33.2936 19.367 33.0281C19.3901 32.7641 19.4659 32.5073 19.5897 32.2729L22.6627 26.3894C22.6628 26.3891 22.663 26.3888 22.6632 26.3885C22.9038 25.9265 23.3152 25.5767 23.8098 25.4134Z" fill="white"/>
<path fill-rule="evenodd" clip-rule="evenodd" d="M23.2118 35.0214C23.5516 34.5861 24.18 34.5087 24.6154 34.8485L31.4529 40.186L31.4679 40.1979L38.6674 41.9978C38.6753 41.9987 38.6833 41.9981 38.691 41.9959C38.6986 41.9938 38.7057 41.9903 38.712 41.9856L43.2645 37.4331L45.2385 35.1136C45.5965 34.6931 46.2276 34.6423 46.6482 35.0002C47.0687 35.3582 47.1195 35.9893 46.7616 36.4099L44.7616 38.7599C44.7442 38.7803 44.7261 38.7999 44.7072 38.8189L40.1072 43.4189C40.1028 43.4232 40.0985 43.4274 40.0941 43.4317C40.0905 43.4352 40.0868 43.4387 40.0831 43.4422C39.8397 43.6697 39.5448 43.835 39.2237 43.9237C38.9025 44.0125 38.5646 44.0221 38.2389 43.9517C38.2284 43.9495 38.2179 43.947 38.2075 43.9444L30.9575 42.1319C30.9488 42.1297 30.9402 42.1274 30.9315 42.125C30.6704 42.0523 30.4269 41.9272 30.2157 41.7574L23.3847 36.425C22.9494 36.0852 22.8719 35.4568 23.2118 35.0214Z" fill="white"/>
<path fill-rule="evenodd" clip-rule="evenodd" d="M36.9143 29.1133L32.028 33.9871C32.0272 33.9882 32.0266 33.9893 32.0261 33.9905C32.0255 33.9922 32.0253 33.9939 32.0254 33.9957C32.0256 33.9975 32.0261 33.9992 32.0269 34.0007C32.0278 34.0023 32.0289 34.0037 32.0303 34.0047L32.7013 34.5142C33.2212 34.9011 33.852 35.1102 34.5001 35.1102C35.1491 35.1102 35.7808 34.9006 36.301 34.5126C36.3013 34.5124 36.3017 34.5121 36.302 34.5119L37.9001 33.3133C38.2513 33.0499 38.7332 33.0463 39.0883 33.3046L44.5883 37.3046C45.0349 37.6294 45.1337 38.2548 44.8088 38.7015C44.484 39.1481 43.8586 39.2469 43.4119 38.922L38.5093 35.3564L37.4982 36.1147C36.6323 36.761 35.5807 37.1102 34.5001 37.1102C33.4196 37.1102 32.3679 36.761 31.502 36.1147L31.4954 36.1098L30.8204 35.5972C30.5935 35.4247 30.4054 35.2057 30.2694 34.9552C30.1333 34.7048 30.0521 34.4283 30.0309 34.1441C30.0098 33.8598 30.0493 33.5744 30.1467 33.3066C30.2442 33.0387 30.3974 32.7947 30.5963 32.5905L30.6064 32.5803L35.5073 27.6919C35.6925 27.5076 35.9123 27.3616 36.1541 27.2623C36.3952 27.1633 36.6534 27.1126 36.9141 27.1133C36.9147 27.1133 36.9154 27.1133 36.9161 27.1133L36.9126 28.1133V27.1133H36.9141H42.0001C42.5524 27.1133 43.0001 27.561 43.0001 28.1133C43.0001 28.6656 42.5524 29.1133 42.0001 29.1133H36.9143Z" fill="white"/>
<path fill-rule="evenodd" clip-rule="evenodd" d="M34.7627 27.0625L39.0863 29.0244C39.5892 29.2526 40.1819 29.0299 40.4101 28.527C40.6383 28.024 40.4156 27.4313 39.9127 27.2031L35.5877 25.2406L35.5863 25.24C35.1543 25.0447 34.667 25.0093 34.2113 25.14L27.7938 27.0164C27.2637 27.1714 26.9597 27.7268 27.1147 28.2569C27.2697 28.787 27.825 29.0911 28.3551 28.9361L34.7627 27.0625Z" fill="white"/>
<path fill-rule="evenodd" clip-rule="evenodd" d="M25.2445 41.3448C25.6064 40.9276 26.238 40.8827 26.6552 41.2445L29.4767 43.6916C29.4786 43.692 29.4805 43.6925 29.4823 43.6929L33.2448 44.6429C33.7803 44.7781 34.1048 45.3218 33.9696 45.8573C33.8344 46.3928 33.2907 46.7173 32.7552 46.5821L29.0027 45.6346C28.692 45.5619 28.4042 45.4131 28.1653 45.2015L25.3448 42.7555C24.9276 42.3936 24.8827 41.7621 25.2445 41.3448Z" fill="white"/>
</svg>
