<svg width="70" height="70" viewBox="0 0 70 70" fill="none" xmlns="http://www.w3.org/2000/svg">
<circle cx="35" cy="35" r="35" fill="#E38533"/>
<path fill-rule="evenodd" clip-rule="evenodd" d="M22.9746 24.4609C23.5269 24.4609 23.9746 24.9087 23.9746 25.4609V30.4609H28.9746C29.5269 30.4609 29.9746 30.9087 29.9746 31.4609C29.9746 32.0132 29.5269 32.4609 28.9746 32.4609H22.9746C22.4223 32.4609 21.9746 32.0132 21.9746 31.4609V25.4609C21.9746 24.9087 22.4223 24.4609 22.9746 24.4609Z" fill="white"/>
<path fill-rule="evenodd" clip-rule="evenodd" d="M30.4082 23.9142C31.8637 23.3106 33.4239 23 34.9996 23C36.5753 23 38.1355 23.3106 39.5911 23.9142C41.0466 24.5177 42.3689 25.4022 43.4822 26.5172C43.8725 26.9081 43.872 27.5412 43.4812 27.9315C43.0904 28.3217 42.4572 28.3212 42.067 27.9304C41.1394 27.0015 40.0377 26.2645 38.825 25.7616C37.6123 25.2588 36.3124 25 34.9996 25C33.6868 25 32.3869 25.2588 31.1742 25.7616C29.9615 26.2645 28.8598 27.0015 27.9322 27.9304L27.9307 27.932L23.6807 32.1695C23.2896 32.5594 22.6564 32.5585 22.2665 32.1674C21.8765 31.7763 21.8774 31.1431 22.2685 30.7532L26.517 26.5172C26.5172 26.517 26.5175 26.5167 26.5178 26.5165C27.631 25.4018 28.953 24.5175 30.4082 23.9142Z" fill="white"/>
<path fill-rule="evenodd" clip-rule="evenodd" d="M40.0254 38.5391C40.0254 37.9868 40.4731 37.5391 41.0254 37.5391H47.0254C47.5777 37.5391 48.0254 37.9868 48.0254 38.5391V44.5391C48.0254 45.0913 47.5777 45.5391 47.0254 45.5391C46.4731 45.5391 46.0254 45.0913 46.0254 44.5391V39.5391H41.0254C40.4731 39.5391 40.0254 39.0913 40.0254 38.5391Z" fill="white"/>
<path fill-rule="evenodd" clip-rule="evenodd" d="M47.7328 37.833C48.1227 38.2241 48.1218 38.8573 47.7307 39.2472L43.4822 43.4832L43.4815 43.4839C42.3683 44.5985 41.0463 45.4828 39.5911 46.0862C38.1355 46.6897 36.5753 47.0004 34.9996 47.0004C33.4239 47.0004 31.8637 46.6897 30.4082 46.0862C28.9526 45.4827 27.6304 44.5981 26.517 43.4832C26.1267 43.0923 26.1272 42.4592 26.518 42.0689C26.9088 41.6787 27.542 41.6792 27.9322 42.07C28.8598 42.9989 29.9615 43.7359 31.1742 44.2387C32.3869 44.7416 33.6868 45.0004 34.9996 45.0004C36.3124 45.0004 37.6123 44.7416 38.825 44.2387C40.0377 43.7359 41.1394 42.9989 42.067 42.07L46.3185 37.8309C46.7096 37.441 47.3428 37.4419 47.7328 37.833Z" fill="white"/>
</svg>
