<svg width="64" height="64" viewBox="0 0 64 64" fill="none" xmlns="http://www.w3.org/2000/svg">
<circle cx="32" cy="32" r="32" fill="#E38533"/>
<mask id="mask0_28_3456" style="mask-type:alpha" maskUnits="userSpaceOnUse" x="16" y="16" width="32" height="32">
<rect x="16" y="16" width="32" height="32" fill="#D9D9D9"/>
</mask>
<g mask="url(#mask0_28_3456)">
<path d="M36.0007 42.6654C33.0229 42.6654 30.5007 41.632 28.434 39.5654C26.3673 37.4987 25.334 34.9765 25.334 31.9987C25.334 29.0431 26.3673 26.5265 28.434 24.4487C30.5007 22.3709 33.0229 21.332 36.0007 21.332C38.9562 21.332 41.4729 22.3709 43.5507 24.4487C45.6284 26.5265 46.6673 29.0431 46.6673 31.9987C46.6673 34.9765 45.6284 37.4987 43.5507 39.5654C41.4729 41.632 38.9562 42.6654 36.0007 42.6654ZM36.0007 39.9987C38.2229 39.9987 40.1118 39.2209 41.6673 37.6654C43.2229 36.1098 44.0007 34.2209 44.0007 31.9987C44.0007 29.7765 43.2229 27.8876 41.6673 26.332C40.1118 24.7765 38.2229 23.9987 36.0007 23.9987C33.7784 23.9987 31.8895 24.7765 30.334 26.332C28.7784 27.8876 28.0007 29.7765 28.0007 31.9987C28.0007 34.2209 28.7784 36.1098 30.334 37.6654C31.8895 39.2209 33.7784 39.9987 36.0007 39.9987ZM39.034 36.9654L40.934 35.0654L37.334 31.4654V26.6654H34.6673V32.5654L39.034 36.9654ZM18.6673 27.9987V25.332H24.0007V27.9987H18.6673ZM17.334 33.332V30.6654H24.0007V33.332H17.334ZM18.6673 38.6654V35.9987H24.0007V38.6654H18.6673Z" fill="white"/>
</g>
</svg>
