<svg width="64" height="64" viewBox="0 0 64 64" fill="none" xmlns="http://www.w3.org/2000/svg">
<circle cx="32" cy="32" r="32" fill="#E38533"/>
<mask id="mask0_28_3480" style="mask-type:alpha" maskUnits="userSpaceOnUse" x="16" y="16" width="32" height="32">
<rect x="16" y="16" width="32" height="32" fill="#D9D9D9"/>
</mask>
<g mask="url(#mask0_28_3480)">
<path d="M35.6673 42.668L38.334 45.3346H24.0007C23.2673 45.3346 22.6395 45.0735 22.1173 44.5513C21.5951 44.0291 21.334 43.4013 21.334 42.668V21.3346C21.334 20.6013 21.5951 19.9735 22.1173 19.4513C22.6395 18.9291 23.2673 18.668 24.0007 18.668H36.0007L42.6673 26.668V42.668C42.6673 43.1124 42.5729 43.518 42.384 43.8846C42.1951 44.2513 41.934 44.5569 41.6007 44.8013L34.6673 37.9346C34.2895 38.1791 33.8784 38.3624 33.434 38.4846C32.9895 38.6069 32.5118 38.668 32.0007 38.668C30.534 38.668 29.2784 38.1457 28.234 37.1013C27.1895 36.0569 26.6673 34.8013 26.6673 33.3346C26.6673 31.868 27.1895 30.6124 28.234 29.568C29.2784 28.5235 30.534 28.0013 32.0007 28.0013C33.4673 28.0013 34.7229 28.5235 35.7673 29.568C36.8118 30.6124 37.334 31.868 37.334 33.3346C37.334 33.8457 37.2729 34.3235 37.1507 34.768C37.0284 35.2124 36.8451 35.6235 36.6007 36.0013L40.0007 39.468V27.6013L34.734 21.3346H24.0007V42.668H35.6673ZM32.0007 36.0013C32.734 36.0013 33.3618 35.7402 33.884 35.218C34.4062 34.6957 34.6673 34.068 34.6673 33.3346C34.6673 32.6013 34.4062 31.9735 33.884 31.4513C33.3618 30.9291 32.734 30.668 32.0007 30.668C31.2673 30.668 30.6395 30.9291 30.1173 31.4513C29.5951 31.9735 29.334 32.6013 29.334 33.3346C29.334 34.068 29.5951 34.6957 30.1173 35.218C30.6395 35.7402 31.2673 36.0013 32.0007 36.0013Z" fill="white"/>
</g>
</svg>
