<svg width="70" height="70" viewBox="0 0 70 70" fill="none" xmlns="http://www.w3.org/2000/svg">
<circle cx="35" cy="35" r="35" fill="#E38533"/>
<path fill-rule="evenodd" clip-rule="evenodd" d="M35 23C35.5523 23 36 23.4477 36 24V46C36 46.5523 35.5523 47 35 47C34.4477 47 34 46.5523 34 46V24C34 23.4477 34.4477 23 35 23Z" fill="white"/>
<path fill-rule="evenodd" clip-rule="evenodd" d="M31 46C31 45.4477 31.4477 45 32 45H38C38.5523 45 39 45.4477 39 46C39 46.5523 38.5523 47 38 47H32C31.4477 47 31 46.5523 31 46Z" fill="white"/>
<path fill-rule="evenodd" clip-rule="evenodd" d="M44.9764 25.7833C45.0962 26.3224 44.7563 26.8566 44.2171 26.9764L26.2171 30.9764C25.678 31.0962 25.1438 30.7563 25.024 30.2171C24.9042 29.678 25.2442 29.1438 25.7833 29.024L43.7833 25.024C44.3224 24.9042 44.8566 25.2442 44.9764 25.7833Z" fill="white"/>
<path fill-rule="evenodd" clip-rule="evenodd" d="M26 29C26.4089 29 26.7766 29.249 26.9285 29.6286L30.9285 39.6286C30.9757 39.7467 31 39.8728 31 40C31 41.5611 30.0895 42.5973 29.066 43.1937C28.0721 43.7728 26.8907 44 26 44C25.1093 44 23.9279 43.7728 22.934 43.1937C21.9105 42.5973 21 41.5611 21 40C21 39.8728 21.0243 39.7467 21.0715 39.6286L25.0715 29.6286C25.2234 29.249 25.5911 29 26 29ZM23.0083 40.172C23.0635 40.7343 23.3938 41.1469 23.941 41.4657C24.5721 41.8335 25.3907 42 26 42C26.6093 42 27.4279 41.8335 28.059 41.4657C28.6062 41.1469 28.9365 40.7343 28.9917 40.172L26 32.6926L23.0083 40.172Z" fill="white"/>
<path fill-rule="evenodd" clip-rule="evenodd" d="M44 25C44.4089 25 44.7766 25.249 44.9285 25.6286L48.9285 35.6286C48.9757 35.7467 49 35.8728 49 36C49 37.5611 48.0895 38.5973 47.066 39.1937C46.0721 39.7728 44.8907 40 44 40C43.1093 40 41.9279 39.7728 40.934 39.1937C39.9105 38.5973 39 37.5611 39 36C39 35.8728 39.0243 35.7467 39.0715 35.6286L43.0715 25.6286C43.2234 25.249 43.5911 25 44 25ZM41.0083 36.172C41.0635 36.7343 41.3938 37.1469 41.941 37.4657C42.5721 37.8335 43.3907 38 44 38C44.6093 38 45.4279 37.8335 46.059 37.4657C46.6062 37.1469 46.9365 36.7343 46.9917 36.172L44 28.6926L41.0083 36.172Z" fill="white"/>
</svg>
