<svg width="24" height="32" viewBox="0 0 24 32" fill="none" xmlns="http://www.w3.org/2000/svg">
<g clip-path="url(#clip0_131_4472)">
<path d="M3.13086 24.5938C3.27245 24.077 3.40622 23.5867 3.54086 23.0962C3.8197 22.0799 4.10201 21.0648 4.37303 20.0465C4.39909 19.9487 4.38751 19.8146 4.33916 19.7273C1.84902 15.2103 3.59472 9.52763 8.19656 7.18709C13.2831 4.60027 19.4659 7.20151 21.1415 12.6333C22.6206 17.4283 19.9008 22.563 15.0818 24.0337C12.6887 24.7642 10.3665 24.5352 8.13025 23.4149C8.04426 23.3716 7.91946 23.3598 7.82565 23.3837C6.32895 23.767 4.83458 24.1589 3.33963 24.5482C3.27998 24.5638 3.21917 24.5747 3.13086 24.5938ZM5.32884 22.4355C6.24817 22.1953 7.12927 21.9689 8.00806 21.7321C8.15747 21.692 8.27127 21.7119 8.40301 21.7907C10.0995 22.8038 11.9274 23.1377 13.8645 22.7539C17.9715 21.9403 20.6334 17.9834 19.8594 13.8776C19.0904 9.799 15.0731 7.07491 10.971 7.85067C5.84164 8.8208 3.16879 14.517 5.74869 19.0334C6.01595 19.5012 6.07038 19.8856 5.90389 20.3782C5.67978 21.0409 5.52342 21.7261 5.32884 22.4355Z" fill="#FDFDFF"/>
<path d="M9.41265 11.1068C9.80036 11.0111 9.9906 11.2438 10.1264 11.5942C10.334 12.13 10.561 12.6586 10.7892 13.1864C10.8685 13.3701 10.8616 13.5316 10.7423 13.6899C10.561 13.9298 10.3876 14.1761 10.1959 14.4077C10.0665 14.564 10.0549 14.7036 10.1585 14.8772C10.9067 16.1288 11.9509 17.034 13.312 17.5742C13.4994 17.6486 13.6473 17.6145 13.7727 17.4582C13.9971 17.1788 14.227 16.9034 14.4491 16.6222C14.6127 16.4154 14.7068 16.3644 14.9419 16.4711C15.5891 16.765 16.2304 17.0718 16.8657 17.3908C16.9442 17.4303 17.0148 17.5745 17.0134 17.6688C16.9986 18.6415 16.7114 19.1075 15.6707 19.5436C15.0803 19.7907 14.4674 19.7327 13.8584 19.5637C11.6491 18.9509 10.0216 17.5678 8.71947 15.7444C8.31496 15.178 7.95013 14.594 7.79522 13.9073C7.57226 12.919 7.81607 12.0622 8.54574 11.3468C8.78288 11.1143 9.06953 11.0679 9.41265 11.1068Z" fill="#FDFDFF"/>
</g>
<defs>
<clipPath id="clip0_131_4472">
<rect width="18.414" height="18.414" fill="white" transform="translate(3.13086 6.17969)"/>
</clipPath>
</defs>
</svg>
